<svg width="24" height="24" viewBox="0 0 24 24" fill="none" xmlns="http://www.w3.org/2000/svg">
<rect width="24" height="24" rx="12" fill="white"/>
<g clip-path="url(#clip0_1845_10369)">
<path d="M12.0147 18.5546C8.45957 18.5546 5.56738 15.6464 5.56738 12.0724C5.56738 8.49832 8.45957 5.59009 12.0147 5.59009C15.5698 5.59009 18.4619 8.49832 18.4619 12.0724C18.4619 15.6464 15.5698 18.5546 12.0147 18.5546ZM12.0147 6.67272C9.04897 6.67272 6.63658 9.09512 6.63658 12.0724C6.63658 15.0496 9.04897 17.472 12.0147 17.472C14.9804 17.472 17.3927 15.0496 17.3927 12.0724C17.3927 9.09512 14.9804 6.67272 12.0147 6.67272Z" fill="#EF6250"/>
<path d="M12.0004 12.5853C11.9029 12.5853 11.804 12.5596 11.7144 12.5082C11.4378 12.3471 11.3415 11.9899 11.5006 11.7097L15.6624 4.35186C15.8215 4.07173 16.1743 3.97429 16.451 4.13533C16.7276 4.29637 16.8239 4.65364 16.6648 4.93378L12.5016 12.2903C12.3947 12.4784 12.1996 12.5853 12.0004 12.5853Z" fill="#EF6250"/>
<path d="M11.9997 12.5854C11.8019 12.5854 11.6082 12.4825 11.5012 12.2958L7.2418 4.93927C7.08009 4.6605 7.17231 4.30187 7.44763 4.13948C7.72295 3.97573 8.07712 4.07046 8.2375 4.34789L12.4969 11.7044C12.6586 11.9832 12.5664 12.3418 12.2911 12.5042C12.1989 12.5583 12.0987 12.584 11.9997 12.584V12.5854Z" fill="#EF6250"/>
<path d="M12 12.5853H3.57737C3.25794 12.5853 3 12.3241 3 12.0006C3 11.6772 3.25928 11.416 3.57737 11.416H12C12.3194 11.416 12.5774 11.6772 12.5774 12.0006C12.5774 12.3241 12.3181 12.5853 12 12.5853Z" fill="#EF6250"/>
<path d="M7.83637 19.9419C7.7388 19.9419 7.6399 19.9162 7.55036 19.8647C7.2737 19.7037 7.17747 19.3464 7.33652 19.0663L11.4997 11.7084C11.6588 11.4283 12.0116 11.3322 12.2883 11.4919C12.5649 11.653 12.6611 12.0102 12.5021 12.2904L8.33889 19.6482C8.23197 19.8363 8.03684 19.9419 7.8377 19.9419H7.83637Z" fill="#EF6250"/>
<path d="M16.2595 19.9418C16.0617 19.9418 15.8679 19.8389 15.761 19.6522L11.5016 12.2943C11.3399 12.0155 11.4321 11.6569 11.7074 11.4945C11.9827 11.3308 12.3369 11.4241 12.4973 11.7029L16.7567 19.0608C16.9184 19.3396 16.8262 19.6982 16.5509 19.8606C16.4587 19.9147 16.3584 19.9404 16.2595 19.9404V19.9418Z" fill="#EF6250"/>
<path d="M20.4229 12.5853H12.0002C11.6808 12.5853 11.4229 12.3241 11.4229 12.0006C11.4229 11.6772 11.6821 11.416 12.0002 11.416H20.4229C20.7423 11.416 21.0002 11.6772 21.0002 12.0006C21.0002 12.3241 20.7409 12.5853 20.4229 12.5853Z" fill="#EF6250"/>
<path d="M12.704 12.0724C12.704 12.4825 12.3739 12.814 11.9663 12.814C11.5586 12.814 11.2285 12.4825 11.2285 12.0724C11.2285 11.6624 11.5586 11.3308 11.9663 11.3308C12.3739 11.3308 12.704 11.6624 12.704 12.0724Z" fill="#EF6250"/>
<path d="M16.2305 11.9992C16.2305 14.3391 14.3433 16.2351 12.0151 16.2351C9.68694 16.2351 7.7998 14.3391 7.7998 11.9992C7.7998 9.65939 9.68694 7.76343 12.0151 7.76343C14.3433 7.76343 16.2305 9.65939 16.2305 11.9992Z" fill="#EF6250"/>
<path d="M15.0859 11.9993C15.0859 13.7031 13.7107 15.0848 12.0146 15.0848C10.3186 15.0848 8.94336 13.7031 8.94336 11.9993C8.94336 10.2955 10.3186 8.91382 12.0146 8.91382C13.7107 8.91382 15.0859 10.2955 15.0859 11.9993Z" fill="#C64F46"/>
<path d="M13.2787 11.9993C13.2787 12.7003 12.7133 13.27 12.0143 13.27C11.3153 13.27 10.75 12.7016 10.75 11.9993C10.75 11.2969 11.3153 10.7285 12.0143 10.7285C12.7133 10.7285 13.2787 11.2969 13.2787 11.9993Z" fill="#EF6250"/>
<path d="M20.1444 12.8655C20.6168 12.8655 20.9998 12.4777 20.9998 11.9994C20.9998 11.5211 20.6168 11.1333 20.1444 11.1333C19.672 11.1333 19.2891 11.5211 19.2891 11.9994C19.2891 12.4777 19.672 12.8655 20.1444 12.8655Z" fill="#EF6250"/>
<path d="M3.85536 12.8655C4.32776 12.8655 4.71072 12.4777 4.71072 11.9994C4.71072 11.5211 4.32776 11.1333 3.85536 11.1333C3.38296 11.1333 3 11.5211 3 11.9994C3 12.4777 3.38296 12.8655 3.85536 12.8655Z" fill="#EF6250"/>
<path d="M16.0868 5.73222C16.5592 5.73222 16.9422 5.34445 16.9422 4.86611C16.9422 4.38777 16.5592 4 16.0868 4C15.6144 4 15.2314 4.38777 15.2314 4.86611C15.2314 5.34445 15.6144 5.73222 16.0868 5.73222Z" fill="#EF6250"/>
<path d="M7.91298 20C8.38538 20 8.76834 19.6123 8.76834 19.1339C8.76834 18.6556 8.38538 18.2678 7.91298 18.2678C7.44058 18.2678 7.05762 18.6556 7.05762 19.1339C7.05762 19.6123 7.44058 20 7.91298 20Z" fill="#EF6250"/>
<path d="M7.91298 5.73222C8.38538 5.73222 8.76834 5.34445 8.76834 4.86611C8.76834 4.38777 8.38538 4 7.91298 4C7.44058 4 7.05762 4.38777 7.05762 4.86611C7.05762 5.34445 7.44058 5.73222 7.91298 5.73222Z" fill="#EF6250"/>
<path d="M16.0868 20C16.5592 20 16.9422 19.6123 16.9422 19.1339C16.9422 18.6556 16.5592 18.2678 16.0868 18.2678C15.6144 18.2678 15.2314 18.6556 15.2314 19.1339C15.2314 19.6123 15.6144 20 16.0868 20Z" fill="#EF6250"/>
</g>
<defs>
<clipPath id="clip0_1845_10369">
<rect width="18" height="16" fill="white" transform="translate(3 4)"/>
</clipPath>
</defs>
</svg>
