<svg width="24" height="24" viewBox="0 0 24 24" fill="none" xmlns="http://www.w3.org/2000/svg">
<rect width="24" height="24" rx="12" fill="white"/>
<g clip-path="url(#clip0_1624_1166)">
<path d="M11.9994 4C8.96287 4 6.5 6.41646 6.5 9.39573C6.5 9.74199 6.53616 10.0809 6.59976 10.4088C6.68955 10.8713 6.84044 11.313 7.04121 11.7253C7.03497 11.7143 7.03747 11.7204 7.04744 11.7388C7.04869 11.7412 7.04869 11.7412 7.04994 11.7437C7.05991 11.7632 7.07114 11.7828 7.08111 11.8024C7.12601 11.8929 7.13349 11.9052 7.08485 11.8097C7.40285 12.4276 9.18235 15.9306 9.18235 15.9306L10.9232 19.3454C11.3659 20.2141 12.6304 20.2141 13.0731 19.3454L14.8139 15.9306C14.8139 15.9306 16.6545 12.3114 16.9176 11.7987C16.8678 11.8978 16.879 11.8783 16.9276 11.7804C16.9314 11.7743 16.9339 11.7694 16.9363 11.7632C16.9426 11.751 16.9463 11.7424 16.9488 11.7388C17.1546 11.3216 17.3067 10.875 17.3977 10.4064C17.4613 10.0772 17.4975 9.73954 17.4975 9.39329C17.5 6.41646 15.0371 4 11.9994 4Z" fill="#EF6250"/>
<path d="M11.9995 12.9844C14.0574 12.9844 15.7257 11.3476 15.7257 9.32849C15.7257 7.3094 14.0574 5.67261 11.9995 5.67261C9.94167 5.67261 8.27344 7.3094 8.27344 9.32849C8.27344 11.3476 9.94167 12.9844 11.9995 12.9844Z" fill="white"/>
<path d="M10.2256 10.0808C10.1807 10.0808 10.1358 10.0759 10.0922 10.0673C10.0486 10.06 10.0049 10.0465 9.96376 10.0294C9.92261 10.0123 9.8827 9.9927 9.84529 9.96823C9.80788 9.94376 9.77296 9.91562 9.74179 9.88381C9.70936 9.85322 9.68068 9.81896 9.65574 9.78225C9.63205 9.74677 9.6096 9.70762 9.59339 9.66724C9.57593 9.62564 9.56346 9.58404 9.55473 9.54C9.546 9.49717 9.54102 9.4519 9.54102 9.40908C9.54102 9.36626 9.546 9.32099 9.55473 9.27816C9.56346 9.23534 9.57593 9.19252 9.59339 9.15214C9.61085 9.11054 9.63205 9.07261 9.65574 9.03591C9.68068 8.9992 9.70936 8.96494 9.74179 8.93435C9.77296 8.90254 9.80788 8.8744 9.84529 8.84993C9.8827 8.82668 9.92136 8.80466 9.96376 8.78875C10.0049 8.77162 10.0486 8.75939 10.0922 8.75083C10.1807 8.73247 10.2718 8.73247 10.3603 8.75083C10.4052 8.75939 10.4476 8.77162 10.49 8.78875C10.5312 8.80588 10.5711 8.82668 10.6072 8.84993C10.6446 8.8744 10.6808 8.90254 10.712 8.93435C10.7431 8.96617 10.7718 8.9992 10.7968 9.03591C10.8217 9.07261 10.8429 9.11054 10.8591 9.15214C10.8766 9.19252 10.8903 9.23534 10.8978 9.27816C10.9065 9.32221 10.9115 9.36626 10.9115 9.40908C10.9115 9.4519 10.9065 9.49717 10.8978 9.54C10.8903 9.58404 10.8766 9.62564 10.8591 9.66724C10.8417 9.70762 10.8217 9.74677 10.7968 9.78225C10.7718 9.81896 10.7431 9.85444 10.7107 9.88381C10.6795 9.91562 10.6446 9.94376 10.6072 9.96823C10.5711 9.9927 10.5312 10.0135 10.49 10.0294C10.4476 10.0465 10.4052 10.06 10.3603 10.0673C10.3167 10.0759 10.2705 10.0808 10.2269 10.0808H10.2256Z" fill="#F9D2C0"/>
<path d="M12.003 10.0808C11.9581 10.0808 11.9132 10.0759 11.8695 10.0673C11.8259 10.06 11.7823 10.0465 11.7411 10.0294C11.6999 10.0123 11.66 9.9927 11.6226 9.96823C11.5852 9.94376 11.5503 9.91562 11.5191 9.88381C11.4867 9.85322 11.458 9.81896 11.4331 9.78225C11.4094 9.74677 11.3869 9.70762 11.3707 9.66724C11.3533 9.62564 11.3408 9.58404 11.3321 9.54C11.3233 9.49717 11.3184 9.4519 11.3184 9.40908C11.3184 9.36626 11.3233 9.32099 11.3321 9.27816C11.3408 9.23534 11.3533 9.19252 11.3707 9.15214C11.3882 9.11054 11.4094 9.07261 11.4331 9.03591C11.458 8.9992 11.4867 8.96494 11.5191 8.93435C11.5503 8.90254 11.5852 8.8744 11.6226 8.84993C11.66 8.82668 11.6987 8.80466 11.7411 8.78875C11.7823 8.77162 11.8259 8.75939 11.8695 8.75083C11.9581 8.73247 12.0491 8.73247 12.1377 8.75083C12.1825 8.75939 12.2249 8.77162 12.2673 8.78875C12.3085 8.80588 12.3484 8.82668 12.3846 8.84993C12.422 8.8744 12.4581 8.90254 12.4893 8.93435C12.5205 8.96617 12.5492 8.9992 12.5741 9.03591C12.5991 9.07261 12.6203 9.11054 12.6365 9.15214C12.6539 9.19252 12.6676 9.23534 12.6751 9.27816C12.6839 9.32221 12.6888 9.36626 12.6888 9.40908C12.6888 9.4519 12.6839 9.49717 12.6751 9.54C12.6676 9.58404 12.6539 9.62564 12.6365 9.66724C12.619 9.70762 12.5991 9.74677 12.5741 9.78225C12.5492 9.81896 12.5205 9.85444 12.4881 9.88381C12.4569 9.91562 12.422 9.94376 12.3846 9.96823C12.3484 9.9927 12.3085 10.0135 12.2673 10.0294C12.2249 10.0465 12.1825 10.06 12.1377 10.0673C12.094 10.0759 12.0479 10.0808 12.0042 10.0808H12.003Z" fill="#F9D2C0"/>
<path d="M13.7803 10.0808C13.7354 10.0808 13.6905 10.0759 13.6469 10.0673C13.6032 10.06 13.5596 10.0465 13.5184 10.0294C13.4773 10.0123 13.4374 9.9927 13.4 9.96823C13.3626 9.94376 13.3276 9.91562 13.2965 9.88381C13.2641 9.85322 13.2354 9.81896 13.2104 9.78225C13.1867 9.74677 13.1643 9.70762 13.1481 9.66724C13.1306 9.62564 13.1181 9.58404 13.1094 9.54C13.1007 9.49717 13.0957 9.4519 13.0957 9.40908C13.0957 9.36626 13.1007 9.32099 13.1094 9.27816C13.1181 9.23534 13.1306 9.19252 13.1481 9.15214C13.1655 9.11054 13.1867 9.07261 13.2104 9.03591C13.2354 8.9992 13.2641 8.96494 13.2965 8.93435C13.3276 8.90254 13.3626 8.8744 13.4 8.84993C13.4374 8.82668 13.476 8.80466 13.5184 8.78875C13.5596 8.77162 13.6032 8.75939 13.6469 8.75083C13.7354 8.73247 13.8265 8.73247 13.915 8.75083C13.9599 8.75939 14.0023 8.77162 14.0447 8.78875C14.0858 8.80588 14.1257 8.82668 14.1619 8.84993C14.1993 8.8744 14.2355 8.90254 14.2667 8.93435C14.2978 8.96617 14.3265 8.9992 14.3515 9.03591C14.3764 9.07261 14.3976 9.11054 14.4138 9.15214C14.4313 9.19252 14.445 9.23534 14.4525 9.27816C14.4612 9.32221 14.4662 9.36626 14.4662 9.40908C14.4662 9.4519 14.4612 9.49717 14.4525 9.54C14.445 9.58404 14.4313 9.62564 14.4138 9.66724C14.3963 9.70762 14.3764 9.74677 14.3515 9.78225C14.3265 9.81896 14.2978 9.85444 14.2654 9.88381C14.2342 9.91562 14.1993 9.94376 14.1619 9.96823C14.1257 9.9927 14.0858 10.0135 14.0447 10.0294C14.0023 10.0465 13.9599 10.06 13.915 10.0673C13.8714 10.0759 13.8252 10.0808 13.7816 10.0808H13.7803Z" fill="#F9D2C0"/>
</g>
<defs>
<clipPath id="clip0_1624_1166">
<rect width="11" height="16" fill="white" transform="translate(6.5 4)"/>
</clipPath>
</defs>
</svg>
