<svg width="24" height="24" viewBox="0 0 24 24" fill="none" xmlns="http://www.w3.org/2000/svg">
<path d="M15.381 17.884C15.9841 17.884 16.4802 17.9503 16.869 18.0821C17.2579 18.2138 17.6193 18.3608 17.9526 18.5236C18.2858 18.6863 18.6191 18.8374 18.9524 18.9769C19.2857 19.1164 19.6825 19.1867 20.1429 19.1867C20.6032 19.1867 21 19.1164 21.3333 18.9769C21.6666 18.8374 21.9999 18.6863 22.3331 18.5236C22.5427 18.4212 22.7652 18.3256 23 18.2356V20.2296C22.925 20.2656 22.849 20.3002 22.774 20.3377C22.4486 20.5005 22.0831 20.6515 21.6784 20.7911C21.2736 20.9306 20.7618 21 20.1429 21C19.5239 21 19.0121 20.9306 18.6073 20.7911C18.2026 20.6515 17.8371 20.5005 17.5117 20.3377C17.1863 20.175 16.8647 20.0271 16.5472 19.8953C16.2299 19.7637 15.8411 19.6982 15.381 19.6982C14.9365 19.6982 14.5512 19.7635 14.2258 19.8953C13.9005 20.0271 13.5714 20.175 13.2381 20.3377C12.9049 20.5005 12.5359 20.6516 12.1313 20.7911C11.9622 20.8494 11.7752 20.8943 11.5714 20.9282V19.0586C11.65 19.0346 11.7255 19.0077 11.7974 18.9769C12.1228 18.8373 12.4528 18.6864 12.7861 18.5236C13.1193 18.3608 13.4883 18.2138 13.8929 18.0821C14.2976 17.9503 14.7937 17.884 15.381 17.884Z" fill="#86AFF9"/>
<path fill-rule="evenodd" clip-rule="evenodd" d="M14.4286 4.95316L18.8575 3.27889C19.1748 3.15505 19.4686 3.18968 19.7383 3.38337C20.0081 3.57717 20.1429 3.83723 20.1429 4.16281V10.9071C20.1429 10.9071 19.6228 11.318 19.2974 11.0234C18.9721 10.7289 18.619 10.4728 18.2381 10.2558V5.51186L15.381 6.5811V9.51176C15.0476 9.51176 14.7219 9.53926 14.4044 9.59352C14.0871 9.64778 13.7776 9.72852 13.4762 9.83698V6.5811L9.66667 5.2793V17.4425L4.28534 19.4656C3.96805 19.5895 3.67429 19.5548 3.40458 19.3612C3.13473 19.1674 3 18.9073 3 18.5817V5.55819C3 5.35664 3.05952 5.17816 3.17857 5.02311C3.29761 4.86813 3.46056 4.75177 3.66685 4.67427L8.71429 3L14.4286 4.95316ZM4.90476 6.20955V17.2327L7.7619 16.1634V5.2793L4.90476 6.20955Z" fill="#86AFF9"/>
<path d="M15.381 15.0933C15.9841 15.0933 16.4802 15.1595 16.869 15.2913C17.2579 15.4231 17.6193 15.57 17.9526 15.7328C18.2858 15.8956 18.6191 16.0466 18.9524 16.1861C19.2857 16.3257 19.6825 16.396 20.1429 16.396C20.6032 16.396 21 16.3257 21.3333 16.1861C21.6666 16.0466 21.9999 15.8956 22.3331 15.7328C22.5427 15.6305 22.7652 15.5348 23 15.4448V17.4389C22.925 17.4748 22.849 17.5095 22.774 17.547C22.4486 17.7098 22.0831 17.8608 21.6784 18.0003C21.2736 18.1398 20.7618 18.2092 20.1429 18.2092C19.5239 18.2092 19.0121 18.1398 18.6073 18.0003C18.2026 17.8608 17.8371 17.7098 17.5117 17.547C17.1863 17.3842 16.8647 17.2363 16.5472 17.1046C16.2299 16.9729 15.8411 16.9074 15.381 16.9074C14.9365 16.9074 14.5512 16.9728 14.2258 17.1046C13.9005 17.2363 13.5714 17.3842 13.2381 17.547C12.9049 17.7097 12.5359 17.8608 12.1313 18.0003C11.9622 18.0586 11.7752 18.1035 11.5714 18.1375V16.2679C11.65 16.2439 11.7255 16.217 11.7974 16.1861C12.1228 16.0466 12.4528 15.8956 12.7861 15.7328C13.1193 15.5701 13.4883 15.423 13.8929 15.2913C14.2976 15.1595 14.7937 15.0933 15.381 15.0933Z" fill="#86AFF9"/>
<path d="M15.381 12.3025C15.9841 12.3025 16.4802 12.3688 16.869 12.5006C17.2579 12.6323 17.6193 12.7793 17.9526 12.9421C18.2858 13.1048 18.6191 13.2559 18.9524 13.3954C19.2857 13.5349 19.6825 13.6052 20.1429 13.6052C20.6032 13.6052 21 13.5349 21.3333 13.3954C21.6666 13.2559 21.9999 13.1048 22.3331 12.9421C22.5427 12.8397 22.7652 12.7441 23 12.6541V14.6481C22.925 14.6841 22.849 14.7187 22.774 14.7562C22.4486 14.919 22.0831 15.07 21.6784 15.2095C21.2736 15.349 20.7618 15.4185 20.1429 15.4185C19.5239 15.4185 19.0121 15.349 18.6073 15.2095C18.2026 15.07 17.8371 14.919 17.5117 14.7562C17.1863 14.5935 16.8647 14.4456 16.5472 14.3138C16.2299 14.1822 15.8411 14.1167 15.381 14.1167C14.9365 14.1167 14.5512 14.182 14.2258 14.3138C13.9005 14.4456 13.5714 14.5935 13.2381 14.7562C12.9049 14.919 12.5359 15.0701 12.1313 15.2095C11.9622 15.2679 11.7752 15.3128 11.5714 15.3467V13.4771C11.65 13.4531 11.7255 13.4262 11.7974 13.3954C12.1228 13.2558 12.4528 13.1049 12.7861 12.9421C13.1193 12.7793 13.4883 12.6323 13.8929 12.5006C14.2976 12.3688 14.7937 12.3025 15.381 12.3025Z" fill="#86AFF9"/>
</svg>
