<svg width="20" height="24" viewBox="0 0 20 24" fill="none" xmlns="http://www.w3.org/2000/svg">
<g opacity="0.3">
<path opacity="0.3" d="M13.9671 4.92501C13.4201 4.92448 12.8956 4.70696 12.5089 4.32019C12.1221 3.93341 11.9046 3.40899 11.9041 2.86201V0H2.691C1.9773 0 1.29283 0.283512 0.788163 0.788173C0.2835 1.29283 0 1.9773 0 2.691V18.909C0 19.2624 0.0695989 19.6123 0.204835 19.9388C0.340071 20.2653 0.538279 20.562 0.788163 20.8119C1.03805 21.0617 1.3347 21.26 1.66119 21.3952C1.98768 21.5304 2.33761 21.6 2.691 21.6H13.7511C14.4648 21.6 15.1492 21.3165 15.6539 20.8119C16.1585 20.3072 16.4421 19.6227 16.4421 18.909V4.92501H13.9671Z" fill="#00C650"/>
</g>
<path d="M16.4423 4.92501H13.9673C13.4203 4.92448 12.8959 4.70696 12.5091 4.32019C12.1223 3.93341 11.9048 3.40899 11.9043 2.862V0L16.4423 4.92501Z" fill="#00C650"/>
<path d="M18.3943 17.0596H5.89019C5.00322 17.0596 4.28418 17.7786 4.28418 18.6656V22.3936C4.28418 23.2805 5.00322 23.9996 5.89019 23.9996H18.3943C19.2812 23.9996 20.0003 23.2805 20.0003 22.3936V18.6656C20.0003 17.7786 19.2812 17.0596 18.3943 17.0596Z" fill="#00C650"/>
<path d="M8.42195 21.3379V22.0649H7.66895V21.3379H8.42195Z" fill="white"/>
<path d="M10.6543 19.0576V21.1086C10.6543 21.424 10.5687 21.6663 10.3973 21.8356C10.3019 21.9242 10.1895 21.9925 10.0669 22.0365C9.94442 22.0804 9.81427 22.0992 9.68431 22.0916C9.54198 22.0992 9.39957 22.0784 9.26533 22.0305C9.1311 21.9826 9.00772 21.9086 8.90232 21.8127C8.70899 21.6267 8.6123 21.36 8.6123 21.0127H9.3313C9.3313 21.2933 9.43765 21.4336 9.65032 21.4336C9.83432 21.4336 9.92733 21.3266 9.92733 21.1106V19.0566L10.6543 19.0576Z" fill="white"/>
<path d="M11.8627 21.0086V22.0637H11.1357V19.0566H12.3168C12.6738 19.0566 12.9457 19.1446 13.1327 19.3226C13.2274 19.4154 13.3014 19.5272 13.3498 19.6506C13.3983 19.774 13.4201 19.9062 13.4138 20.0386C13.4165 20.2134 13.3734 20.3858 13.2888 20.5387C13.2013 20.6881 13.0715 20.8081 12.9158 20.8836C12.7284 20.972 12.5228 21.0148 12.3158 21.0086H11.8627ZM12.6708 20.0386C12.6708 19.776 12.5247 19.6426 12.2327 19.6386H11.8627V20.4206H12.2327C12.5247 20.4246 12.6708 20.2977 12.6708 20.0397V20.0386Z" fill="white"/>
<path d="M16.1081 19.3095C16.3499 19.4919 16.5127 19.7599 16.5631 20.0585H15.7931C15.7429 19.9512 15.6613 19.8616 15.5591 19.8015C15.41 19.72 15.2385 19.6892 15.0704 19.7137C14.9023 19.7383 14.7467 19.8168 14.6271 19.9375C14.4808 20.1126 14.4065 20.3367 14.4191 20.5645C14.4191 20.8515 14.4921 21.0705 14.6381 21.2235C14.7201 21.3034 14.8179 21.3651 14.9252 21.4047C15.0325 21.4443 15.147 21.4609 15.2611 21.4535C15.4247 21.4565 15.5849 21.4059 15.7171 21.3095C15.8521 21.2084 15.9496 21.0652 15.9941 20.9025H15.0751V20.3795H16.6021V21.0985C16.5434 21.2774 16.4511 21.4433 16.3301 21.5875C16.1989 21.7429 16.0355 21.8678 15.8511 21.9535C15.643 22.0502 15.4156 22.0981 15.1861 22.0935C14.9071 22.1009 14.6311 22.0343 14.3861 21.9005C14.1622 21.7746 13.9798 21.5863 13.8611 21.3585C13.7392 21.1111 13.6758 20.8389 13.6758 20.563C13.6758 20.2872 13.7392 20.015 13.8611 19.7675C13.9794 19.5401 14.1611 19.3519 14.3841 19.2255C14.6254 19.0924 14.8976 19.0255 15.1731 19.0315C15.507 19.0179 15.8359 19.1157 16.1081 19.3095Z" fill="white"/>
<path d="M10.4298 14.6409H6.01676C5.58435 14.6404 5.1698 14.4684 4.86404 14.1626C4.55828 13.8569 4.38627 13.4423 4.38574 13.0099V8.59289C4.38627 8.16057 4.55833 7.74614 4.86411 7.44054C5.1699 7.13494 5.58444 6.96316 6.01676 6.96289H10.4338C10.8659 6.96342 11.2802 7.13531 11.5858 7.44088C11.8913 7.74645 12.0633 8.16075 12.0638 8.59289V13.0089C12.0638 13.2234 12.0215 13.4358 11.9394 13.6339C11.8572 13.832 11.7368 14.012 11.5851 14.1636C11.4333 14.3152 11.2532 14.4354 11.0549 14.5173C10.8567 14.5991 10.6442 14.6412 10.4298 14.6409ZM6.01676 7.68389C5.77566 7.68415 5.5445 7.77997 5.37393 7.95036C5.20336 8.12074 5.10727 8.35179 5.10674 8.59289V13.0089C5.10701 13.2502 5.20299 13.4815 5.37359 13.6521C5.54419 13.8227 5.77549 13.9186 6.01676 13.9189H10.4338C10.6749 13.9184 10.9059 13.8223 11.0763 13.6517C11.2467 13.4811 11.3425 13.25 11.3428 13.0089V8.59189C11.3425 8.35088 11.2467 8.11983 11.0763 7.94942C10.9058 7.779 10.6748 7.68315 10.4338 7.68289L6.01676 7.68389Z" fill="#00C650"/>
<path d="M11.7001 12.1703V13.0103C11.7001 13.3472 11.5663 13.6702 11.3282 13.9084C11.09 14.1465 10.7669 14.2803 10.4301 14.2803H6.0171C5.85023 14.2805 5.68499 14.2477 5.53079 14.184C5.37659 14.1202 5.23645 14.0267 5.11841 13.9087C5.00037 13.7908 4.90673 13.6507 4.84285 13.4966C4.77896 13.3424 4.74609 13.1772 4.74609 13.0103V11.6023C5.4541 11.4503 6.53109 11.4023 7.8381 11.9253L8.64811 11.1523L9.20012 12.5523C9.20012 12.5523 9.34812 12.0373 9.82612 12.1103C10.3041 12.1833 11.0781 12.4423 11.4091 12.2213C11.4969 12.1702 11.6001 12.1521 11.7001 12.1703Z" fill="#00C650"/>
<path d="M10.1531 9.49469C10.4243 9.49469 10.6441 9.27486 10.6441 9.00369C10.6441 8.73252 10.4243 8.5127 10.1531 8.5127C9.88193 8.5127 9.66211 8.73252 9.66211 9.00369C9.66211 9.27486 9.88193 9.49469 10.1531 9.49469Z" fill="#00C650"/>
</svg>
