<svg width="12" height="16" viewBox="0 0 12 16" fill="none" xmlns="http://www.w3.org/2000/svg">
<g clip-path="url(#clip0_1876_24333)">
<path d="M5.99938 0C2.96287 0 0.5 2.41646 0.5 5.39573C0.5 5.74199 0.536164 6.0809 0.599762 6.40881C0.689548 6.8713 0.840438 7.31299 1.04121 7.72532C1.03497 7.71431 1.03747 7.72042 1.04744 7.73878C1.04869 7.74122 1.04869 7.74122 1.04994 7.74367C1.05991 7.76325 1.07114 7.78282 1.08111 7.8024C1.12601 7.89294 1.13349 7.90518 1.08485 7.80974C1.40285 8.42762 3.18235 11.9306 3.18235 11.9306L4.92319 15.3454C5.36589 16.2141 6.63037 16.2141 7.07306 15.3454L8.81391 11.9306C8.81391 11.9306 10.6545 8.31139 10.9176 7.79873C10.8678 7.89784 10.879 7.87826 10.9276 7.78038C10.9314 7.77426 10.9339 7.76937 10.9363 7.76325C10.9426 7.75101 10.9463 7.74245 10.9488 7.73878C11.1546 7.32156 11.3067 6.87497 11.3977 6.40636C11.4613 6.07723 11.4975 5.73954 11.4975 5.39329C11.5 2.41646 9.03713 0 5.99938 0Z" fill="#EF6250"/>
<path d="M5.99955 8.98364C8.05742 8.98364 9.72565 7.34685 9.72565 5.32776C9.72565 3.30867 8.05742 1.67188 5.99955 1.67188C3.94167 1.67188 2.27344 3.30867 2.27344 5.32776C2.27344 7.34685 3.94167 8.98364 5.99955 8.98364Z" fill="white"/>
<path d="M4.22563 6.08006C4.18074 6.08006 4.13585 6.07517 4.0922 6.0666C4.04855 6.05926 4.00491 6.0458 3.96376 6.02867C3.92261 6.01154 3.8827 5.99197 3.84529 5.9675C3.80788 5.94303 3.77296 5.91489 3.74179 5.88307C3.70936 5.85249 3.68068 5.81823 3.65574 5.78152C3.63205 5.74604 3.6096 5.70689 3.59339 5.66651C3.57593 5.62491 3.56346 5.58331 3.55473 5.53926C3.546 5.49644 3.54102 5.45117 3.54102 5.40835C3.54102 5.36552 3.546 5.32025 3.55473 5.27743C3.56346 5.23461 3.57593 5.19178 3.59339 5.15141C3.61085 5.10981 3.63205 5.07188 3.65574 5.03517C3.68068 4.99847 3.70936 4.96421 3.74179 4.93362C3.77296 4.90181 3.80788 4.87367 3.84529 4.8492C3.8827 4.82595 3.92136 4.80393 3.96376 4.78802C4.00491 4.77089 4.04855 4.75866 4.0922 4.75009C4.18074 4.73174 4.27177 4.73174 4.36031 4.75009C4.4052 4.75866 4.4476 4.77089 4.49 4.78802C4.53115 4.80515 4.57106 4.82595 4.60722 4.8492C4.64463 4.87367 4.6808 4.90181 4.71197 4.93362C4.74315 4.96543 4.77183 4.99847 4.79677 5.03517C4.82171 5.07188 4.84291 5.10981 4.85912 5.15141C4.87658 5.19178 4.8903 5.23461 4.89778 5.27743C4.90651 5.32148 4.9115 5.36552 4.9115 5.40835C4.9115 5.45117 4.90651 5.49644 4.89778 5.53926C4.8903 5.58331 4.87658 5.62491 4.85912 5.66651C4.84166 5.70689 4.82171 5.74604 4.79677 5.78152C4.77183 5.81823 4.74315 5.85371 4.71072 5.88307C4.67955 5.91489 4.64463 5.94303 4.60722 5.9675C4.57106 5.99197 4.53115 6.01277 4.49 6.02867C4.4476 6.0458 4.4052 6.05926 4.36031 6.0666C4.31666 6.07517 4.27052 6.08006 4.22688 6.08006H4.22563Z" fill="#F9D2C0"/>
<path d="M6.00298 6.08006C5.95808 6.08006 5.91319 6.07517 5.86954 6.0666C5.8259 6.05926 5.78225 6.0458 5.7411 6.02867C5.69995 6.01154 5.66004 5.99197 5.62263 5.9675C5.58522 5.94303 5.55031 5.91489 5.51913 5.88307C5.48671 5.85249 5.45803 5.81823 5.43309 5.78152C5.40939 5.74604 5.38695 5.70689 5.37073 5.66651C5.35328 5.62491 5.34081 5.58331 5.33208 5.53926C5.32335 5.49644 5.31836 5.45117 5.31836 5.40835C5.31836 5.36552 5.32335 5.32025 5.33208 5.27743C5.34081 5.23461 5.35328 5.19178 5.37073 5.15141C5.38819 5.10981 5.40939 5.07188 5.43309 5.03517C5.45803 4.99847 5.48671 4.96421 5.51913 4.93362C5.55031 4.90181 5.58522 4.87367 5.62263 4.8492C5.66004 4.82595 5.6987 4.80393 5.7411 4.78802C5.78225 4.77089 5.8259 4.75866 5.86954 4.75009C5.95808 4.73174 6.04912 4.73174 6.13765 4.75009C6.18255 4.75866 6.22495 4.77089 6.26734 4.78802C6.3085 4.80515 6.3484 4.82595 6.38456 4.8492C6.42198 4.87367 6.45814 4.90181 6.48931 4.93362C6.52049 4.96543 6.54917 4.99847 6.57411 5.03517C6.59905 5.07188 6.62025 5.10981 6.63646 5.15141C6.65392 5.19178 6.66764 5.23461 6.67512 5.27743C6.68385 5.32148 6.68884 5.36552 6.68884 5.40835C6.68884 5.45117 6.68385 5.49644 6.67512 5.53926C6.66764 5.58331 6.65392 5.62491 6.63646 5.66651C6.61901 5.70689 6.59905 5.74604 6.57411 5.78152C6.54917 5.81823 6.52049 5.85371 6.48807 5.88307C6.45689 5.91489 6.42198 5.94303 6.38456 5.9675C6.3484 5.99197 6.3085 6.01277 6.26734 6.02867C6.22495 6.0458 6.18255 6.05926 6.13765 6.0666C6.09401 6.07517 6.04787 6.08006 6.00422 6.08006H6.00298Z" fill="#F9D2C0"/>
<path d="M7.78032 6.08006C7.73543 6.08006 7.69053 6.07517 7.64689 6.0666C7.60324 6.05926 7.5596 6.0458 7.51844 6.02867C7.47729 6.01154 7.43739 5.99197 7.39998 5.9675C7.36257 5.94303 7.32765 5.91489 7.29647 5.88307C7.26405 5.85249 7.23537 5.81823 7.21043 5.78152C7.18674 5.74604 7.16429 5.70689 7.14808 5.66651C7.13062 5.62491 7.11815 5.58331 7.10942 5.53926C7.10069 5.49644 7.0957 5.45117 7.0957 5.40835C7.0957 5.36552 7.10069 5.32025 7.10942 5.27743C7.11815 5.23461 7.13062 5.19178 7.14808 5.15141C7.16554 5.10981 7.18674 5.07188 7.21043 5.03517C7.23537 4.99847 7.26405 4.96421 7.29647 4.93362C7.32765 4.90181 7.36257 4.87367 7.39998 4.8492C7.43739 4.82595 7.47605 4.80393 7.51844 4.78802C7.5596 4.77089 7.60324 4.75866 7.64689 4.75009C7.73543 4.73174 7.82646 4.73174 7.915 4.75009C7.95989 4.75866 8.00229 4.77089 8.04469 4.78802C8.08584 4.80515 8.12574 4.82595 8.16191 4.8492C8.19932 4.87367 8.23548 4.90181 8.26666 4.93362C8.29783 4.96543 8.32652 4.99847 8.35146 5.03517C8.3764 5.07188 8.3976 5.10981 8.41381 5.15141C8.43127 5.19178 8.44498 5.23461 8.45247 5.27743C8.46119 5.32148 8.46618 5.36552 8.46618 5.40835C8.46618 5.45117 8.46119 5.49644 8.45247 5.53926C8.44498 5.58331 8.43127 5.62491 8.41381 5.66651C8.39635 5.70689 8.3764 5.74604 8.35146 5.78152C8.32652 5.81823 8.29783 5.85371 8.26541 5.88307C8.23424 5.91489 8.19932 5.94303 8.16191 5.9675C8.12574 5.99197 8.08584 6.01277 8.04469 6.02867C8.00229 6.0458 7.95989 6.05926 7.915 6.0666C7.87135 6.07517 7.82521 6.08006 7.78157 6.08006H7.78032Z" fill="#F9D2C0"/>
</g>
<defs>
<clipPath id="clip0_1876_24333">
<rect width="11" height="16" fill="white" transform="translate(0.5)"/>
</clipPath>
</defs>
</svg>
