<svg width="20" height="24" viewBox="0 0 20 24" fill="none" xmlns="http://www.w3.org/2000/svg">
<g opacity="0.3">
<path opacity="0.3" d="M13.9671 4.92495C13.4203 4.92416 12.8961 4.70652 12.5096 4.31978C12.123 3.93304 11.9056 3.40877 11.9051 2.86197V1.85819e-07H2.69205C2.33857 -0.000131166 1.98852 0.0693761 1.66191 0.204551C1.33531 0.339727 1.03853 0.537917 0.788545 0.78781C0.538555 1.0377 0.340247 1.3344 0.204948 1.66095C0.0696492 1.98749 1.50284e-05 2.3375 1.50528e-05 2.69096V18.9088C-0.00116969 19.263 0.0675917 19.614 0.20236 19.9416C0.337128 20.2692 0.535263 20.5669 0.785371 20.8178C1.03548 21.0686 1.33265 21.2676 1.65984 21.4034C1.98703 21.5391 2.33782 21.6089 2.69205 21.6088H13.7521C14.4658 21.6088 15.1503 21.3253 15.6549 20.8206C16.1596 20.316 16.4431 19.6315 16.4431 18.9178V4.92495H13.9671Z" fill="#3E55A1"/>
</g>
<path d="M16.4433 4.92495H13.9673C13.4205 4.92416 12.8963 4.70652 12.5097 4.31978C12.1232 3.93304 11.9058 3.40877 11.9053 2.86197V0L16.4433 4.92495Z" fill="#3E55A1"/>
<path d="M18.3942 17.0596H5.8902C5.00322 17.0596 4.28418 17.7786 4.28418 18.6655V22.3935C4.28418 23.2805 5.00322 23.9995 5.8902 23.9995H18.3942C19.2812 23.9995 20.0003 23.2805 20.0003 22.3935V18.6655C20.0003 17.7786 19.2812 17.0596 18.3942 17.0596Z" fill="#3E55A1"/>
<path d="M7.90633 21.3379V22.0649H7.15332V21.3379H7.90633Z" fill="white"/>
<path d="M9.01216 21.0086V22.0636H8.28516V19.0566H9.46317C9.82017 19.0566 10.0922 19.1446 10.2792 19.3226C10.3738 19.4154 10.4478 19.5272 10.4963 19.6506C10.5447 19.774 10.5665 19.9062 10.5602 20.0386C10.5629 20.2134 10.5198 20.3858 10.4352 20.5386C10.3477 20.688 10.2179 20.8081 10.0622 20.8836C9.87479 20.9719 9.66922 21.0148 9.46217 21.0086H9.01216ZM9.82015 20.0386C9.82015 19.776 9.67416 19.6426 9.38216 19.6386H9.01216V20.4206H9.38216C9.67416 20.4246 9.82015 20.2976 9.82015 20.0396V20.0386Z" fill="white"/>
<path d="M13.588 22.0646H12.861L11.645 20.2186V22.0646H10.917V19.0576H11.645L12.861 20.9206V19.0576H13.588V22.0646Z" fill="white"/>
<path d="M16.4323 19.3087C16.6748 19.4907 16.838 19.7588 16.8883 20.0577H16.1183C16.0681 19.9504 15.9865 19.8608 15.8843 19.8007C15.7353 19.7192 15.5637 19.6884 15.3956 19.7129C15.2275 19.7374 15.0719 19.816 14.9523 19.9367C14.806 20.1118 14.7317 20.3359 14.7443 20.5637C14.7443 20.8507 14.8173 21.0697 14.9633 21.2227C15.0453 21.3025 15.1431 21.3642 15.2504 21.4038C15.3577 21.4434 15.4722 21.4601 15.5863 21.4527C15.7494 21.456 15.9091 21.4062 16.0413 21.3107C16.1763 21.2096 16.2738 21.0663 16.3183 20.9037H15.3993V20.3807H16.9263V21.0997C16.8676 21.2785 16.7753 21.4445 16.6543 21.5887C16.5231 21.744 16.3597 21.8689 16.1753 21.9547C15.9672 22.0514 15.7398 22.0992 15.5103 22.0947C15.2313 22.102 14.9553 22.0354 14.7103 21.9017C14.4865 21.7758 14.3041 21.5874 14.1853 21.3597C14.0634 21.1122 14 20.8401 14 20.5642C14 20.2883 14.0634 20.0161 14.1853 19.7687C14.3036 19.5413 14.4853 19.353 14.7083 19.2267C14.9496 19.0934 15.2218 19.0265 15.4973 19.0327C15.831 19.018 16.1601 19.1152 16.4323 19.3087Z" fill="white"/>
<path d="M5.46973 6.67188H4.09473V8.04686H5.46973V6.67188Z" fill="#3E55A1"/>
<path d="M6.84669 8.04688H5.47168V9.42186H6.84669V8.04688Z" fill="#3E55A1"/>
<path d="M8.22169 6.67188H6.84668V8.04686H8.22169V6.67188Z" fill="#3E55A1"/>
<path d="M9.59669 8.04688H8.22168V9.42186H9.59669V8.04688Z" fill="#3E55A1"/>
<path d="M10.9717 6.67188H9.59668V8.04686H10.9717V6.67188Z" fill="#3E55A1"/>
<path d="M12.3486 8.04688H10.9736V9.42186H12.3486V8.04688Z" fill="#3E55A1"/>
<path d="M5.46973 9.41992H4.09473V10.7949H5.46973V9.41992Z" fill="#3E55A1"/>
<path d="M6.84669 10.7949H5.47168V12.1699H6.84669V10.7949Z" fill="#3E55A1"/>
<path d="M8.22169 9.41992H6.84668V10.7949H8.22169V9.41992Z" fill="#3E55A1"/>
<path d="M9.59669 10.7949H8.22168V12.1699H9.59669V10.7949Z" fill="#3E55A1"/>
<path d="M10.9717 9.41992H9.59668V10.7949H10.9717V9.41992Z" fill="#3E55A1"/>
<path d="M12.3486 10.7949H10.9736V12.1699H12.3486V10.7949Z" fill="#3E55A1"/>
<path d="M5.46973 12.1807H4.09473V13.5557H5.46973V12.1807Z" fill="#3E55A1"/>
<path d="M6.84669 13.5557H5.47168V14.9307H6.84669V13.5557Z" fill="#3E55A1"/>
<path d="M8.22169 12.1807H6.84668V13.5557H8.22169V12.1807Z" fill="#3E55A1"/>
<path d="M9.59669 13.5557H8.22168V14.9307H9.59669V13.5557Z" fill="#3E55A1"/>
<path d="M10.9717 12.1807H9.59668V13.5557H10.9717V12.1807Z" fill="#3E55A1"/>
<path d="M12.3486 13.5557H10.9736V14.9307H12.3486V13.5557Z" fill="#3E55A1"/>
</svg>
