<svg width="20" height="24" viewBox="0 0 20 24" fill="none" xmlns="http://www.w3.org/2000/svg">
<g opacity="0.3">
<path opacity="0.3" d="M13.9671 4.92501C13.4201 4.92448 12.8956 4.70696 12.5089 4.32019C12.1221 3.93341 11.9046 3.40899 11.9041 2.86201V1.85979e-07H2.691C2.33758 -0.000131223 1.98759 0.0693769 1.66104 0.204566C1.33449 0.339755 1.0378 0.537971 0.787894 0.78788C0.537985 1.03779 0.339756 1.33449 0.204567 1.66104C0.0693771 1.98759 -0.000131223 2.33757 1.8598e-07 2.691V18.909C1.8598e-07 19.2624 0.0695991 19.6123 0.204835 19.9388C0.340071 20.2653 0.538304 20.562 0.788187 20.8119C1.03807 21.0617 1.33473 21.26 1.66121 21.3952C1.9877 21.5304 2.33761 21.6 2.691 21.6H13.7511C14.1045 21.6 14.4544 21.5304 14.7809 21.3952C15.1074 21.26 15.404 21.0617 15.6539 20.8119C15.9038 20.562 16.102 20.2653 16.2372 19.9388C16.3725 19.6123 16.4421 19.2624 16.4421 18.909V4.92501H13.9671Z" fill="#FF9908"/>
</g>
<path d="M16.4423 4.92501H13.9673C13.4203 4.92448 12.8959 4.70696 12.5091 4.32019C12.1223 3.93341 11.9048 3.40899 11.9043 2.862V0L16.4423 4.92501Z" fill="#FF9908"/>
<path d="M18.3943 17.0596H5.89019C5.00322 17.0596 4.28418 17.7786 4.28418 18.6656V22.3936C4.28418 23.2805 5.00322 23.9996 5.89019 23.9996H18.3943C19.2812 23.9996 20.0003 23.2805 20.0003 22.3936V18.6656C20.0003 17.7786 19.2812 17.0596 18.3943 17.0596Z" fill="#FF9908"/>
<path d="M9.04595 21.3379V22.0649H8.29395V21.3379H9.04595Z" fill="white"/>
<path d="M11.7633 19.3094C12.0057 19.4912 12.1687 19.7595 12.2183 20.0584H11.4483C11.3981 19.9513 11.317 19.8618 11.2153 19.8014C11.1007 19.7335 10.9695 19.6988 10.8363 19.7014C10.7328 19.6971 10.6295 19.7157 10.5339 19.7558C10.4384 19.7959 10.3528 19.8565 10.2833 19.9334C10.137 20.1085 10.0626 20.3326 10.0753 20.5604C10.0753 20.8474 10.1483 21.0664 10.2943 21.2194C10.3762 21.2993 10.474 21.361 10.5814 21.4007C10.6887 21.4403 10.8031 21.4569 10.9173 21.4494C11.0833 21.4541 11.2459 21.4023 11.3787 21.3026C11.5115 21.2029 11.6065 21.0611 11.6483 20.9004H10.7303V20.3774H12.2573V21.0964C12.1986 21.2755 12.1059 21.4415 11.9843 21.5854C11.8536 21.7408 11.6904 21.8658 11.5063 21.9514C11.2979 22.0482 11.0701 22.0961 10.8403 22.0914C10.5629 22.0979 10.2888 22.0314 10.0453 21.8984C9.82142 21.7725 9.63901 21.5842 9.52029 21.3564C9.39837 21.1089 9.33496 20.8368 9.33496 20.5609C9.33496 20.285 9.39837 20.0129 9.52029 19.7654C9.63829 19.5378 9.82002 19.3494 10.0433 19.2234C10.2845 19.0901 10.5568 19.0232 10.8323 19.0294C11.1651 19.0168 11.4926 19.1153 11.7633 19.3094Z" fill="white"/>
<path d="M13.392 19.0576V22.0646H12.665V19.0576H13.392Z" fill="white"/>
<path d="M15.8556 19.0576V19.6356H14.6215V20.2946H15.5745V20.8476H14.6215V22.0646H13.8945V19.0576H15.8556Z" fill="white"/>
<path d="M7.76257 15.4439C6.94852 15.4447 6.15254 15.204 5.4753 14.7523C4.79806 14.3006 4.27 13.6582 3.95793 12.9064C3.64586 12.1546 3.56381 11.327 3.72214 10.5285C3.88047 9.73003 4.27208 8.99643 4.84742 8.42054C5.42275 7.84464 6.15597 7.45233 6.95431 7.29323C7.75265 7.13413 8.58024 7.21539 9.3324 7.52673C10.0846 7.83806 10.7275 8.36548 11.1798 9.04228C11.6322 9.71908 11.8736 10.5148 11.8736 11.3289C11.8723 12.4191 11.4389 13.4644 10.6683 14.2357C9.89773 15.0071 8.85284 15.4415 7.76257 15.4439ZM7.76257 7.93487C7.09129 7.93487 6.4351 8.13393 5.87696 8.50687C5.31882 8.87981 4.88379 9.40987 4.62691 10.03C4.37002 10.6502 4.30281 11.3326 4.43377 11.991C4.56472 12.6494 4.88799 13.2541 5.36265 13.7288C5.83731 14.2035 6.44205 14.5267 7.10043 14.6577C7.7588 14.7886 8.44122 14.7214 9.0614 14.4645C9.68157 14.2076 10.2117 13.7726 10.5846 13.2145C10.9575 12.6563 11.1566 12.0001 11.1566 11.3289C11.155 10.4292 10.7969 9.56685 10.1607 8.9307C9.52459 8.29454 8.66223 7.93646 7.76257 7.93487Z" fill="#FF9908"/>
<path d="M7.76271 13.6338C7.29309 13.634 6.8307 13.5184 6.41644 13.2972C6.00217 13.0761 5.64881 12.7561 5.3877 12.3658L5.9877 11.9658C6.18285 12.2579 6.44703 12.4973 6.75682 12.6629C7.06661 12.8285 7.41244 12.9151 7.76371 12.9151C8.11497 12.9151 8.46083 12.8285 8.77062 12.6629C9.08041 12.4973 9.34456 12.2579 9.53972 11.9658L10.1397 12.3658C9.87861 12.7566 9.52501 13.0769 9.11032 13.2981C8.69563 13.5193 8.23271 13.6346 7.76271 13.6338Z" fill="#FF9908"/>
<path d="M6.62256 10.6973C6.88711 10.6973 7.10157 10.4828 7.10157 10.2183C7.10157 9.95372 6.88711 9.73926 6.62256 9.73926C6.35802 9.73926 6.14355 9.95372 6.14355 10.2183C6.14355 10.4828 6.35802 10.6973 6.62256 10.6973Z" fill="#FF9908"/>
<path d="M8.90381 10.6973C9.16836 10.6973 9.38282 10.4828 9.38282 10.2183C9.38282 9.95372 9.16836 9.73926 8.90381 9.73926C8.63927 9.73926 8.4248 9.95372 8.4248 10.2183C8.4248 10.4828 8.63927 10.6973 8.90381 10.6973Z" fill="#FF9908"/>
</svg>
