<svg width="22" height="12" viewBox="0 0 22 12" fill="none" xmlns="http://www.w3.org/2000/svg">
<path fill-rule="evenodd" clip-rule="evenodd" d="M21.3438 6C21.3438 6.22512 21.252 6.44052 21.0898 6.59655L15.7105 11.769C15.381 12.0858 14.8571 12.0755 14.5403 11.746C14.2235 11.4166 14.2338 10.8927 14.5632 10.5759L18.4615 6.82759L1.48249 6.82759C1.02543 6.82759 0.654907 6.45706 0.654907 6C0.654907 5.54294 1.02543 5.17241 1.48249 5.17241L18.4615 5.17241L14.5632 1.42414C14.2338 1.10734 14.2235 0.583446 14.5403 0.25398C14.8571 -0.0754866 15.381 -0.085759 15.7105 0.231035L21.0898 5.40345C21.252 5.55948 21.3438 5.77488 21.3438 6Z" fill="#464C53"/>
</svg>
