<svg width="16" height="16" viewBox="0 0 16 16" fill="none" xmlns="http://www.w3.org/2000/svg">
<path d="M4 12H12V10.8571H4V12ZM8 9.27802L10.8604 6.41758L10.044 5.6011L8.57143 7.09055V3.47253H7.42857V7.09055L5.95604 5.6011L5.13956 6.41758L8 9.27802ZM8.00747 16C6.90696 16 5.87048 15.7918 4.89802 15.3754C3.92557 14.959 3.07443 14.386 2.34462 13.6565C1.6148 12.927 1.04154 12.0765 0.624835 11.1051C0.208278 10.1338 0 9.0959 0 7.99143C0 6.88696 0.208205 5.85216 0.624615 4.88703C1.04103 3.9219 1.61399 3.07443 2.34352 2.34462C3.07304 1.6148 3.92352 1.04154 4.89495 0.624835C5.86623 0.208278 6.9041 0 8.00857 0C9.11304 0 10.1478 0.208205 11.113 0.624615C12.0781 1.04103 12.9256 1.61399 13.6554 2.34352C14.3852 3.07304 14.9585 3.92176 15.3752 4.88967C15.7917 5.85773 16 6.89201 16 7.99253C16 9.09304 15.7918 10.1295 15.3754 11.102C14.959 12.0744 14.386 12.9256 13.6565 13.6554C12.927 14.3852 12.0782 14.9585 11.1103 15.3752C10.1423 15.7917 9.10799 16 8.00747 16ZM8 14.8571C9.90476 14.8571 11.5238 14.1905 12.8571 12.8571C14.1905 11.5238 14.8571 9.90476 14.8571 8C14.8571 6.09524 14.1905 4.47619 12.8571 3.14286C11.5238 1.80952 9.90476 1.14286 8 1.14286C6.09524 1.14286 4.47619 1.80952 3.14286 3.14286C1.80952 4.47619 1.14286 6.09524 1.14286 8C1.14286 9.90476 1.80952 11.5238 3.14286 12.8571C4.47619 14.1905 6.09524 14.8571 8 14.8571Z" fill="#03163A"/>
</svg>
