<svg width="20" height="24" viewBox="0 0 20 24" fill="none" xmlns="http://www.w3.org/2000/svg">
<g opacity="0.3">
<path opacity="0.3" d="M13.9671 4.92501C13.4202 4.92448 12.896 4.70709 12.5092 4.32054C12.1225 3.93398 11.9049 3.40981 11.9041 2.863V0H2.691C1.9773 0 1.29285 0.283515 0.788187 0.788176C0.283524 1.29284 0 1.9773 0 2.691V18.913C0 19.6267 0.283524 20.3112 0.788187 20.8159C1.29285 21.3205 1.9773 21.604 2.691 21.604H13.7511C14.4648 21.604 15.1492 21.3205 15.6539 20.8159C16.1586 20.3112 16.4421 19.6267 16.4421 18.913V4.92501H13.9671Z" fill="#FF3E4C"/>
</g>
<path d="M16.4423 4.92501H13.9673C13.4205 4.92448 12.8962 4.70709 12.5095 4.32054C12.1227 3.93398 11.9051 3.40981 11.9043 2.863V0L16.4423 4.92501Z" fill="#FF3E4C"/>
<path d="M13.0596 15.0835H2.73555C2.63957 15.0785 2.54916 15.0369 2.48298 14.9672C2.4168 14.8975 2.37988 14.8051 2.37988 14.709C2.37988 14.6129 2.4168 14.5204 2.48298 14.4508C2.54916 14.3811 2.63957 14.3394 2.73555 14.3345H13.0596C13.1104 14.3319 13.1612 14.3396 13.2089 14.3572C13.2567 14.3749 13.3003 14.402 13.3372 14.4371C13.3741 14.4721 13.4034 14.5143 13.4235 14.561C13.4436 14.6078 13.454 14.6581 13.454 14.709C13.454 14.7599 13.4436 14.8102 13.4235 14.857C13.4034 14.9037 13.3741 14.9459 13.3372 14.9809C13.3003 15.0159 13.2567 15.0431 13.2089 15.0607C13.1612 15.0784 13.1104 15.0861 13.0596 15.0835Z" fill="#FF3E4C"/>
<path d="M13.0596 10.8599H2.73555C2.63957 10.8549 2.54916 10.8133 2.48298 10.7436C2.4168 10.6739 2.37988 10.5815 2.37988 10.4854C2.37988 10.3892 2.4168 10.2968 2.48298 10.2271C2.54916 10.1574 2.63957 10.1158 2.73555 10.1109H13.0596C13.1104 10.1082 13.1612 10.116 13.2089 10.1336C13.2567 10.1512 13.3003 10.1784 13.3372 10.2134C13.3741 10.2485 13.4034 10.2906 13.4235 10.3374C13.4436 10.3841 13.454 10.4345 13.454 10.4854C13.454 10.5362 13.4436 10.5866 13.4235 10.6333C13.4034 10.6801 13.3741 10.7222 13.3372 10.7573C13.3003 10.7923 13.2567 10.8195 13.2089 10.8371C13.1612 10.8547 13.1104 10.8625 13.0596 10.8599Z" fill="#FF3E4C"/>
<path d="M13.0596 12.9722H2.73555C2.63957 12.9672 2.54916 12.9256 2.48298 12.8559C2.4168 12.7862 2.37988 12.6938 2.37988 12.5977C2.37988 12.5016 2.4168 12.4091 2.48298 12.3394C2.54916 12.2697 2.63957 12.2281 2.73555 12.2232H13.0596C13.1104 12.2205 13.1612 12.2283 13.2089 12.2459C13.2567 12.2635 13.3003 12.2907 13.3372 12.3257C13.3741 12.3608 13.4034 12.4029 13.4235 12.4497C13.4436 12.4964 13.454 12.5468 13.454 12.5977C13.454 12.6485 13.4436 12.6989 13.4235 12.7456C13.4034 12.7924 13.3741 12.8345 13.3372 12.8696C13.3003 12.9046 13.2567 12.9318 13.2089 12.9494C13.1612 12.967 13.1104 12.9748 13.0596 12.9722Z" fill="#FF3E4C"/>
<path d="M8.98755 8.74802H2.73555C2.63957 8.74306 2.54916 8.70144 2.48298 8.63175C2.4168 8.56207 2.37988 8.46963 2.37988 8.37352C2.37988 8.27742 2.4168 8.18498 2.48298 8.11529C2.54916 8.0456 2.63957 8.00398 2.73555 7.99902H8.98755C9.08353 8.00398 9.17396 8.0456 9.24014 8.11529C9.30632 8.18498 9.34322 8.27742 9.34322 8.37352C9.34322 8.46963 9.30632 8.56207 9.24014 8.63175C9.17396 8.70144 9.08353 8.74306 8.98755 8.74802Z" fill="#FF3E4C"/>
<path d="M8.98755 6.63572H2.73555C2.63957 6.63076 2.54916 6.58914 2.48298 6.51945C2.4168 6.44976 2.37988 6.35732 2.37988 6.26122C2.37988 6.16511 2.4168 6.07268 2.48298 6.00299C2.54916 5.9333 2.63957 5.89168 2.73555 5.88672H8.98755C9.08353 5.89168 9.17396 5.9333 9.24014 6.00299C9.30632 6.07268 9.34322 6.16511 9.34322 6.26122C9.34322 6.35732 9.30632 6.44976 9.24014 6.51945C9.17396 6.58914 9.08353 6.63076 8.98755 6.63572Z" fill="#FF3E4C"/>
<path d="M18.3943 17.0605H5.89019C5.00322 17.0605 4.28418 17.7796 4.28418 18.6665V22.3946C4.28418 23.2815 5.00322 24.0006 5.89019 24.0006H18.3943C19.2812 24.0006 20.0003 23.2815 20.0003 22.3946V18.6665C20.0003 17.7796 19.2812 17.0605 18.3943 17.0605Z" fill="#FF3E4C"/>
<path d="M8.3868 21.3379V22.0649H7.63379V21.3379H8.3868Z" fill="white"/>
<path d="M9.49265 21.0096V22.0646H8.76465V19.0576H9.94266C10.3007 19.0576 10.573 19.1463 10.7597 19.3236C10.8544 19.4166 10.9284 19.5285 10.9769 19.6521C11.0253 19.7756 11.047 19.9081 11.0407 20.0406C11.0439 20.2155 11.0004 20.3882 10.9147 20.5406C10.8282 20.6904 10.6985 20.8106 10.5427 20.8856C10.3555 20.9745 10.1498 21.0174 9.94266 21.0106L9.49265 21.0096ZM10.3007 20.0406C10.3007 19.774 10.1547 19.6406 9.86265 19.6406H9.49265V20.4236H9.86265C10.1547 20.4263 10.3007 20.2986 10.3007 20.0406Z" fill="white"/>
<path d="M13.9135 21.3401C13.7879 21.5676 13.5984 21.7532 13.3685 21.8741C13.1104 22.0064 12.8234 22.0721 12.5335 22.0651H11.3975V19.0581H12.5335C12.8239 19.0511 13.1116 19.1153 13.3715 19.2451C13.6002 19.3639 13.7888 19.5476 13.9135 19.7731C14.0377 20.0156 14.1025 20.2842 14.1025 20.5566C14.1025 20.8291 14.0377 21.0977 13.9135 21.3401ZM13.1305 21.1891C13.2828 21.0132 13.3666 20.7883 13.3666 20.5556C13.3666 20.323 13.2828 20.0981 13.1305 19.9221C12.9486 19.7625 12.711 19.6812 12.4695 19.6961H12.1245V21.4141H12.4745C12.7141 21.4277 12.9496 21.3469 13.1305 21.1891Z" fill="white"/>
<path d="M16.4747 19.0576V19.6366H15.2417V20.2956H16.1947V20.8486H15.2417V22.0646H14.5146V19.0576H16.4747Z" fill="white"/>
<path d="M12.8758 5.88672H11.1078C10.7996 5.88672 10.5498 6.13655 10.5498 6.44472V8.21272C10.5498 8.5209 10.7996 8.77072 11.1078 8.77072H12.8758C13.184 8.77072 13.4338 8.5209 13.4338 8.21272V6.44472C13.4338 6.13655 13.184 5.88672 12.8758 5.88672Z" fill="#FF3E4C"/>
</svg>
