<svg width="21" height="20" viewBox="0 0 21 20" fill="none" xmlns="http://www.w3.org/2000/svg">
<path d="M9.58154 1.99609C13.4936 1.99609 16.6655 5.16708 16.6655 9.0791C16.6655 10.794 16.0556 12.3663 15.0415 13.5918L17.8052 16.3564C18.0654 16.6168 18.0654 17.0385 17.8052 17.2988C17.5449 17.5591 17.1232 17.559 16.8628 17.2988L14.0981 14.5352C12.8721 15.5511 11.2982 16.1621 9.58154 16.1621C5.66975 16.1618 2.49854 12.991 2.49854 9.0791C2.49854 5.16725 5.66975 1.99636 9.58154 1.99609ZM9.58154 3.3291C6.40613 3.32937 3.83154 5.90363 3.83154 9.0791C3.83154 12.2546 6.40613 14.8288 9.58154 14.8291C11.0979 14.8291 12.4761 14.2404 13.5034 13.2812C13.5341 13.222 13.5719 13.1649 13.6216 13.1152C13.6716 13.0652 13.7289 13.0269 13.7886 12.9961C14.7452 11.9692 15.3315 10.5932 15.3315 9.0791C15.3315 5.90346 12.7572 3.3291 9.58154 3.3291ZM9.58545 5.91211C9.95353 5.91211 10.2523 6.21008 10.2524 6.57812V8.41211H12.0845C12.4526 8.41211 12.7513 8.71008 12.7515 9.07812C12.7515 9.44631 12.4527 9.74512 12.0845 9.74512H10.2524V11.5781C10.2524 11.9463 9.95364 12.2451 9.58545 12.2451C9.21748 12.2449 8.91943 11.9462 8.91943 11.5781V9.74512H7.08447C6.71636 9.74503 6.41748 9.44626 6.41748 9.07812C6.41766 8.71014 6.71647 8.4122 7.08447 8.41211H8.91943V6.57812C8.91961 6.21025 9.21759 5.91237 9.58545 5.91211Z" fill="white"/>
</svg>
