<svg width="20" height="20" viewBox="0 0 20 20" fill="none" xmlns="http://www.w3.org/2000/svg">
<path d="M17.6655 12.667C18.0337 12.667 18.3325 12.9658 18.3325 13.334V16C18.3325 16.3682 18.0337 16.667 17.6655 16.667H2.3335C2.15668 16.667 1.98684 16.5967 1.86182 16.4717C1.73679 16.3466 1.66646 16.1768 1.6665 16L1.66748 13.334C1.66757 12.966 1.96553 12.6672 2.3335 12.667C2.70169 12.6671 3.00058 12.9658 3.00049 13.334L2.99951 15.334H16.9995V13.334C16.9995 12.9659 17.2975 12.6672 17.6655 12.667ZM9.99951 2.5C10.3676 2.50018 10.6655 2.79891 10.6655 3.16699V11.2617L13.6851 8.12109C13.9401 7.85581 14.362 7.84771 14.6274 8.10254C14.8928 8.35772 14.9011 8.77952 14.646 9.04492L10.48 13.3789C10.3544 13.5095 10.1807 13.5829 9.99951 13.583C9.8183 13.583 9.64471 13.5094 9.51904 13.3789L5.35205 9.04492C5.09706 8.77951 5.10527 8.35767 5.37061 8.10254C5.63598 7.84758 6.05784 7.85589 6.31299 8.12109L9.33252 11.2617V3.16699C9.33252 2.7988 9.63132 2.5 9.99951 2.5Z" fill="#33363D"/>
</svg>
