<svg width="20" height="24" viewBox="0 0 20 24" fill="none" xmlns="http://www.w3.org/2000/svg">
<g opacity="0.3">
<path opacity="0.3" d="M13.9672 4.92502C13.4204 4.92449 12.8961 4.7071 12.5094 4.32055C12.1226 3.93399 11.905 3.40982 11.9042 2.86301V0H2.69103C1.97733 0 1.29284 0.283515 0.788172 0.788177C0.283503 1.29284 0 1.97731 0 2.69101V18.9131C0 19.6268 0.283503 20.3112 0.788172 20.8159C1.29284 21.3206 1.97733 21.6041 2.69103 21.6041H13.7512C14.4649 21.6041 15.1494 21.3206 15.6541 20.8159C16.1587 20.3112 16.4423 19.6268 16.4423 18.9131V4.92502H13.9672Z" fill="#0072FF"/>
</g>
<path d="M16.4424 4.92502H13.9673C13.4205 4.92449 12.8962 4.7071 12.5095 4.32055C12.1227 3.93399 11.9051 3.40982 11.9043 2.86301V0L16.4424 4.92502Z" fill="#0072FF"/>
<path d="M13.0597 8.37255H2.73553C2.63955 8.36759 2.54914 8.32597 2.48296 8.25628C2.41678 8.18659 2.37988 8.09415 2.37988 7.99805C2.37988 7.90194 2.41678 7.8095 2.48296 7.73982C2.54914 7.67013 2.63955 7.62851 2.73553 7.62355H13.0597C13.1105 7.62092 13.1613 7.62866 13.209 7.64629C13.2568 7.66393 13.3004 7.69109 13.3373 7.72612C13.3742 7.76116 13.4036 7.80333 13.4236 7.85008C13.4437 7.89683 13.4541 7.94717 13.4541 7.99805C13.4541 8.04892 13.4437 8.09927 13.4236 8.14602C13.4036 8.19276 13.3742 8.23494 13.3373 8.26997C13.3004 8.30501 13.2568 8.33217 13.209 8.3498C13.1613 8.36744 13.1105 8.37518 13.0597 8.37255Z" fill="#0072FF"/>
<path d="M13.0597 10.6099H2.73553C2.63955 10.6049 2.54914 10.5633 2.48296 10.4936C2.41678 10.4239 2.37988 10.3315 2.37988 10.2354C2.37988 10.1392 2.41678 10.0468 2.48296 9.97712C2.54914 9.90743 2.63955 9.86581 2.73553 9.86085H13.0597C13.1105 9.85823 13.1613 9.86596 13.209 9.8836C13.2568 9.90123 13.3004 9.92839 13.3373 9.96343C13.3742 9.99846 13.4036 10.0406 13.4236 10.0874C13.4437 10.1341 13.4541 10.1845 13.4541 10.2354C13.4541 10.2862 13.4437 10.3366 13.4236 10.3833C13.4036 10.4301 13.3742 10.4722 13.3373 10.5073C13.3004 10.5423 13.2568 10.5695 13.209 10.5871C13.1613 10.6047 13.1105 10.6125 13.0597 10.6099Z" fill="#0072FF"/>
<path d="M13.0597 12.8472H2.73553C2.63955 12.8422 2.54914 12.8006 2.48296 12.7309C2.41678 12.6612 2.37988 12.5688 2.37988 12.4727C2.37988 12.3766 2.41678 12.2841 2.48296 12.2144C2.54914 12.1447 2.63955 12.1031 2.73553 12.0982H13.0597C13.1105 12.0955 13.1613 12.1033 13.209 12.1209C13.2568 12.1385 13.3004 12.1657 13.3373 12.2007C13.3742 12.2358 13.4036 12.2779 13.4236 12.3247C13.4437 12.3714 13.4541 12.4218 13.4541 12.4727C13.4541 12.5235 13.4437 12.5739 13.4236 12.6206C13.4036 12.6674 13.3742 12.7095 13.3373 12.7446C13.3004 12.7796 13.2568 12.8068 13.209 12.8244C13.1613 12.842 13.1105 12.8498 13.0597 12.8472Z" fill="#0072FF"/>
<path d="M8.98763 15.0825H2.73553C2.63955 15.0775 2.54914 15.0359 2.48296 14.9662C2.41678 14.8965 2.37988 14.8041 2.37988 14.708C2.37988 14.6119 2.41678 14.5195 2.48296 14.4498C2.54914 14.3801 2.63955 14.3385 2.73553 14.3335H8.98763C9.03844 14.3309 9.08925 14.3386 9.13697 14.3563C9.18469 14.3739 9.22833 14.4011 9.26522 14.4361C9.30211 14.4711 9.3315 14.5133 9.35157 14.56C9.37165 14.6068 9.38199 14.6571 9.38199 14.708C9.38199 14.7589 9.37165 14.8092 9.35157 14.856C9.3315 14.9027 9.30211 14.9449 9.26522 14.9799C9.22833 15.015 9.18469 15.0421 9.13697 15.0598C9.08925 15.0774 9.03844 15.0851 8.98763 15.0825Z" fill="#0072FF"/>
<path d="M18.3944 17.0605H5.89021C5.00323 17.0605 4.28418 17.7796 4.28418 18.6666V22.3946C4.28418 23.2815 5.00323 24.0006 5.89021 24.0006H18.3944C19.2814 24.0006 20.0004 23.2815 20.0004 22.3946V18.6666C20.0004 17.7796 19.2814 17.0605 18.3944 17.0605Z" fill="#0072FF"/>
<path d="M6.11727 21.3379V22.0649H5.36426V21.3379H6.11727Z" fill="white"/>
<path d="M9.01701 21.3402C8.89116 21.5674 8.70176 21.753 8.472 21.8742C8.21359 22.0065 7.92621 22.0721 7.63598 22.0652H6.50098V19.0582H7.63598C7.92642 19.0509 8.21422 19.1151 8.47401 19.2452C8.70305 19.3639 8.89194 19.5476 9.01701 19.7732C9.14127 20.0157 9.20607 20.2842 9.20607 20.5567C9.20607 20.8291 9.14127 21.0977 9.01701 21.3402ZM8.23399 21.1892C8.38626 21.0133 8.47008 20.7884 8.47008 20.5557C8.47008 20.323 8.38626 20.0981 8.23399 19.9222C8.05216 19.7625 7.81453 19.6812 7.57299 19.6962H7.22799V21.4142H7.57299C7.81265 21.4277 8.04811 21.347 8.22901 21.1892H8.23399Z" fill="white"/>
<path d="M11.8174 19.2088C12.0464 19.3384 12.2356 19.5283 12.3644 19.7578C12.4963 20.0017 12.5654 20.2745 12.5654 20.5518C12.5654 20.829 12.4963 21.1019 12.3644 21.3458C12.2349 21.5759 12.0451 21.7664 11.8154 21.8968C11.5804 22.0266 11.3163 22.0947 11.0479 22.0947C10.7794 22.0947 10.5153 22.0266 10.2804 21.8968C10.0507 21.7664 9.86088 21.5759 9.73135 21.3458C9.59875 21.1021 9.5293 20.8292 9.5293 20.5518C9.5293 20.2744 9.59875 20.0014 9.73135 19.7578C9.86149 19.5286 10.0512 19.3389 10.2804 19.2088C10.516 19.0789 10.7808 19.0107 11.0499 19.0107C11.319 19.0107 11.5837 19.0789 11.8194 19.2088H11.8174ZM10.4784 19.9188C10.3414 20.1006 10.2674 20.3221 10.2674 20.5498C10.2674 20.7774 10.3414 20.9989 10.4784 21.1808C10.6291 21.3301 10.8327 21.4139 11.0449 21.4139C11.257 21.4139 11.4606 21.3301 11.6114 21.1808C11.7489 20.9997 11.8233 20.7786 11.8233 20.5513C11.8233 20.3239 11.7489 20.1029 11.6114 19.9218C11.4601 19.7728 11.2562 19.6893 11.0439 19.6893C10.8315 19.6893 10.6277 19.7728 10.4764 19.9218L10.4784 19.9188Z" fill="white"/>
<path d="M15.2939 19.3303C15.5472 19.537 15.7196 19.8262 15.7809 20.1473H15.0109C14.9585 20.0141 14.8672 19.8998 14.7489 19.8193C14.6245 19.7382 14.4783 19.6967 14.3299 19.7003C14.2319 19.6971 14.1346 19.7165 14.0455 19.7571C13.9563 19.7977 13.8777 19.8584 13.8159 19.9343C13.6883 20.1176 13.6199 20.3355 13.6199 20.5588C13.6199 20.7821 13.6883 21.0001 13.8159 21.1833C13.8782 21.2586 13.9569 21.3185 14.046 21.3585C14.1351 21.3986 14.2322 21.4177 14.3299 21.4143C14.4784 21.4184 14.6247 21.3769 14.7489 21.2953C14.8666 21.2163 14.9578 21.1038 15.0109 20.9723H15.7809C15.7184 21.2924 15.5462 21.5807 15.2939 21.7873C15.0216 21.9951 14.6852 22.1013 14.3429 22.0873C14.0734 22.093 13.8074 22.026 13.5729 21.8933C13.3534 21.766 13.1755 21.5777 13.0608 21.3513C12.9417 21.103 12.8799 20.8312 12.8799 20.5558C12.8799 20.2804 12.9417 20.0086 13.0608 19.7603C13.1755 19.5339 13.3534 19.3457 13.5729 19.2183C13.8074 19.0856 14.0734 19.0186 14.3429 19.0243C14.6858 19.0125 15.0222 19.1207 15.2939 19.3303Z" fill="white"/>
<path d="M18.0176 22.0646L17.3846 21.1286L16.8396 22.0646H16.0065L16.9676 20.5166L15.9766 19.0576H16.8396L17.4566 19.9636L17.9886 19.0576H18.8176L17.8696 20.5716L18.8816 22.0646H18.0176Z" fill="white"/>
</svg>
