<svg width="20" height="24" viewBox="0 0 20 24" fill="none" xmlns="http://www.w3.org/2000/svg">
<g opacity="0.3">
<path opacity="0.3" d="M13.9671 4.92501C13.4204 4.92448 12.8962 4.70706 12.5096 4.32047C12.123 3.93389 11.9056 3.40972 11.9051 2.863V1.85822e-07H2.69203C2.33856 -0.000131168 1.9885 0.0693769 1.6619 0.204554C1.3353 0.339731 1.03852 0.537926 0.78853 0.787822C0.53854 1.03772 0.340232 1.33442 0.204933 1.66097C0.0696341 1.98752 -2.44062e-08 2.33753 0 2.691V18.913C-2.44061e-08 19.2665 0.0696341 19.6165 0.204933 19.9431C0.340232 20.2696 0.53854 20.5663 0.78853 20.8162C1.03852 21.0661 1.3353 21.2643 1.6619 21.3995C1.9885 21.5347 2.33856 21.6042 2.69203 21.604H13.7521C14.4658 21.604 15.1503 21.3205 15.6549 20.8159C16.1596 20.3112 16.4431 19.6267 16.4431 18.913V4.92501H13.9671Z" fill="#00C650"/>
</g>
<path d="M16.4433 4.92501H13.9673C13.4206 4.92448 12.8964 4.70706 12.5098 4.32047C12.1232 3.93389 11.9058 3.40972 11.9053 2.863V0L16.4433 4.92501Z" fill="#00C650"/>
<path d="M18.3942 17.0605H5.8902C5.00322 17.0605 4.28418 17.7796 4.28418 18.6665V22.3946C4.28418 23.2815 5.00322 24.0006 5.8902 24.0006H18.3942C19.2812 24.0006 20.0003 23.2815 20.0003 22.3946V18.6665C20.0003 17.7796 19.2812 17.0605 18.3942 17.0605Z" fill="#00C650"/>
<path d="M8.04981 21.3115V22.0365H7.2998V21.3115H8.04981Z" fill="white"/>
<path d="M10.7409 19.3138C10.9937 19.5188 11.1656 19.8069 11.2259 20.1268H10.4589C10.4074 19.9942 10.3167 19.8805 10.1989 19.8008C10.0752 19.7197 9.92978 19.6781 9.78192 19.6818C9.68427 19.6787 9.5872 19.6981 9.49825 19.7385C9.40929 19.7789 9.33084 19.8392 9.26893 19.9148C9.14199 20.0972 9.07393 20.314 9.07393 20.5363C9.07393 20.7585 9.14199 20.9754 9.26893 21.1578C9.33114 21.2329 9.40969 21.2927 9.49862 21.3328C9.58754 21.3728 9.68445 21.392 9.78192 21.3888C9.92978 21.3924 10.0752 21.3509 10.1989 21.2698C10.3161 21.1911 10.4067 21.0789 10.4589 20.9478H11.2259C11.1642 21.2666 10.9926 21.5536 10.7409 21.7588C10.4702 21.9666 10.135 22.0728 9.79393 22.0588C9.52587 22.0646 9.26119 21.9979 9.02791 21.8658C8.80901 21.7392 8.63179 21.5515 8.51792 21.3258C8.39942 21.0787 8.33789 20.8082 8.33789 20.5343C8.33789 20.2603 8.39942 19.9898 8.51792 19.7428C8.63179 19.517 8.80901 19.3293 9.02791 19.2028C9.26119 19.0706 9.52587 19.0039 9.79393 19.0098C10.1354 18.9973 10.4705 19.1049 10.7409 19.3138Z" fill="white"/>
<path d="M13.663 21.6297C13.577 21.7675 13.4535 21.8778 13.307 21.9477C13.1292 22.0311 12.9343 22.0715 12.738 22.0657C12.4419 22.0777 12.1501 21.9916 11.908 21.8207C11.8009 21.7405 11.7132 21.6371 11.6516 21.5184C11.59 21.3996 11.5559 21.2685 11.5519 21.1347H12.3229C12.328 21.2353 12.3709 21.3303 12.443 21.4007C12.5147 21.4677 12.6099 21.5036 12.708 21.5007C12.7884 21.5048 12.8672 21.4776 12.928 21.4247C12.9546 21.3988 12.9756 21.3677 12.9896 21.3333C13.0035 21.2988 13.0101 21.2619 13.009 21.2247C13.0099 21.1896 13.0038 21.1547 12.9909 21.122C12.978 21.0894 12.9586 21.0597 12.934 21.0347C12.8816 20.9811 12.819 20.9386 12.75 20.9097C12.677 20.8767 12.575 20.8387 12.45 20.7927C12.2916 20.7405 12.1369 20.6777 11.987 20.6047C11.8635 20.5408 11.7574 20.4478 11.6779 20.3337C11.5919 20.1936 11.5468 20.0323 11.5479 19.8679C11.5489 19.7035 11.5961 19.5427 11.684 19.4037C11.778 19.2702 11.908 19.1661 12.059 19.1037C12.2328 19.0331 12.4194 18.9991 12.607 19.0037C12.8911 18.9885 13.1717 19.0723 13.401 19.2407C13.4975 19.3191 13.5767 19.4166 13.6337 19.527C13.6907 19.6375 13.7241 19.7586 13.732 19.8827H12.949C12.94 19.7946 12.902 19.7119 12.841 19.6477C12.8096 19.6182 12.7727 19.5953 12.7323 19.5803C12.6919 19.5654 12.649 19.5587 12.606 19.5607C12.5333 19.5584 12.4622 19.5825 12.406 19.6287C12.3786 19.6539 12.3572 19.685 12.3436 19.7197C12.3299 19.7543 12.3242 19.7916 12.327 19.8287C12.3257 19.8956 12.3508 19.9603 12.3969 20.0087C12.4467 20.0607 12.5066 20.1019 12.5729 20.1297C12.6439 20.1607 12.745 20.2007 12.873 20.2487C13.0343 20.3007 13.1914 20.3649 13.343 20.4407C13.4677 20.5075 13.5749 20.6027 13.656 20.7187C13.7495 20.8585 13.7958 21.0247 13.788 21.1927C13.7878 21.3472 13.7445 21.4985 13.663 21.6297Z" fill="white"/>
<path d="M14.7447 19.043L15.4767 21.296L16.2098 19.043H16.9848L15.9428 22.037H15.0067L13.9697 19.043H14.7447Z" fill="white"/>
<path d="M11.8894 15.0834H4.55433C3.91932 15.0834 3.40332 14.4514 3.40332 13.6734V8.35138C3.40332 7.57438 3.91932 6.94238 4.55433 6.94238H11.8894C12.5244 6.94238 13.0404 7.57438 13.0404 8.35138V13.6704C13.0404 14.4484 12.5244 15.0834 11.8894 15.0834ZM4.55433 7.66638C4.24433 7.66638 3.99234 7.97438 3.99234 8.35438V13.6734C3.99234 14.0534 4.24433 14.3624 4.55433 14.3624H11.8894C12.1994 14.3624 12.4524 14.0534 12.4524 13.6734V8.35138C12.4524 7.97138 12.1994 7.66338 11.8894 7.66338L4.55433 7.66638Z" fill="#00C650"/>
<path d="M12.7453 11.877H3.69629V12.598H12.7453V11.877Z" fill="#00C650"/>
<path d="M12.7453 9.4043H3.69629V10.1253H12.7453V9.4043Z" fill="#00C650"/>
<path d="M10.429 7.30176H9.70801V14.7188H10.429V7.30176Z" fill="#00C650"/>
<path d="M6.73565 7.30176H6.01465V14.7188H6.73565V7.30176Z" fill="#00C650"/>
</svg>
