<svg width="34" height="32" viewBox="0 0 34 32" fill="none" xmlns="http://www.w3.org/2000/svg">
<path d="M16.9884 0.921875C7.96591 0.921875 0.689697 6.74278 0.689697 13.8094C0.689697 18.3964 3.7166 22.4128 8.25696 24.7063L6.72022 30.4458C6.69125 30.5319 6.68679 30.6242 6.70736 30.7126C6.72792 30.801 6.77268 30.8819 6.83664 30.9464C6.92991 31.0286 7.04991 31.0741 7.17426 31.0744C7.27737 31.0661 7.37519 31.0254 7.45366 30.958L14.0663 26.4992C15.0424 26.6339 16.0263 26.7038 17.0117 26.7087C26.0226 26.7087 33.3104 20.8877 33.3104 13.8094C33.3104 6.73114 25.9993 0.921875 16.9884 0.921875Z" fill="#392020"/>
<path d="M6.39366 11.7711H4.61245C4.39167 11.7775 4.17363 11.7209 3.98378 11.6081C3.89949 11.5553 3.82702 11.4856 3.77093 11.4034C3.71483 11.3213 3.67632 11.2284 3.65781 11.1307C3.65215 11.0687 3.65215 11.0065 3.65781 10.9445C3.65227 10.8286 3.67478 10.713 3.72342 10.6076C3.77206 10.5022 3.8454 10.4101 3.93721 10.3391C4.14017 10.1921 4.38515 10.1145 4.63573 10.1179H10.0027C10.2252 10.11 10.4447 10.171 10.6313 10.2925C10.7176 10.343 10.7916 10.4121 10.848 10.4946C10.9043 10.5771 10.9417 10.6711 10.9573 10.7699C10.963 10.8279 10.963 10.8865 10.9573 10.9445C10.9628 11.0621 10.9403 11.1793 10.8918 11.2866C10.8432 11.3939 10.7699 11.488 10.6779 11.5614C10.4799 11.7083 10.2373 11.7823 9.99102 11.7711H8.26802V17.8947C8.27501 18.0252 8.25482 18.1556 8.20873 18.2779C8.16263 18.4001 8.09164 18.5115 8.00025 18.6049C7.91261 18.6942 7.80726 18.7641 7.69097 18.8102C7.57468 18.8563 7.45002 18.8776 7.32501 18.8726C7.10637 18.8789 6.89237 18.809 6.71964 18.6748C6.55519 18.5437 6.44358 18.3576 6.40531 18.1508C6.3938 18.0658 6.3938 17.9797 6.40531 17.8947L6.39366 11.7711Z" fill="#FEE500"/>
<path d="M11.4713 10.5713C11.5225 10.3797 11.6427 10.2138 11.8089 10.1056C11.9859 10.0053 12.1877 9.95685 12.391 9.96592H12.8334C13.0491 9.95819 13.2627 10.0106 13.4504 10.1173C13.6493 10.251 13.7906 10.4546 13.8462 10.6877L16.1746 17.2654C16.235 17.4371 16.2855 17.612 16.3259 17.7894C16.3299 17.8631 16.3299 17.9369 16.3259 18.0105C16.3299 18.124 16.309 18.237 16.2648 18.3415C16.2205 18.4461 16.154 18.5398 16.0698 18.6159C15.9883 18.6995 15.8903 18.7654 15.7822 18.8095C15.674 18.8536 15.5579 18.8748 15.4412 18.872C15.2616 18.8899 15.0813 18.8468 14.9292 18.7497C14.7771 18.6525 14.6622 18.507 14.6029 18.3366L14.114 16.9046H11.0521L10.5632 18.3366C10.5054 18.5104 10.389 18.6587 10.2341 18.7564C10.0791 18.854 9.89506 18.8949 9.71332 18.872C9.51646 18.8772 9.32363 18.8156 9.16615 18.6974C9.01272 18.5754 8.90921 18.4015 8.8751 18.2085C8.86892 18.1427 8.86892 18.0764 8.8751 18.0105C8.85511 17.895 8.85511 17.7769 8.8751 17.6614C8.8751 17.5333 8.95659 17.3935 9.00316 17.2654L11.4713 10.5713ZM12.6355 12.0965L11.5295 15.5891H13.7298L12.6355 12.0965Z" fill="#FEE500"/>
<path d="M16.5926 10.9438C16.5807 10.6826 16.6728 10.4273 16.8487 10.2337C16.9381 10.1435 17.0454 10.073 17.1637 10.0269C17.282 9.9808 17.4087 9.95994 17.5356 9.96581C17.7537 9.96327 17.9665 10.0329 18.1409 10.1638C18.3026 10.3003 18.41 10.4903 18.4436 10.6993C18.4551 10.7804 18.4551 10.8627 18.4436 10.9438V17.0675H21.6452C21.8671 17.0646 22.0852 17.1251 22.2738 17.242C22.3586 17.2943 22.4314 17.3639 22.4876 17.4461C22.5437 17.5283 22.582 17.6214 22.5998 17.7194C22.5998 17.7194 22.5998 17.8358 22.5998 17.894C22.6053 18.01 22.5828 18.1255 22.5342 18.2309C22.4856 18.3362 22.4122 18.4284 22.3204 18.4995C22.1174 18.6464 21.8725 18.7239 21.6219 18.7206H17.6869C17.4363 18.7367 17.1872 18.6715 16.9767 18.5344C16.7885 18.3937 16.6631 18.1846 16.6275 17.9523C16.619 17.8244 16.619 17.696 16.6275 17.568L16.5926 10.9438Z" fill="#FEE500"/>
<path d="M22.8097 10.9469C22.8027 10.6864 22.8942 10.4329 23.0658 10.2368C23.2403 10.0782 23.4641 9.9846 23.6995 9.97188C23.9349 9.95915 24.1675 10.028 24.3581 10.1669C24.5233 10.3022 24.6348 10.4921 24.6724 10.7023C24.6781 10.7837 24.6781 10.8655 24.6724 10.9469V13.7991L27.6178 10.3996C27.7313 10.2837 27.8518 10.1749 27.9787 10.0738C28.0983 10.0026 28.2354 9.96617 28.3745 9.96889C28.578 9.96778 28.777 10.0287 28.945 10.1436C29.0241 10.1969 29.0917 10.2656 29.1437 10.3456C29.1957 10.4256 29.2311 10.5153 29.2477 10.6093C29.2524 10.6323 29.2524 10.6561 29.2477 10.6792C29.242 10.706 29.242 10.7337 29.2477 10.7606C29.2473 10.8831 29.2152 11.0035 29.1545 11.1099C29.0928 11.2226 29.0186 11.3279 28.9333 11.4241L27.0008 13.543L29.3292 17.152V17.2684C29.4501 17.4352 29.5443 17.6199 29.6086 17.8157V17.8738C29.622 18.0087 29.6026 18.1449 29.5519 18.2706C29.5012 18.3963 29.4208 18.5078 29.3175 18.5956C29.1233 18.7424 28.8857 18.8203 28.6423 18.8169C28.4806 18.8235 28.3199 18.7873 28.1766 18.712C28.0216 18.608 27.8938 18.4683 27.8041 18.3046L25.6387 14.812L24.6025 15.8947V17.8389C24.6095 18.0994 24.5181 18.3529 24.3464 18.549C24.2544 18.6389 24.145 18.7092 24.0248 18.7552C23.9047 18.8013 23.7764 18.8223 23.6479 18.8169C23.4331 18.8214 23.2233 18.7514 23.0542 18.6189C22.8897 18.4878 22.7781 18.3019 22.7398 18.0951C22.7283 18.0101 22.7283 17.9238 22.7398 17.8389L22.8097 10.9469Z" fill="#FEE500"/>
</svg>
