<svg width="25" height="24" viewBox="0 0 25 24" fill="none" xmlns="http://www.w3.org/2000/svg">
<path d="M11.3984 2.39844C16.0929 2.39844 19.8984 6.20402 19.8984 10.8984C19.8984 12.9569 19.1658 14.8437 17.9482 16.3145L21.2666 19.6328C21.5785 19.9452 21.5786 20.4514 21.2666 20.7637C20.9542 21.0761 20.4472 21.0761 20.1348 20.7637L16.8174 17.4463C15.3462 18.6652 13.4582 19.3984 11.3984 19.3984C6.70402 19.3984 2.89844 15.5929 2.89844 10.8984C2.89844 6.20402 6.70402 2.39844 11.3984 2.39844ZM11.3984 3.99805C7.58767 3.99805 4.49805 7.08767 4.49805 10.8984C4.49805 14.7092 7.58767 17.7988 11.3984 17.7988C13.2149 17.7988 14.8655 17.0946 16.0977 15.9473C16.1349 15.8738 16.1847 15.8046 16.2461 15.7432C16.3078 15.6815 16.3773 15.632 16.4512 15.5947C17.5966 14.363 18.2988 12.7131 18.2988 10.8984C18.2988 7.08767 15.2092 3.99805 11.3984 3.99805Z" fill="#256EF4"/>
</svg>
