<svg width="24" height="24" viewBox="0 0 24 24" fill="none" xmlns="http://www.w3.org/2000/svg">
<path d="M9 9.05V15.05H15V9.05H9ZM12 1.05C10.2 1.05 8.5125 1.4625 6.9375 2.2875C5.3625 3.1125 4.05 4.26667 3 5.75V3.05H1V9.05H7V7.05H4.55C5.4 5.8 6.47917 4.82083 7.7875 4.1125C9.09583 3.40417 10.5 3.05 12 3.05C13.9167 3.05 15.6542 3.6 17.2125 4.7C18.7708 5.8 19.8667 7.25833 20.5 9.075L22.45 8.625C21.7 6.35833 20.3667 4.52917 18.45 3.1375C16.5333 1.74583 14.3833 1.05 12 1.05ZM1.05 13.05C1.16667 14.1667 1.43333 15.2375 1.85 16.2625C2.26667 17.2875 2.84167 18.2333 3.575 19.1L5 17.675C4.46667 16.9917 4.03333 16.2625 3.7 15.4875C3.36667 14.7125 3.15833 13.9 3.075 13.05H1.05ZM6.4 19.075L4.975 20.5C5.85833 21.2333 6.80833 21.8125 7.825 22.2375C8.84167 22.6625 9.9 22.9167 11 23V21C10.15 20.9167 9.34167 20.7083 8.575 20.375C7.80833 20.0417 7.08333 19.6083 6.4 19.075ZM17.625 19.075C16.9417 19.6083 16.2125 20.0417 15.4375 20.375C14.6625 20.7083 13.85 20.9167 13 21V23C14.1167 22.9 15.1875 22.6417 16.2125 22.225C17.2375 21.8083 18.1833 21.2333 19.05 20.5L17.625 19.075ZM20.95 13.05C20.8667 13.9 20.6583 14.7125 20.325 15.4875C19.9917 16.2625 19.5583 16.9917 19.025 17.675L20.45 19.1C21.1833 18.2333 21.7583 17.2875 22.175 16.2625C22.5917 15.2375 22.85 14.1667 22.95 13.05H20.95Z" fill="#8A949E"/>
</svg>
