<svg width="24" height="24" viewBox="0 0 24 24" fill="none" xmlns="http://www.w3.org/2000/svg">
<rect width="24" height="24" rx="12" fill="white"/>
<path d="M7.49563 18C7.08188 18 6.72917 17.8527 6.4375 17.5581C6.14583 17.2635 6 16.9094 6 16.4956C6 16.0819 6.14729 15.7292 6.44188 15.4375C6.73646 15.1458 7.09062 15 7.50437 15C7.91812 15 8.27083 15.1473 8.5625 15.4419C8.85417 15.7365 9 16.0906 9 16.5044C9 16.9181 8.85271 17.2708 8.55813 17.5625C8.26354 17.8542 7.90938 18 7.49563 18ZM11.9956 18C11.5819 18 11.2292 17.8527 10.9375 17.5581C10.6458 17.2635 10.5 16.9094 10.5 16.4956C10.5 16.0819 10.6473 15.7292 10.9419 15.4375C11.2365 15.1458 11.5906 15 12.0044 15C12.4181 15 12.7708 15.1473 13.0625 15.4419C13.3542 15.7365 13.5 16.0906 13.5 16.5044C13.5 16.9181 13.3527 17.2708 13.0581 17.5625C12.7635 17.8542 12.4094 18 11.9956 18ZM16.4956 18C16.0819 18 15.7292 17.8527 15.4375 17.5581C15.1458 17.2635 15 16.9094 15 16.4956C15 16.0819 15.1473 15.7292 15.4419 15.4375C15.7365 15.1458 16.0906 15 16.5044 15C16.9181 15 17.2708 15.1473 17.5625 15.4419C17.8542 15.7365 18 16.0906 18 16.5044C18 16.9181 17.8527 17.2708 17.5581 17.5625C17.2635 17.8542 16.9094 18 16.4956 18ZM7.49563 13.5C7.08188 13.5 6.72917 13.3527 6.4375 13.0581C6.14583 12.7635 6 12.4094 6 11.9956C6 11.5819 6.14729 11.2292 6.44188 10.9375C6.73646 10.6458 7.09062 10.5 7.50437 10.5C7.91812 10.5 8.27083 10.6473 8.5625 10.9419C8.85417 11.2365 9 11.5906 9 12.0044C9 12.4181 8.85271 12.7708 8.55813 13.0625C8.26354 13.3542 7.90938 13.5 7.49563 13.5ZM11.9956 13.5C11.5819 13.5 11.2292 13.3527 10.9375 13.0581C10.6458 12.7635 10.5 12.4094 10.5 11.9956C10.5 11.5819 10.6473 11.2292 10.9419 10.9375C11.2365 10.6458 11.5906 10.5 12.0044 10.5C12.4181 10.5 12.7708 10.6473 13.0625 10.9419C13.3542 11.2365 13.5 11.5906 13.5 12.0044C13.5 12.4181 13.3527 12.7708 13.0581 13.0625C12.7635 13.3542 12.4094 13.5 11.9956 13.5ZM16.4956 13.5C16.0819 13.5 15.7292 13.3527 15.4375 13.0581C15.1458 12.7635 15 12.4094 15 11.9956C15 11.5819 15.1473 11.2292 15.4419 10.9375C15.7365 10.6458 16.0906 10.5 16.5044 10.5C16.9181 10.5 17.2708 10.6473 17.5625 10.9419C17.8542 11.2365 18 11.5906 18 12.0044C18 12.4181 17.8527 12.7708 17.5581 13.0625C17.2635 13.3542 16.9094 13.5 16.4956 13.5ZM7.49563 9C7.08188 9 6.72917 8.85271 6.4375 8.55812C6.14583 8.26354 6 7.90937 6 7.49562C6 7.08187 6.14729 6.72917 6.44188 6.4375C6.73646 6.14583 7.09062 6 7.50437 6C7.91812 6 8.27083 6.14729 8.5625 6.44188C8.85417 6.73646 9 7.09063 9 7.50438C9 7.91813 8.85271 8.27083 8.55813 8.5625C8.26354 8.85417 7.90938 9 7.49563 9ZM11.9956 9C11.5819 9 11.2292 8.85271 10.9375 8.55812C10.6458 8.26354 10.5 7.90937 10.5 7.49562C10.5 7.08187 10.6473 6.72917 10.9419 6.4375C11.2365 6.14583 11.5906 6 12.0044 6C12.4181 6 12.7708 6.14729 13.0625 6.44188C13.3542 6.73646 13.5 7.09063 13.5 7.50438C13.5 7.91813 13.3527 8.27083 13.0581 8.5625C12.7635 8.85417 12.4094 9 11.9956 9ZM16.4956 9C16.0819 9 15.7292 8.85271 15.4375 8.55812C15.1458 8.26354 15 7.90937 15 7.49562C15 7.08187 15.1473 6.72917 15.4419 6.4375C15.7365 6.14583 16.0906 6 16.5044 6C16.9181 6 17.2708 6.14729 17.5625 6.44188C17.8542 6.73646 18 7.09063 18 7.50438C18 7.91813 17.8527 8.27083 17.5581 8.5625C17.2635 8.85417 16.9094 9 16.4956 9Z" fill="#1E2124"/>
</svg>
