<svg width="330" height="200" viewBox="0 0 330 200" fill="none" xmlns="http://www.w3.org/2000/svg">
<g clip-path="url(#clip0_2449_71298)">
<path d="M0 20C0 8.95431 8.95431 0 20 0H298C315.673 0 330 14.3269 330 32V180C330 191.046 321.046 200 310 200H20C8.95431 200 0 191.046 0 180V20Z" fill="#256EF4"/>
<g opacity="0.6">
<path style="mix-blend-mode:multiply" opacity="0.47" d="M-41.9844 185.93C-34.8194 165.565 47.0993 3.58322 215.132 118.817C298.762 176.171 362.446 153.324 405.328 115.906L341.102 280.11L-41.9844 185.93Z" fill="url(#paint0_linear_2449_71298)"/>
<path style="mix-blend-mode:multiply" opacity="0.31" d="M-84.0301 100.824C-20.5051 72.4127 17.7946 66.7529 119.254 119.294C209.552 166.051 257.2 107.169 302.806 82.1428C372.235 43.812 417.182 127.212 441.301 138.433L28.9987 320.492L-84.0344 100.826L-84.0301 100.824Z" fill="url(#paint1_linear_2449_71298)"/>
<path style="mix-blend-mode:multiply" opacity="0.5" d="M-69.029 254.655C-87.8997 133.202 28.3157 -21.6549 186.154 51.3073C271.542 90.7805 320.316 47.5905 353.09 18.0158L236.019 367.052L-69.029 254.655Z" fill="url(#paint2_linear_2449_71298)"/>
</g>
</g>
<defs>
<linearGradient id="paint0_linear_2449_71298" x1="151.48" y1="-2.8769" x2="210.029" y2="148.711" gradientUnits="userSpaceOnUse">
<stop stop-color="#27FFFF" stop-opacity="0.3"/>
<stop offset="1" stop-color="#5C7CFF"/>
</linearGradient>
<linearGradient id="paint1_linear_2449_71298" x1="-74.7131" y1="230.845" x2="170.334" y2="138.342" gradientUnits="userSpaceOnUse">
<stop stop-color="white"/>
<stop offset="1" stop-color="#5C7CFF"/>
</linearGradient>
<linearGradient id="paint2_linear_2449_71298" x1="136.647" y1="17.6425" x2="153.178" y2="258.9" gradientUnits="userSpaceOnUse">
<stop stop-color="#5C7CFF"/>
<stop offset="1" stop-color="#27FFFF" stop-opacity="0"/>
</linearGradient>
<clipPath id="clip0_2449_71298">
<path d="M0 20C0 8.95431 8.95431 0 20 0H298C315.673 0 330 14.3269 330 32V180C330 191.046 321.046 200 310 200H20C8.95431 200 0 191.046 0 180V20Z" fill="white"/>
</clipPath>
</defs>
</svg>
