<svg width="330" height="200" viewBox="0 0 330 200" fill="none" xmlns="http://www.w3.org/2000/svg">
<g clip-path="url(#clip0_2449_71284)">
<path d="M0 20C0 8.95431 8.95431 0 20 0H298C315.673 0 330 14.3269 330 32V180C330 191.046 321.046 200 310 200H20C8.95431 200 0 191.046 0 180V20Z" fill="#75C0D1"/>
<g opacity="0.6">
<path style="mix-blend-mode:multiply" opacity="0.47" d="M477.423 285.542C469.124 268.477 302.749 39.2565 162.928 161.947C93.3395 223.012 34.1978 210.839 -7.662 183.21L65.0322 319.99L477.423 285.542Z" fill="url(#paint0_linear_2449_71284)"/>
<path style="mix-blend-mode:multiply" opacity="0.31" d="M260.832 197.764C226.059 145.441 199.495 122.68 96.1587 114.107C4.1927 106.475 -3.54907 38.4523 -26.254 -2.65696C-60.7059 -65.4181 -108.553 -65.0012 -132.499 -68.0114L67.0558 311.628L260.834 197.768L260.832 197.764Z" fill="url(#paint1_linear_2449_71284)"/>
<path style="mix-blend-mode:multiply" opacity="0.5" d="M283.266 191.645C284.41 101.49 181.582 7.4566 71.9793 83.464C12.6862 124.584 -28.1564 100.798 -55.6595 84.4168L68.4062 317.964L283.266 191.645Z" fill="url(#paint2_linear_2449_71284)"/>
</g>
</g>
<defs>
<linearGradient id="paint0_linear_2449_71284" x1="208.678" y1="46.6372" x2="175.766" y2="188.946" gradientUnits="userSpaceOnUse">
<stop stop-color="#27FFFF" stop-opacity="0.3"/>
<stop offset="1" stop-color="#5C7CFF"/>
</linearGradient>
<linearGradient id="paint1_linear_2449_71284" x1="190.231" y1="292.866" x2="48.1238" y2="103.841" gradientUnits="userSpaceOnUse">
<stop stop-color="white"/>
<stop offset="1" stop-color="#5C7CFF"/>
</linearGradient>
<linearGradient id="paint2_linear_2449_71284" x1="105.213" y1="51.8717" x2="128.441" y2="226.515" gradientUnits="userSpaceOnUse">
<stop stop-color="#5C7CFF"/>
<stop offset="1" stop-color="#27FFFF" stop-opacity="0"/>
</linearGradient>
<clipPath id="clip0_2449_71284">
<path d="M0 20C0 8.95431 8.95431 0 20 0H298C315.673 0 330 14.3269 330 32V180C330 191.046 321.046 200 310 200H20C8.95431 200 0 191.046 0 180V20Z" fill="white"/>
</clipPath>
</defs>
</svg>
