<svg width="13" height="16" viewBox="0 0 13 16" fill="none" xmlns="http://www.w3.org/2000/svg">
<path d="M6.50139 7.88258C6.89686 7.88258 7.23496 7.73347 7.5157 7.43523C7.79657 7.13699 7.937 6.77851 7.937 6.35977C7.937 5.94103 7.79617 5.58296 7.51451 5.28557C7.23284 4.98831 6.89421 4.83969 6.49861 4.83969C6.10314 4.83969 5.76504 4.9888 5.4843 5.28704C5.20343 5.58528 5.063 5.94384 5.063 6.36271C5.063 6.78145 5.20383 7.13945 5.48549 7.4367C5.76716 7.73396 6.10579 7.88258 6.50139 7.88258ZM6.5 14.32C8.05511 12.8459 9.24516 11.432 10.0702 10.0783C10.8951 8.72462 11.3076 7.53897 11.3076 6.52137C11.3076 4.98698 10.8472 3.72558 9.92647 2.73716C9.0057 1.74874 7.86354 1.25453 6.5 1.25453C5.13646 1.25453 3.9943 1.74874 3.07353 2.73716C2.15276 3.72558 1.69237 4.98698 1.69237 6.52137C1.69237 7.53897 2.10486 8.72462 2.92985 10.0783C3.75484 11.432 4.94489 12.8459 6.5 14.32ZM6.5 16C4.49947 14.1646 2.99934 12.4564 1.9996 10.8756C0.999867 9.29465 0.5 7.84324 0.5 6.52137C0.5 4.57904 1.09334 3.00657 2.28001 1.80394C3.46681 0.601313 4.87348 0 6.5 0C8.12652 0 9.53319 0.601313 10.72 1.80394C11.9067 3.00657 12.5 4.57904 12.5 6.52137C12.5 7.84324 12.0001 9.29465 11.0004 10.8756C10.0007 12.4564 8.50053 14.1646 6.5 16Z" fill="#BD2C0F"/>
</svg>
