<svg width="24" height="24" viewBox="0 0 24 24" fill="none" xmlns="http://www.w3.org/2000/svg">
<rect width="24" height="24" rx="12" fill="white"/>
<g clip-path="url(#clip0_1624_1124)">
<path d="M17.0546 6.38131H12.1426V4.33716H17.0546L15.308 5.35862L17.0546 6.38131Z" fill="#EF6250"/>
<path d="M12.1295 8.30244C11.9441 8.30244 11.793 8.15107 11.793 7.96523V4.3372C11.793 4.15137 11.9441 4 12.1295 4C12.315 4 12.4661 4.15137 12.4661 4.3372V7.96646C12.4661 8.1523 12.315 8.30367 12.1295 8.30367V8.30244Z" fill="#D0DEF7"/>
<path d="M11.8163 10.2456H8.62639C8.39371 10.2456 8.20508 10.4346 8.20508 10.6677V14.8914C8.20508 15.1245 8.39371 15.3135 8.62639 15.3135H11.8163C12.049 15.3135 12.2377 15.1245 12.2377 14.8914V10.6677C12.2377 10.4346 12.049 10.2456 11.8163 10.2456Z" fill="#D0DEF7"/>
<path d="M15.7538 10.2642H12.5639C12.3312 10.2642 12.1426 10.4532 12.1426 10.6863V14.91C12.1426 15.1431 12.3312 15.3321 12.5639 15.3321H15.7538C15.9865 15.3321 16.1752 15.1431 16.1752 14.91V10.6863C16.1752 10.4532 15.9865 10.2642 15.7538 10.2642Z" fill="#D0DEF7"/>
<path d="M13.493 7.37207H10.7944C10.5617 7.37207 10.373 7.56106 10.373 7.79419V9.80265C10.373 10.0358 10.5617 10.2248 10.7944 10.2248H13.493C13.7257 10.2248 13.9143 10.0358 13.9143 9.80265V7.79419C13.9143 7.56106 13.7257 7.37207 13.493 7.37207Z" fill="#495587"/>
<path d="M16.7303 14.1064H7.52276C7.30043 14.1064 7.12109 14.2874 7.12109 14.5089L7.85809 17.9548C7.85809 18.1775 8.03865 18.3572 8.25975 18.3572L12 18.9664L15.9933 18.3572C16.2156 18.3572 16.3949 18.1763 16.3949 17.9548L17.1319 14.5089C17.1319 14.2861 16.9514 14.1064 16.7303 14.1064Z" fill="#6270F4"/>
<path d="M7.38795 14.1372H16.8632L12.6771 11.8887C12.3553 11.7164 11.8947 11.7164 11.5728 11.8887L7.38672 14.1372H7.38795Z" fill="#6270F4"/>
<path d="M12.0074 20C11.8957 20 11.7827 19.9643 11.6856 19.8917C10.6342 19.1004 9.326 18.6635 8.00187 18.6635C6.67774 18.6635 5.40274 19.0905 4.35621 19.8671C4.11791 20.0443 3.78258 19.9939 3.6057 19.7551C3.42882 19.5164 3.47918 19.1804 3.71748 19.0032C4.94703 18.09 6.46892 17.5879 8.00187 17.5879C9.53482 17.5879 11.0936 18.1011 12.3305 19.0315C12.5676 19.2099 12.6155 19.5471 12.4373 19.7846C12.3317 19.9249 12.1708 19.9988 12.0087 19.9988L12.0074 20Z" fill="#495587"/>
<path d="M19.9625 20C19.8507 20 19.7377 19.9643 19.6407 19.8917C18.5892 19.1004 17.2811 18.6635 15.957 18.6635C14.6328 18.6635 13.3578 19.0905 12.3113 19.8671C12.073 20.0443 11.7377 19.9939 11.5608 19.7551C11.3839 19.5164 11.4343 19.1804 11.6726 19.0032C12.9021 18.09 14.424 17.5879 15.957 17.5879C17.4899 17.5879 19.0486 18.1011 20.2856 19.0315C20.5226 19.2099 20.5705 19.5471 20.3924 19.7846C20.2868 19.9249 20.1259 19.9988 19.9637 19.9988L19.9625 20Z" fill="#495587"/>
</g>
<defs>
<clipPath id="clip0_1624_1124">
<rect width="17" height="16" fill="white" transform="translate(3.5 4)"/>
</clipPath>
</defs>
</svg>
