<svg width="16" height="16" viewBox="0 0 16 16" fill="none" xmlns="http://www.w3.org/2000/svg">
<path d="M4.29167 11.7915H11.875V10.7082H4.29167V11.7915ZM8.08333 9.2113L10.7948 6.49984L10.0208 5.72588L8.625 7.13775V3.70817H7.54167V7.13775L6.14583 5.72588L5.37188 6.49984L8.08333 9.2113ZM8.09042 15.5832C7.04722 15.5832 6.06472 15.3858 5.14292 14.9911C4.22111 14.5964 3.41431 14.0532 2.7225 13.3617C2.03069 12.6702 1.48729 11.864 1.09229 10.9432C0.69743 10.0225 0.5 9.03866 0.5 7.99171C0.5 6.94477 0.697361 5.96386 1.09208 5.049C1.48681 4.13414 2.02993 3.33081 2.72146 2.639C3.41299 1.9472 4.21917 1.4038 5.14 1.0088C6.06069 0.613934 7.04451 0.416504 8.09146 0.416504C9.1384 0.416504 10.1193 0.613865 11.0342 1.00859C11.949 1.40331 12.7524 1.94643 13.4442 2.63796C14.136 3.32949 14.6794 4.134 15.0744 5.0515C15.4692 5.96914 15.6667 6.94956 15.6667 7.99275C15.6667 9.03595 15.4693 10.0184 15.0746 10.9403C14.6799 11.8621 14.1367 12.6689 13.4452 13.3607C12.7537 14.0525 11.9492 14.5959 11.0317 14.9909C10.114 15.3857 9.13361 15.5832 8.09042 15.5832ZM8.08333 14.4998C9.88889 14.4998 11.4236 13.8679 12.6875 12.604C13.9514 11.3401 14.5833 9.80539 14.5833 7.99984C14.5833 6.19428 13.9514 4.65956 12.6875 3.39567C11.4236 2.13178 9.88889 1.49984 8.08333 1.49984C6.27778 1.49984 4.74306 2.13178 3.47917 3.39567C2.21528 4.65956 1.58333 6.19428 1.58333 7.99984C1.58333 9.80539 2.21528 11.3401 3.47917 12.604C4.74306 13.8679 6.27778 14.4998 8.08333 14.4998Z" fill="white"/>
</svg>
