<svg width="16" height="16" viewBox="0 0 16 16" fill="none" xmlns="http://www.w3.org/2000/svg">
<path d="M13.6 16C12.9333 16 12.3667 15.7667 11.9 15.3C11.4333 14.8333 11.2 14.2667 11.2 13.6C11.2 13.4133 11.22 13.2333 11.26 13.06C11.3 12.8867 11.36 12.72 11.44 12.56L3.44 4.56C3.28 4.64 3.11333 4.7 2.94 4.74C2.76667 4.78 2.58667 4.8 2.4 4.8C1.73333 4.8 1.16667 4.56667 0.7 4.1C0.233333 3.63333 0 3.06667 0 2.4C0 1.73333 0.233333 1.16667 0.7 0.7C1.16667 0.233333 1.73333 0 2.4 0C3.06667 0 3.63333 0.233333 4.1 0.7C4.56667 1.16667 4.8 1.73333 4.8 2.4C4.8 2.58667 4.78 2.76667 4.74 2.94C4.7 3.11333 4.64 3.28 4.56 3.44L12.56 11.44C12.72 11.36 12.8867 11.3 13.06 11.26C13.2333 11.22 13.4133 11.2 13.6 11.2C14.2667 11.2 14.8333 11.4333 15.3 11.9C15.7667 12.3667 16 12.9333 16 13.6C16 14.2667 15.7667 14.8333 15.3 15.3C14.8333 15.7667 14.2667 16 13.6 16Z" fill="#1E2124"/>
</svg>
