<svg width="24" height="24" viewBox="0 0 24 24" fill="none" xmlns="http://www.w3.org/2000/svg">
<rect width="24" height="24" rx="12" fill="white"/>
<g clip-path="url(#clip0_1624_1118)">
<path d="M18.9495 7.59037L17.5049 8.98215C17.2219 9.25483 16.759 9.25483 16.4775 8.98215L15.3483 7.89287C15.0653 7.62019 15.0653 7.17426 15.3483 6.903L16.7929 5.51122C17.1629 5.15475 16.9241 4.54549 16.4008 4.50999C15.3159 4.43472 14.2044 4.79545 13.3759 5.59501C12.291 6.64027 11.9829 8.15134 12.4517 9.46076L5.47617 16.1811C4.87915 16.7562 4.76712 17.6737 5.26537 18.3312C5.89187 19.1578 7.11833 19.2245 7.83917 18.5286L14.8515 11.7728C16.2106 12.2244 17.7791 11.9276 18.864 10.8824C19.694 10.0828 20.0684 9.0134 19.9903 7.96814C19.9519 7.46397 19.321 7.2339 18.951 7.59037H18.9495ZM7.13454 17.6566C6.90458 17.9819 6.41517 17.9819 6.18521 17.6566C6.05697 17.4763 6.05697 17.2277 6.18521 17.046C6.41517 16.7207 6.90458 16.7207 7.13454 17.046C7.26279 17.2263 7.26279 17.4749 7.13454 17.6566Z" fill="#B3B3E0"/>
<path d="M11.7671 12.0881L7.54081 8.01646L7.53197 7.18565L5.42104 5.72144L4 7.09049L5.51981 9.1242L6.38216 9.13272L10.6084 13.2044" fill="#E6E8EA"/>
<path d="M11.7706 12.0835L10.6021 13.2092C10.1444 13.6501 10.1444 14.365 10.6021 14.8059L15.1332 19.1713C15.5909 19.6122 16.3329 19.6122 16.7906 19.1713L17.959 18.0455C18.4167 17.6046 18.4167 16.8898 17.959 16.4488L13.4279 12.0835C12.9703 11.6426 12.2282 11.6426 11.7706 12.0835Z" fill="#7860F5"/>
</g>
<defs>
<clipPath id="clip0_1624_1118">
<rect width="16" height="15" fill="white" transform="translate(4 4.5)"/>
</clipPath>
</defs>
</svg>
