<svg width="24" height="24" viewBox="0 0 24 24" fill="none" xmlns="http://www.w3.org/2000/svg">
<path d="M10 2C12.1167 2 13.9796 2.74128 15.5879 4.22461C17.1962 5.70794 18 7.7002 18 10.2002C17.9999 11.8668 17.3376 13.6794 16.0127 15.6377C14.6877 17.596 12.6833 19.7167 10 22C7.31669 19.7167 5.3123 17.596 3.9873 15.6377C2.66236 13.6794 2.00005 11.8668 2 10.2002C2 7.7002 2.80379 5.70794 4.41211 4.22461C6.02044 2.74128 7.88333 2 10 2ZM18.4746 2C18.6079 2 18.7373 2.02522 18.8623 2.0752C18.9872 2.12516 19.0915 2.19991 19.1748 2.2998C20.108 3.29969 20.8121 4.48314 21.2871 5.84961C21.7621 7.21628 22 8.66686 22 10.2002C22 12.2168 21.3793 14.2334 20.1377 16.25C18.896 18.2667 17.4663 20.0835 15.8496 21.7002C15.7663 21.8 15.662 21.8749 15.5371 21.9248C15.4123 21.9747 15.2835 22 15.1504 22C14.9004 22 14.6833 21.9123 14.5 21.7373C14.3167 21.5623 14.2246 21.3496 14.2246 21.0996C14.2247 20.9665 14.2499 20.8333 14.2998 20.7002C14.3498 20.5669 14.4254 20.4496 14.5254 20.3496C15.9586 18.8164 17.2297 17.1834 18.3379 15.4502C19.4462 13.7169 20 11.9668 20 10.2002C20 8.88371 19.8003 7.65859 19.4004 6.52539C19.0004 5.39216 18.4499 4.43368 17.75 3.65039C17.6667 3.56706 17.6042 3.46628 17.5625 3.34961C17.5209 3.23304 17.5 3.10781 17.5 2.97461C17.5001 2.69145 17.5921 2.45864 17.7754 2.27539C17.9586 2.09214 18.1915 2.00008 18.4746 2ZM10 7C8.89543 7 8 7.89543 8 9C8 10.1046 8.89543 11 10 11C11.1046 11 12 10.1046 12 9C12 7.89543 11.1046 7 10 7Z" fill="white"/>
</svg>
