<svg width="14" height="14" viewBox="0 0 14 14" fill="none" xmlns="http://www.w3.org/2000/svg">
<path d="M1.95898 12.6248H8.54232V8.62484H12.5423V2.0415C12.5423 1.84706 12.4798 1.68734 12.3548 1.56234C12.2298 1.43734 12.0701 1.37484 11.8757 1.37484H1.95898C1.76454 1.37484 1.60482 1.43734 1.47982 1.56234C1.35482 1.68734 1.29232 1.84706 1.29232 2.0415V11.9582C1.29232 12.1526 1.35482 12.3123 1.47982 12.4373C1.60482 12.5623 1.76454 12.6248 1.95898 12.6248ZM1.95898 13.5832C1.49093 13.5832 1.10308 13.4294 0.795443 13.1217C0.487804 12.8141 0.333984 12.4262 0.333984 11.9582V2.0415C0.333984 1.57345 0.487804 1.1856 0.795443 0.877963C1.10308 0.570324 1.49093 0.416504 1.95898 0.416504H11.8757C12.3437 0.416504 12.7316 0.570324 13.0392 0.877963C13.3468 1.1856 13.5007 1.57345 13.5007 2.0415V8.729L8.64648 13.5832H1.95898ZM3.75065 8.729V7.77067H7.04232V8.729H3.75065ZM3.75065 5.229V4.27067H10.084V5.229H3.75065Z" fill="white"/>
</svg>
