<svg width="14" height="14" viewBox="0 0 14 14" fill="none" xmlns="http://www.w3.org/2000/svg">
<path d="M2.04199 12.6251H8.62533V8.62508H12.6253V2.04175C12.6253 1.8473 12.5628 1.68758 12.4378 1.56258C12.3128 1.43758 12.1531 1.37508 11.9587 1.37508H2.04199C1.84755 1.37508 1.68783 1.43758 1.56283 1.56258C1.43783 1.68758 1.37533 1.8473 1.37533 2.04175V11.9584C1.37533 12.1529 1.43783 12.3126 1.56283 12.4376C1.68783 12.5626 1.84755 12.6251 2.04199 12.6251ZM2.04199 13.5834C1.57394 13.5834 1.18609 13.4296 0.87845 13.122C0.570812 12.8143 0.416992 12.4265 0.416992 11.9584V2.04175C0.416992 1.57369 0.570812 1.18585 0.87845 0.878207C1.18609 0.570568 1.57394 0.416748 2.04199 0.416748H11.9587C12.4267 0.416748 12.8146 0.570568 13.1222 0.878207C13.4298 1.18585 13.5837 1.57369 13.5837 2.04175V8.72925L8.72949 13.5834H2.04199ZM3.83366 8.72925V7.77091H7.12533V8.72925H3.83366ZM3.83366 5.22925V4.27091H10.167V5.22925H3.83366Z" fill="#6D7882"/>
</svg>
