<svg width="18" height="16" viewBox="0 0 18 16" fill="none" xmlns="http://www.w3.org/2000/svg">
<g clip-path="url(#clip0_1876_24291)">
<path d="M14.0546 2.38204H9.14258V0.337891H14.0546L12.308 1.35935L14.0546 2.38204Z" fill="#EF6250"/>
<path d="M9.12953 4.30244C8.94405 4.30244 8.79297 4.15107 8.79297 3.96523V0.337205C8.79297 0.151373 8.94405 0 9.12953 0C9.31501 0 9.46609 0.151373 9.46609 0.337205V3.96646C9.46609 4.1523 9.31501 4.30367 9.12953 4.30367V4.30244Z" fill="#D0DEF7"/>
<path d="M8.81635 6.24609H5.62639C5.39371 6.24609 5.20508 6.43508 5.20508 6.66822V10.8919C5.20508 11.125 5.39371 11.314 5.62639 11.314H8.81635C9.04904 11.314 9.23766 11.125 9.23766 10.8919V6.66822C9.23766 6.43508 9.04904 6.24609 8.81635 6.24609Z" fill="#D0DEF7"/>
<path d="M12.7538 6.26367H9.56389C9.33121 6.26367 9.14258 6.45266 9.14258 6.68579V10.9095C9.14258 11.1426 9.33121 11.3316 9.56389 11.3316H12.7538C12.9865 11.3316 13.1752 11.1426 13.1752 10.9095V6.68579C13.1752 6.45266 12.9865 6.26367 12.7538 6.26367Z" fill="#D0DEF7"/>
<path d="M10.493 3.37109H7.79436C7.56168 3.37109 7.37305 3.56008 7.37305 3.79322V5.80168C7.37305 6.03481 7.56168 6.2238 7.79436 6.2238H10.493C10.7257 6.2238 10.9143 6.03481 10.9143 5.80168V3.79322C10.9143 3.56008 10.7257 3.37109 10.493 3.37109Z" fill="#495587"/>
<path d="M13.7303 10.1074H4.52276C4.30043 10.1074 4.12109 10.2883 4.12109 10.5099L4.85809 13.9557C4.85809 14.1785 5.03865 14.3582 5.25975 14.3582L9 14.9674L12.9933 14.3582C13.2156 14.3582 13.3949 14.1773 13.3949 13.9557L14.1319 10.5099C14.1319 10.2871 13.9514 10.1074 13.7303 10.1074Z" fill="#6270F4"/>
<path d="M4.38795 10.1374H13.8632L9.67711 7.88899C9.35529 7.71669 8.89467 7.71669 8.57285 7.88899L4.38672 10.1374H4.38795Z" fill="#6270F4"/>
<path d="M9.00744 16C8.89566 16 8.78265 15.9643 8.68561 15.8917C7.63417 15.1004 6.326 14.6635 5.00187 14.6635C3.67774 14.6635 2.40274 15.0905 1.35621 15.8671C1.11791 16.0443 0.78258 15.9939 0.605702 15.7551C0.428823 15.5164 0.479184 15.1804 0.717479 15.0032C1.94703 14.09 3.46892 13.5879 5.00187 13.5879C6.53482 13.5879 8.09356 14.1011 9.33048 15.0315C9.56755 15.2099 9.61546 15.5471 9.43735 15.7846C9.33171 15.9249 9.1708 15.9988 9.00866 15.9988L9.00744 16Z" fill="#495587"/>
<path d="M16.9625 16C16.8507 16 16.7377 15.9643 16.6407 15.8917C15.5892 15.1004 14.2811 14.6635 12.957 14.6635C11.6328 14.6635 10.3578 15.0905 9.31129 15.8671C9.07299 16.0443 8.73766 15.9939 8.56078 15.7551C8.3839 15.5164 8.43426 15.1804 8.67256 15.0032C9.90211 14.09 11.424 13.5879 12.957 13.5879C14.4899 13.5879 16.0486 14.1011 17.2856 15.0315C17.5226 15.2099 17.5705 15.5471 17.3924 15.7846C17.2868 15.9249 17.1259 15.9988 16.9637 15.9988L16.9625 16Z" fill="#495587"/>
</g>
<defs>
<clipPath id="clip0_1876_24291">
<rect width="17" height="16" fill="white" transform="translate(0.5)"/>
</clipPath>
</defs>
</svg>
