<svg width="24" height="24" viewBox="0 0 24 24" fill="none" xmlns="http://www.w3.org/2000/svg">
<rect width="24" height="24" rx="12" fill="#256EF4"/>
<path fill-rule="evenodd" clip-rule="evenodd" d="M7.2 7.06667C7.12636 7.06667 7.06666 7.12637 7.06667 7.20001L7.06758 16.8001C7.06759 16.8738 7.12728 16.9335 7.20091 16.9335H16.7994C16.8731 16.9335 16.9327 16.8738 16.9327 16.8001V12.2668C16.9327 11.9722 17.1715 11.7335 17.4661 11.7335C17.7606 11.7335 17.9994 11.9722 17.9994 12.2668V16.8001C17.9994 17.4629 17.4622 18.0001 16.7994 18.0001H7.20091C6.53822 18.0001 6.00098 17.4629 6.00091 16.8002L6 7.20011C5.99994 6.53733 6.53721 6 7.2 6H11.7327C12.0273 6 12.2661 6.23878 12.2661 6.53333C12.2661 6.82789 12.0273 7.06667 11.7327 7.06667H7.2Z" fill="white"/>
<path fill-rule="evenodd" clip-rule="evenodd" d="M13.8655 7.06667C13.5709 7.06667 13.3322 6.82789 13.3322 6.53333C13.3322 6.23878 13.5709 6 13.8655 6H17.4655C17.76 6 17.9988 6.23878 17.9988 6.53333V10.1335C17.9988 10.428 17.76 10.6668 17.4655 10.6668C17.1709 10.6668 16.9322 10.428 16.9322 10.1335V7.82091L11.7093 13.0438C11.501 13.2521 11.1633 13.2521 10.955 13.0438C10.7468 12.8355 10.7468 12.4978 10.955 12.2895L16.1779 7.06667H13.8655Z" fill="white"/>
</svg>
