<svg width="24" height="24" viewBox="0 0 24 24" fill="none" xmlns="http://www.w3.org/2000/svg">
<rect width="24" height="24" rx="12" fill="white"/>
<path d="M15.0807 16.4848C15.49 17.0525 15.977 17.951 15.9622 18.9996H8.0257C8.01124 17.9482 8.50034 17.0479 8.9104 16.4805L15.0807 16.4848Z" fill="#256EF4"/>
<path d="M12 18.9937C12 18.9937 19.7509 13.5105 18.9406 10.1777C18.9406 10.1777 18.6841 8.4655 16.9309 8.54784C17.155 6.9219 15.7064 5.84975 14.039 6.27789C14.039 6.27789 13.3766 4.96733 12 5.00062C10.623 5.06685 9.961 6.27789 9.961 6.27789C8.29395 5.84975 6.84534 6.9219 7.06907 8.54784C5.31592 8.4655 5.05937 10.1777 5.05937 10.1777C4.24913 13.5105 12 18.9937 12 18.9937Z" fill="#86AFF9"/>
<path d="M9.85643 15.0533C9.80526 15.0533 9.75551 15.0251 9.7308 14.9753C9.47531 14.4698 9.21311 13.9629 8.95939 13.4732C8.0754 11.7667 7.24046 10.1551 6.93274 9.0153C6.91227 8.93905 6.95639 8.8603 7.03155 8.83953C7.10672 8.81877 7.18435 8.86352 7.20482 8.93977C7.50407 10.0495 8.3323 11.6479 9.20888 13.34C9.46296 13.8305 9.72586 14.3377 9.98171 14.845C10.0173 14.9155 9.98982 15.0018 9.92031 15.0376C9.89984 15.0483 9.87796 15.0533 9.85643 15.0533Z" fill="#F7F7F7"/>
<path d="M11.2807 14.7344C11.2126 14.7344 11.1529 14.6843 11.1417 14.6141C10.5597 10.9752 9.82926 6.77435 9.82185 6.73247C9.80844 6.65443 9.85961 6.58033 9.93619 6.56672C10.0128 6.55312 10.0862 6.60503 10.0996 6.68271C10.107 6.72459 10.8378 10.9276 11.4201 14.5683C11.4324 14.6463 11.3802 14.7201 11.3033 14.7326C11.2955 14.734 11.2885 14.7344 11.2807 14.7344Z" fill="#F7F7F7"/>
<path d="M14.143 15.0533C14.1215 15.0533 14.0992 15.0483 14.0788 15.0376C14.0092 15.0014 13.9821 14.9152 14.0174 14.845C14.2736 14.3381 14.5361 13.8305 14.7905 13.34C15.6671 11.6479 16.4953 10.0499 16.7946 8.94012C16.8151 8.86388 16.8927 8.81877 16.9679 8.83989C17.043 8.86065 17.0875 8.93941 17.0667 9.01566C16.7593 10.1555 15.9244 11.7671 15.0404 13.4732C14.7867 13.9633 14.5241 14.4698 14.2686 14.9757C14.2436 15.0251 14.1942 15.0533 14.143 15.0533Z" fill="#F7F7F7"/>
<path d="M12.7187 14.7344C12.7113 14.7344 12.7035 14.7337 12.6958 14.7326C12.6189 14.7201 12.5666 14.6463 12.579 14.5683C13.1612 10.9276 13.8921 6.72459 13.8995 6.68271C13.9129 6.60467 13.9863 6.55276 14.0629 6.56672C14.1398 6.58033 14.191 6.65479 14.1772 6.73247C14.1698 6.77435 13.4393 10.9752 12.8574 14.6141C12.8461 14.6843 12.7865 14.7344 12.7187 14.7344Z" fill="#F7F7F7"/>
</svg>
