<svg width="24" height="24" viewBox="0 0 24 24" fill="none" xmlns="http://www.w3.org/2000/svg">
<rect width="24" height="24" rx="12" fill="white"/>
<g clip-path="url(#clip0_1624_1137)">
<path d="M9.719 5.5C6.56108 5.5 4 8.04031 4 11.1726C4 14.305 6.56108 16.8453 9.719 16.8453C12.8769 16.8453 15.438 14.305 15.438 11.1726C15.438 8.04031 12.8782 5.5 9.719 5.5ZM9.719 13.7481C8.28558 13.7481 7.12246 12.5957 7.12246 11.1726C7.12246 9.74963 8.28436 8.59714 9.719 8.59714C11.1536 8.59714 12.3155 9.74963 12.3155 11.1726C12.3155 12.5957 11.1536 13.7481 9.719 13.7481Z" fill="#EF6250"/>
<path d="M9.7183 15.9767C9.21195 15.9767 8.81324 15.6807 8.4928 15.4442C8.33258 15.3253 8.18214 15.2137 8.0525 15.1603C7.91184 15.102 7.71738 15.0729 7.51191 15.0426C7.10218 14.9807 6.63742 14.9116 6.29374 14.5707C5.95007 14.2298 5.87913 13.7688 5.81675 13.3624C5.78618 13.1586 5.75682 12.9657 5.69812 12.8262C5.6443 12.6976 5.53178 12.5484 5.41192 12.3895C5.1722 12.0716 4.875 11.6761 4.875 11.1739C4.875 10.6717 5.17343 10.2762 5.41192 9.95834C5.53178 9.79942 5.6443 9.6502 5.69812 9.52161C5.75682 9.3821 5.78618 9.18921 5.81675 8.9854C5.87913 8.579 5.94884 8.11801 6.29252 7.77711C6.6362 7.43622 7.10096 7.36586 7.51068 7.30399C7.71616 7.27366 7.91062 7.24333 8.05127 7.18632C8.18092 7.13294 8.33135 7.02133 8.49157 6.90244C8.81201 6.66467 9.21073 6.36987 9.71707 6.36987C10.2234 6.36987 10.6221 6.66588 10.9426 6.90244C11.1028 7.02133 11.2532 7.13294 11.3829 7.18632C11.5235 7.24455 11.718 7.27366 11.9235 7.30399C12.3332 7.36586 12.7979 7.43501 13.1416 7.77711C13.4853 8.11922 13.5562 8.579 13.6174 8.9854C13.648 9.18921 13.6785 9.3821 13.736 9.52161C13.7898 9.6502 13.9024 9.79942 14.0222 9.95834C14.2619 10.2762 14.5591 10.6717 14.5591 11.1739C14.5591 11.6761 14.2607 12.0716 14.0222 12.3895C13.9024 12.5484 13.7898 12.6976 13.736 12.8262C13.6773 12.9657 13.648 13.1586 13.6174 13.3624C13.555 13.7688 13.4853 14.2298 13.1416 14.5707C12.7979 14.9116 12.3332 14.9819 11.9235 15.0438C11.718 15.0741 11.5235 15.1033 11.3829 15.1615C11.2532 15.2149 11.1028 15.3265 10.9426 15.4454C10.6221 15.6831 10.2234 15.9779 9.71707 15.9779L9.7183 15.9767ZM9.7183 7.33917C9.53728 7.33917 9.31469 7.50416 9.07864 7.67885C8.87806 7.82807 8.67014 7.98214 8.42797 8.08161C8.17602 8.18473 7.91307 8.22476 7.65867 8.26237C7.38593 8.30362 7.10218 8.34608 6.98599 8.46132C6.8698 8.57657 6.827 8.85802 6.78541 9.12855C6.74627 9.38088 6.70714 9.64292 6.60318 9.89162C6.50289 10.1318 6.34756 10.3381 6.19712 10.537C6.021 10.7711 5.85467 10.9919 5.85467 11.1715C5.85467 11.351 6.021 11.5718 6.19712 11.8059C6.34756 12.0049 6.50289 12.2111 6.60318 12.4513C6.70714 12.7012 6.7475 12.9621 6.78541 13.2144C6.827 13.4861 6.8698 13.7664 6.98599 13.8816C7.10218 13.9969 7.38593 14.0393 7.65867 14.0806C7.91307 14.1194 8.17725 14.1582 8.42797 14.2613C8.67014 14.3608 8.87806 14.5149 9.07864 14.6641C9.31469 14.8388 9.53728 15.0038 9.7183 15.0038C9.89931 15.0038 10.1219 14.8388 10.358 14.6641C10.5585 14.5149 10.7665 14.3608 11.0086 14.2613C11.2606 14.1582 11.5235 14.1182 11.7779 14.0806C12.0519 14.0393 12.3344 13.9969 12.4506 13.8816C12.5668 13.7664 12.6096 13.4849 12.6512 13.2144C12.6903 12.9621 12.7295 12.7 12.8334 12.4513C12.9337 12.2111 13.089 12.0049 13.2395 11.8059C13.4156 11.5718 13.5819 11.351 13.5819 11.1715C13.5819 10.9919 13.4156 10.7711 13.2395 10.537C13.089 10.3381 12.9337 10.1318 12.8334 9.89162C12.7295 9.64171 12.6891 9.38088 12.6512 9.12855C12.6096 8.85681 12.5668 8.57657 12.4506 8.46132C12.3344 8.34608 12.0507 8.30362 11.7779 8.26237C11.5235 8.22355 11.2593 8.18473 11.0086 8.08161C10.7665 7.98214 10.5585 7.82807 10.358 7.67885C10.1219 7.50416 9.89931 7.33917 9.7183 7.33917Z" fill="#FF8D8D"/>
<path d="M18.5971 10.3877C16.7259 8.53158 13.6927 8.53158 11.8214 10.3877C9.95015 12.2438 9.95015 15.2524 11.8214 17.1085C13.6927 18.9646 16.7259 18.9646 18.5971 17.1085C20.4684 15.2524 20.4684 12.2438 18.5971 10.3877ZM13.442 15.5011C12.466 14.533 12.466 12.9632 13.442 11.9951C14.418 11.027 16.0006 11.027 16.9766 11.9951C17.9526 12.9632 17.9526 14.533 16.9766 15.5011C16.0006 16.4691 14.418 16.4691 13.442 15.5011Z" fill="white"/>
<path d="M19.9992 13.748H17.7072C17.7072 14.3825 17.4626 15.017 16.9746 15.501L18.5952 17.1084C19.5308 16.1804 19.998 14.9648 19.998 13.748H19.9992Z" fill="#EF6250"/>
<path d="M16.9763 11.995L18.5968 10.3876C17.6612 9.45951 16.4357 8.99609 15.209 8.99609V11.2695C15.8486 11.2695 16.4883 11.5109 16.9763 11.9962V11.995Z" fill="#EF6250"/>
<path d="M13.4414 11.9951L11.8208 10.3877C10.8852 11.3157 10.418 12.5313 10.418 13.7481H12.71C12.71 13.1136 12.9546 12.4791 13.4426 11.9951H13.4414Z" fill="#EF6250"/>
<path d="M15.2082 16.2264C14.5685 16.2264 13.9289 15.9838 13.4409 15.4998L11.8203 17.1072C12.7559 18.0352 13.9815 18.4986 15.2082 18.4986V16.2252V16.2264Z" fill="#EF6250"/>
</g>
<defs>
<clipPath id="clip0_1624_1137">
<rect width="16" height="13" fill="white" transform="translate(4 5.5)"/>
</clipPath>
</defs>
</svg>
