<svg width="20" height="20" viewBox="0 0 20 20" fill="none" xmlns="http://www.w3.org/2000/svg">
<g clip-path="url(#clip0_1860_911)">
<path d="M10 2C14.4184 2 18 5.58018 18 9.99684C18.0017 12.0964 17.1772 14.1124 15.7047 15.6095C14.2322 17.1067 12.2297 17.9649 10.1296 17.9989C8.02951 18.033 6.00027 17.24 4.48 15.7913C2.95973 14.3427 2.07039 12.3544 2.004 10.2559L2 9.99684L2.0032 9.77292C2.1216 5.46023 5.656 2 10 2ZM10.008 12.3959L9.9064 12.4015C9.71196 12.4246 9.53275 12.5182 9.40273 12.6646C9.2727 12.8109 9.20089 12.9998 9.20089 13.1956C9.20089 13.3913 9.2727 13.5802 9.40273 13.7266C9.53275 13.8729 9.71196 13.9665 9.9064 13.9897L10 13.9953L10.1016 13.9897C10.296 13.9665 10.4752 13.8729 10.6053 13.7266C10.7353 13.5802 10.8071 13.3913 10.8071 13.1956C10.8071 12.9998 10.7353 12.8109 10.6053 12.6646C10.4752 12.5182 10.296 12.4246 10.1016 12.4015L10.008 12.3959ZM10 5.99842C9.80405 5.99844 9.61493 6.07035 9.4685 6.20051C9.32207 6.33067 9.22852 6.51002 9.2056 6.70454L9.2 6.7981V9.99684L9.2056 10.0904C9.22873 10.2848 9.32236 10.4639 9.46877 10.5939C9.61518 10.7238 9.80419 10.7956 10 10.7956C10.1958 10.7956 10.3848 10.7238 10.5312 10.5939C10.6776 10.4639 10.7713 10.2848 10.7944 10.0904L10.8 9.99684V6.7981L10.7944 6.70454C10.7715 6.51002 10.6779 6.33067 10.5315 6.20051C10.3851 6.07035 10.1959 5.99844 10 5.99842Z" fill="#256EF4"/>
</g>
<defs>
<clipPath id="clip0_1860_911">
<rect width="20" height="20" fill="white"/>
</clipPath>
</defs>
</svg>
