<svg width="16" height="16" viewBox="0 0 16 16" fill="none" xmlns="http://www.w3.org/2000/svg">
<g clip-path="url(#clip0_1876_24342)">
<path d="M8.53093 8.52639C7.44374 7.72216 5.12305 5.65173 5.12305 2.63522V1.7412C6.39691 1.49524 7.57239 0.894022 8.53093 0C9.48948 0.894022 10.665 1.49654 11.9388 1.7412V2.63522C11.9388 5.65173 9.61813 7.72216 8.53093 8.52639Z" fill="#EF6250"/>
<path d="M8.32271 5.91256C8.19658 5.91256 8.07676 5.8566 7.99226 5.759L6.8748 4.46156C6.71336 4.27287 6.72975 3.98527 6.91137 3.8187C7.09299 3.65213 7.37299 3.66904 7.53443 3.85644L8.29496 4.74005L9.85764 2.61756C10.0052 2.41715 10.2827 2.37811 10.4757 2.53037C10.6699 2.68263 10.7077 2.96892 10.5602 3.16803L8.67207 5.73167C8.59261 5.83968 8.46901 5.90605 8.33784 5.91125C8.33154 5.91125 8.32649 5.91125 8.32145 5.91125L8.32271 5.91256Z" fill="white"/>
<path d="M1.21008 10.1953H2.99348C3.38573 10.1953 3.70356 10.5233 3.70356 10.928V15.2666C3.70356 15.6714 3.38573 15.9993 2.99348 15.9993H1.21008C0.817834 15.9993 0.5 15.6714 0.5 15.2666V10.928C0.5 10.5233 0.817834 10.1953 1.21008 10.1953Z" fill="#6270F4"/>
<path d="M3.70312 14.9529C3.70312 14.9529 7.00002 15.9588 8.50469 15.9992C10.0094 16.0395 14.9951 14.3426 15.4062 13.2924C15.8174 12.2422 14.787 11.5603 14.1235 11.8934C13.6632 12.1251 12.2266 12.7901 11.5292 12.9814C11.5292 12.9814 11.7915 12.8239 12.0828 12.5766C12.3755 12.3294 12.5899 11.6228 12.3603 11.1361C11.8066 9.96224 10.0812 11.3781 9.40017 11.0111C8.7191 10.6441 7.37713 9.46903 5.5622 10.1952C3.74601 10.9213 3.70312 10.9187 3.70312 10.9187V14.9529Z" fill="#E6E8EA"/>
</g>
<defs>
<clipPath id="clip0_1876_24342">
<rect width="15" height="16" fill="white" transform="translate(0.5)"/>
</clipPath>
</defs>
</svg>
