<svg width="24" height="24" viewBox="0 0 24 24" fill="none" xmlns="http://www.w3.org/2000/svg">
<rect width="24" height="24" rx="12" fill="white"/>
<g clip-path="url(#clip0_3176_63471)">
<path d="M10.5883 4.71213V13.6047C10.5883 13.9974 10.2759 14.3168 9.89179 14.3168C9.50771 14.3168 9.19531 13.9974 9.19531 13.6047V4.71213C9.19531 4.31942 9.50771 4 9.89179 4C10.2759 4 10.5883 4.31942 10.5883 4.71213Z" fill="#FFA943"/>
<path d="M15.1755 5.80093L13.7217 7.1436L15.1755 8.48626C15.4325 8.72272 15.2675 9.15829 14.9226 9.15829H9.19531V5.12891H14.9226C15.2688 5.12891 15.4325 5.56448 15.1755 5.80093Z" fill="#6270F4"/>
<path d="M10.3366 19.8385C10.3014 19.8316 10.2662 19.8233 10.2324 19.8164C10.2676 19.8247 10.3027 19.8316 10.3366 19.8385Z" fill="#27C590"/>
<path d="M11.172 19.9622C11.1355 19.9595 11.099 19.9553 11.0625 19.9512C11.099 19.9553 11.1355 19.9581 11.172 19.9622Z" fill="#27C590"/>
<path d="M13.2712 19.8867C13.2158 19.8964 13.159 19.9061 13.1035 19.9144C13.1603 19.9061 13.2158 19.8964 13.2712 19.8867Z" fill="#27C590"/>
<path d="M12.877 19.9434C12.8242 19.9503 12.7728 19.9558 12.7188 19.9613C12.7715 19.9558 12.8242 19.9489 12.877 19.9434Z" fill="#27C590"/>
<path d="M11.5568 19.9913C11.5203 19.9899 11.4838 19.9871 11.4473 19.9844C11.4838 19.9871 11.5203 19.9885 11.5568 19.9913Z" fill="#27C590"/>
<path d="M12.4613 19.9805C12.418 19.9832 12.3734 19.9874 12.3301 19.9901C12.3747 19.9874 12.418 19.9846 12.4613 19.9805Z" fill="#27C590"/>
<path d="M4.36437 14.6935C4.28052 14.4736 4.20749 14.2496 4.14258 14.0215C4.20749 14.2496 4.28187 14.4736 4.36437 14.6935Z" fill="#27C590"/>
<path d="M6.30511 17.6775C6.03058 17.4079 5.77498 17.1175 5.54102 16.8105C5.77633 17.1175 6.03193 17.4079 6.30511 17.6775Z" fill="#27C590"/>
<path d="M8.41481 19.183C8.41481 19.183 8.41346 19.183 8.41211 19.1816C8.41211 19.1816 8.41346 19.1816 8.41481 19.183Z" fill="#27C590"/>
<path d="M9.18015 19.5114C9.14634 19.4989 9.11389 19.4865 9.08008 19.4727C9.11389 19.4851 9.14634 19.4989 9.18015 19.5114Z" fill="#27C590"/>
<path d="M7.78202 18.8327C7.75226 18.8147 7.72116 18.7967 7.69141 18.7773C7.72116 18.7967 7.75091 18.8147 7.78202 18.8327Z" fill="#27C590"/>
<path d="M8.10113 19.0174C8.07002 19.0008 8.03892 18.9828 8.00781 18.9648C8.03892 18.9828 8.07002 18.9994 8.10113 19.0174Z" fill="#27C590"/>
<path d="M16.8683 18.2891C16.7952 18.3458 16.7209 18.4024 16.6465 18.4564C16.7209 18.4011 16.7952 18.3458 16.8683 18.2891Z" fill="#27C590"/>
<path d="M17.6624 14.1862C15.1456 14.8637 14.9901 15.2633 12.4531 14.6854C9.916 14.1074 9.44807 14.406 7.94693 14.8651C6.91777 15.179 6.00762 15.3809 4.68499 15.432C4.57545 15.2094 4.47538 14.9799 4.38477 14.7462C4.67282 15.4929 5.06366 16.187 5.5397 16.8093C7.6183 16.017 9.9755 15.6395 12.2002 16.0253C14.6196 16.4442 15.1456 15.8662 16.9605 15.6063C17.8125 15.4846 18.4847 15.6491 18.9567 15.8579C18.9026 15.952 18.8485 16.046 18.7903 16.1373C19.1744 15.5178 19.48 14.8458 19.6937 14.1295C19.1987 13.9857 18.5347 13.9511 17.6624 14.1862Z" fill="#6270F4"/>
<path d="M18.583 16.457C18.4694 16.6243 18.3504 16.7861 18.2246 16.9438C18.3504 16.7861 18.4694 16.623 18.583 16.457Z" fill="#27C590"/>
<path d="M18.779 16.1562C18.7249 16.2447 18.6681 16.3305 18.6113 16.4162C18.6695 16.3305 18.7249 16.2434 18.779 16.1562Z" fill="#27C590"/>
<path d="M14.3662 17.0608C12.2781 17.3207 11.0691 16.6819 9.29345 16.9405C7.98434 17.1313 6.824 17.4963 6.30469 17.6747C6.64278 18.008 7.00657 18.3122 7.39741 18.5818C8.67676 18.0453 9.68969 18.1117 10.7364 18.3135C12.1091 18.5777 12.9611 18.8127 14.7746 18.1338C15.582 17.8323 16.4408 17.8918 17.1508 18.0536C17.5362 17.7217 17.8919 17.3539 18.2124 16.9557C17.2955 16.6473 16.0905 16.8464 14.3649 17.0608H14.3662Z" fill="#6270F4"/>
<path d="M16.574 18.5078C16.5009 18.559 16.4279 18.6101 16.3535 18.6599C16.4279 18.6101 16.5009 18.5604 16.574 18.5078Z" fill="#27C590"/>
<path d="M16.2706 18.7148C16.1976 18.7619 16.1246 18.8089 16.0488 18.8531C16.1232 18.8075 16.1976 18.7619 16.2706 18.7148Z" fill="#27C590"/>
<path d="M14.0301 19.7188C13.9706 19.7353 13.9111 19.7506 13.8516 19.7644C13.9111 19.7492 13.9719 19.734 14.0301 19.7188Z" fill="#27C590"/>
<path d="M17.1525 18.0566C17.0768 18.1216 16.9984 18.1852 16.9199 18.2488C16.9984 18.1866 17.0768 18.123 17.1525 18.0566Z" fill="#27C590"/>
<path d="M14.7554 19.4844C14.6892 19.5093 14.6229 19.5314 14.5566 19.5549C14.6229 19.5314 14.6905 19.5093 14.7554 19.4844Z" fill="#27C590"/>
<path d="M15.6476 19.0781C15.5691 19.1196 15.4893 19.1611 15.4082 19.2012C15.4893 19.1625 15.5678 19.121 15.6476 19.0781Z" fill="#27C590"/>
<path d="M15.9602 18.9043C15.8858 18.9485 15.8101 18.9914 15.7344 19.0329C15.8115 18.9914 15.8858 18.9485 15.9602 18.9043Z" fill="#27C590"/>
<path d="M4.38357 14.7445C4.37681 14.7279 4.37004 14.7113 4.36328 14.6934C4.37004 14.71 4.37681 14.7279 4.38357 14.7445Z" fill="#75DBB6"/>
<path d="M4.14243 14.0227C4.13161 13.9854 4.12215 13.9494 4.11133 13.9121C4.12079 13.9494 4.13161 13.9854 4.14243 14.0227Z" fill="#75DBB6"/>
<path d="M20 12.6023C18.653 12.3949 17.5874 12.8485 16.3756 12.9508C14.7176 13.0905 13.2733 12.0727 11.4787 12.1529C9.68405 12.2331 8.55211 12.5526 7.36202 12.9314C6.50325 13.2052 4.85335 13.3739 4 13.4472C4.03246 13.6049 4.07032 13.7597 4.11225 13.9132C4.12171 13.9505 4.13253 13.9865 4.14335 14.0238C4.20827 14.252 4.28265 14.476 4.36514 14.6959C4.3719 14.7125 4.37867 14.7304 4.38543 14.747C4.47604 14.9807 4.57611 15.2102 4.68566 15.4329C6.00964 15.3817 6.91843 15.1798 7.9476 14.8659C9.45009 14.4069 9.91801 14.1082 12.4537 14.6862C14.9894 15.2642 15.1463 14.8659 17.6631 14.187C18.5367 13.9519 19.1994 13.9851 19.6944 14.1303C19.8404 13.6394 19.9432 13.1292 19.9986 12.6051L20 12.6023Z" fill="#D0DEF7"/>
<path d="M18.2129 16.9558C18.2129 16.9558 18.2197 16.9475 18.2224 16.9434C18.2183 16.9475 18.2156 16.9517 18.2129 16.9558Z" fill="#75DBB6"/>
<path d="M18.7915 16.1367C18.7915 16.1367 18.7834 16.1505 18.7793 16.1561C18.7834 16.1492 18.7874 16.1422 18.7915 16.1367Z" fill="#75DBB6"/>
<path d="M16.9599 15.6065C15.145 15.8665 14.6189 16.4445 12.1995 16.0255C9.97487 15.6397 7.61902 16.0172 5.53906 16.8095C5.77438 17.1165 6.02998 17.4069 6.30316 17.6765C6.82247 17.4982 7.98281 17.1331 9.29192 16.9423C11.0676 16.6823 12.2766 17.3212 14.3647 17.0626C16.0903 16.8483 17.2953 16.6491 18.2122 16.9575C18.2163 16.9533 18.219 16.9492 18.2217 16.945C18.3474 16.7874 18.4665 16.6256 18.5801 16.4583C18.5895 16.4445 18.599 16.432 18.6085 16.4182C18.6666 16.3325 18.7221 16.2454 18.7762 16.1583C18.7802 16.1513 18.7843 16.1444 18.7883 16.1389C18.8451 16.0462 18.9006 15.9536 18.9547 15.8596C18.4827 15.6508 17.8106 15.4862 16.9586 15.6079L16.9599 15.6065Z" fill="#D0DEF7"/>
<path d="M11.5566 19.9902C11.6811 19.9958 11.8068 19.9999 11.9326 19.9999C12.0651 19.9999 12.1977 19.9958 12.3275 19.9902C12.1963 19.9971 12.0651 19.9999 11.9326 19.9999C11.8001 19.9999 11.6811 19.9958 11.5566 19.9902Z" fill="#75DBB6"/>
<path d="M16.9172 18.248C16.901 18.2619 16.8834 18.2757 16.8672 18.2881C16.8848 18.2743 16.901 18.2605 16.9172 18.248Z" fill="#75DBB6"/>
<path d="M16.6459 18.4551C16.6216 18.4731 16.5986 18.4896 16.5742 18.5076C16.5986 18.491 16.6216 18.4731 16.6459 18.4551Z" fill="#75DBB6"/>
<path d="M13.8504 19.7656C13.7855 19.7822 13.7206 19.7974 13.6543 19.8113C13.7206 19.7974 13.7855 19.7808 13.8504 19.7656Z" fill="#75DBB6"/>
<path d="M16.354 18.6582C16.3269 18.6762 16.2985 18.6942 16.2715 18.7121C16.2999 18.6942 16.3269 18.6762 16.354 18.6582Z" fill="#75DBB6"/>
<path d="M9.08267 19.4712C9.00018 19.4394 8.91903 19.4062 8.83789 19.373C8.91903 19.4076 9.00018 19.4408 9.08267 19.4712Z" fill="#75DBB6"/>
<path d="M9.51838 19.6259C9.40478 19.59 9.29254 19.5499 9.18164 19.5098C9.29254 19.5512 9.40478 19.59 9.51838 19.6259Z" fill="#75DBB6"/>
<path d="M8.73923 19.3329C8.63104 19.2859 8.52285 19.2361 8.41602 19.1836C8.52285 19.2361 8.62969 19.2845 8.73923 19.3329Z" fill="#75DBB6"/>
<path d="M9.86574 19.7279C9.74944 19.6961 9.63313 19.6643 9.51953 19.627C9.63448 19.6629 9.74944 19.6961 9.86574 19.7279Z" fill="#75DBB6"/>
<path d="M13.1022 19.9121C13.0265 19.9232 12.9507 19.9329 12.875 19.9411C12.9507 19.9315 13.0265 19.9232 13.1022 19.9121Z" fill="#75DBB6"/>
<path d="M14.5561 19.5547C14.5033 19.5727 14.4506 19.592 14.3965 19.61C14.4506 19.592 14.5033 19.574 14.5561 19.5547Z" fill="#75DBB6"/>
<path d="M7.39648 18.584C7.49386 18.6504 7.59258 18.7153 7.6913 18.7776C7.59123 18.7153 7.4925 18.6504 7.39648 18.584Z" fill="#75DBB6"/>
<path d="M14.2105 19.666C14.151 19.684 14.0902 19.702 14.0293 19.7186C14.0902 19.702 14.1497 19.684 14.2105 19.666Z" fill="#75DBB6"/>
<path d="M8.41201 19.1807C8.30652 19.1282 8.20239 19.0743 8.09961 19.0176C8.20239 19.0743 8.30652 19.1296 8.41201 19.1807Z" fill="#75DBB6"/>
<path d="M12.7192 19.9609C12.634 19.9692 12.5475 19.9748 12.4609 19.9817C12.5475 19.9761 12.634 19.9706 12.7192 19.9609Z" fill="#75DBB6"/>
<path d="M15.4085 19.2012C15.3936 19.2081 15.3788 19.215 15.3652 19.2219C15.3801 19.215 15.395 19.2081 15.4085 19.2012Z" fill="#75DBB6"/>
<path d="M14.7757 18.1352C12.9608 18.8128 12.1101 18.5791 10.7375 18.315C9.69072 18.1131 8.67779 18.0467 7.39844 18.5832C7.49581 18.6496 7.59453 18.7146 7.69326 18.7768C7.72301 18.7962 7.75276 18.8141 7.78387 18.8321C7.85825 18.8777 7.93398 18.922 8.00971 18.9649C8.04082 18.9828 8.07192 18.9994 8.10303 19.0174C8.20581 19.0741 8.30994 19.1294 8.41543 19.1806C8.41543 19.1806 8.41678 19.1806 8.41813 19.182C8.52497 19.2345 8.63181 19.2829 8.74135 19.3313C8.77381 19.3451 8.80626 19.359 8.83872 19.3728C8.91986 19.4073 9.00101 19.4405 9.0835 19.471C9.11731 19.4834 9.14977 19.4972 9.18358 19.5097C9.29447 19.5512 9.40672 19.5899 9.52032 19.6258C9.52032 19.6258 9.52167 19.6258 9.52303 19.6258C9.63663 19.6618 9.75293 19.695 9.86923 19.7268C9.90304 19.7364 9.93821 19.7447 9.97202 19.753C10.0586 19.7752 10.1465 19.7959 10.2344 19.8153C10.2695 19.8236 10.3047 19.8305 10.3385 19.8374C10.5765 19.8858 10.8186 19.9245 11.0634 19.9508C11.0999 19.9549 11.1364 19.9577 11.1729 19.9618C11.2635 19.9701 11.3555 19.977 11.4475 19.9826C11.484 19.9853 11.5205 19.9867 11.557 19.9895C11.6814 19.995 11.8072 19.9992 11.933 19.9992C12.0655 19.9992 12.198 19.995 12.3279 19.9895C12.3725 19.9867 12.4158 19.984 12.459 19.9798C12.5456 19.9743 12.6321 19.9688 12.7173 19.9591C12.7701 19.9535 12.8228 19.9466 12.8756 19.9411C12.9513 19.9328 13.027 19.9231 13.1028 19.9121C13.1596 19.9038 13.215 19.8941 13.2705 19.8844C13.3408 19.872 13.4111 19.8595 13.4801 19.8457C13.5382 19.8346 13.5964 19.8222 13.6545 19.8097C13.7208 19.7959 13.7857 19.7793 13.8506 19.7641C13.9101 19.7489 13.971 19.7337 14.0292 19.7185C14.09 19.7019 14.1495 19.6839 14.2104 19.6659C14.2726 19.648 14.3348 19.6286 14.3956 19.6092C14.4497 19.5913 14.5025 19.5733 14.5552 19.5539C14.6215 19.5304 14.6891 19.5083 14.754 19.4834C14.7784 19.4737 14.8014 19.464 14.8257 19.4544C15.0083 19.3825 15.1881 19.305 15.364 19.2207C15.3788 19.2138 15.3937 19.2068 15.4072 19.1999C15.4884 19.1612 15.5668 19.1197 15.6466 19.0769C15.675 19.0617 15.7048 19.0464 15.7332 19.0312C15.8089 18.9898 15.8846 18.9469 15.959 18.9026C15.9888 18.8847 16.0185 18.8681 16.0483 18.8501C16.1226 18.8045 16.197 18.7588 16.27 18.7118C16.2984 18.6938 16.3255 18.6759 16.3525 18.6579C16.4269 18.6081 16.5 18.5583 16.573 18.5058C16.5973 18.4892 16.6203 18.4712 16.6447 18.4532C16.719 18.3979 16.7934 18.3426 16.8664 18.2859C16.884 18.2721 16.9003 18.2583 16.9165 18.2458C16.9949 18.1836 17.0734 18.12 17.1491 18.0536C16.4391 17.8918 15.5803 17.8324 14.773 18.1338L14.7757 18.1352Z" fill="#D0DEF7"/>
</g>
<defs>
<clipPath id="clip0_3176_63471">
<rect width="16" height="16" fill="white" transform="translate(4 4)"/>
</clipPath>
</defs>
</svg>
