<svg width="16" height="17" viewBox="0 0 16 17" fill="none" xmlns="http://www.w3.org/2000/svg">
<path d="M8.00036 14.5129C6.4337 13.1275 5.25359 11.8354 4.46003 10.6366C3.66636 9.43795 3.26953 8.34717 3.26953 7.36428C3.26953 5.95395 3.72875 4.79067 4.6472 3.87445C5.56553 2.95822 6.68325 2.50011 8.00036 2.50011C8.2747 2.50011 8.54414 2.52083 8.8087 2.56228C9.07325 2.60372 9.32731 2.66889 9.57086 2.75778L6.3337 6.01161V8.83345H9.15553L12.4184 5.57061C12.5184 5.85095 12.5955 6.13811 12.6497 6.43211C12.704 6.72611 12.7312 7.03684 12.7312 7.36428C12.7312 8.34717 12.3344 9.43795 11.5407 10.6366C10.7471 11.8354 9.56703 13.1275 8.00036 14.5129ZM7.92337 7.24378V6.66428L11.4414 3.14628L12.0209 3.72578L8.50286 7.24378H7.92337ZM12.4875 3.25911L11.908 2.67961L12.2722 2.31545C12.3431 2.24456 12.4239 2.20267 12.5145 2.18978C12.6051 2.177 12.6816 2.20183 12.744 2.26428L12.9029 2.42311C12.9653 2.48556 12.9901 2.56206 12.9774 2.65261C12.9645 2.74328 12.9226 2.82406 12.8517 2.89495L12.4875 3.25911Z" fill="#8A949E"/>
</svg>
