<svg width="14" height="14" viewBox="0 0 14 14" fill="none" xmlns="http://www.w3.org/2000/svg">
<path d="M6.54199 10.7917H7.50033V7.45841H10.792V6.50008H7.50033V3.20841H6.54199V6.50008H3.20866V7.45841H6.54199V10.7917ZM2.16699 13.4584C1.70269 13.4584 1.31581 13.3036 1.00637 12.994C0.696784 12.6846 0.541992 12.2977 0.541992 11.8334V2.16675C0.541992 1.70258 0.696784 1.31571 1.00637 1.00612C1.31581 0.696539 1.70269 0.541748 2.16699 0.541748H11.8337C12.2978 0.541748 12.6847 0.696539 12.9943 1.00612C13.3039 1.31571 13.4587 1.70258 13.4587 2.16675V11.8334C13.4587 12.2977 13.3039 12.6846 12.9943 12.994C12.6847 13.3036 12.2978 13.4584 11.8337 13.4584H2.16699ZM2.16699 12.5001H11.8337C12.0003 12.5001 12.1531 12.4306 12.292 12.2917C12.4309 12.1529 12.5003 12.0001 12.5003 11.8334V2.16675C12.5003 2.00008 12.4309 1.8473 12.292 1.70841C12.1531 1.56953 12.0003 1.50008 11.8337 1.50008H2.16699C2.00033 1.50008 1.84755 1.56953 1.70866 1.70841C1.56977 1.8473 1.50033 2.00008 1.50033 2.16675V11.8334C1.50033 12.0001 1.56977 12.1529 1.70866 12.2917C1.84755 12.4306 2.00033 12.5001 2.16699 12.5001Z" fill="#6D7882"/>
</svg>
