<svg width="16" height="14" viewBox="0 0 16 14" fill="none" xmlns="http://www.w3.org/2000/svg">
<g clip-path="url(#clip0_1876_24304)">
<path d="M5.719 0.5C2.56108 0.5 0 3.04031 0 6.17264C0 9.30496 2.56108 11.8453 5.719 11.8453C8.87693 11.8453 11.438 9.30496 11.438 6.17264C11.438 3.04031 8.87815 0.5 5.719 0.5ZM5.719 8.74813C4.28558 8.74813 3.12246 7.59565 3.12246 6.17264C3.12246 4.74963 4.28436 3.59714 5.719 3.59714C7.15365 3.59714 8.31555 4.74963 8.31555 6.17264C8.31555 7.59565 7.15365 8.74813 5.719 8.74813Z" fill="#EF6250"/>
<path d="M5.7183 10.976C5.21195 10.976 4.81324 10.68 4.4928 10.4434C4.33258 10.3245 4.18214 10.2129 4.0525 10.1595C3.91184 10.1013 3.71738 10.0722 3.51191 10.0419C3.10218 9.98 2.63742 9.91085 2.29374 9.56996C1.95007 9.22907 1.87913 8.76808 1.81675 8.36167C1.78618 8.15787 1.75682 7.96498 1.69812 7.82547C1.6443 7.69687 1.53178 7.54766 1.41192 7.38874C1.1722 7.0709 0.875 6.67541 0.875 6.17317C0.875 5.67093 1.17343 5.27545 1.41192 4.95761C1.53178 4.79869 1.6443 4.64947 1.69812 4.52088C1.75682 4.38137 1.78618 4.18848 1.81675 3.98467C1.87913 3.57827 1.94884 3.11727 2.29252 2.77638C2.6362 2.43549 3.10096 2.36513 3.51068 2.30326C3.71616 2.27293 3.91062 2.2426 4.05127 2.18558C4.18092 2.13221 4.33135 2.0206 4.49157 1.90171C4.81201 1.66393 5.21073 1.36914 5.71707 1.36914C6.22342 1.36914 6.62213 1.66515 6.94257 1.90171C7.10279 2.0206 7.25323 2.13221 7.38287 2.18558C7.52352 2.24381 7.71799 2.27293 7.92346 2.30326C8.33319 2.36513 8.79795 2.43428 9.14163 2.77638C9.4853 3.11849 9.55624 3.57827 9.61739 3.98467C9.64797 4.18848 9.67855 4.38137 9.73603 4.52088C9.78984 4.64947 9.90236 4.79869 10.0222 4.95761C10.2619 5.27545 10.5591 5.67093 10.5591 6.17317C10.5591 6.67541 10.2607 7.0709 10.0222 7.38874C9.90236 7.54766 9.78984 7.69687 9.73603 7.82547C9.67732 7.96498 9.64797 8.15787 9.61739 8.36167C9.55502 8.76808 9.4853 9.22907 9.14163 9.56996C8.79795 9.91085 8.33319 9.98122 7.92346 10.0431C7.71799 10.0734 7.52352 10.1025 7.38287 10.1608C7.25323 10.2141 7.10279 10.3257 6.94257 10.4446C6.62213 10.6824 6.22342 10.9772 5.71707 10.9772L5.7183 10.976ZM5.7183 2.33844C5.53728 2.33844 5.31469 2.50343 5.07864 2.67812C4.87806 2.82733 4.67014 2.9814 4.42797 3.08088C4.17602 3.184 3.91307 3.22403 3.65867 3.26164C3.38593 3.30288 3.10218 3.34534 2.98599 3.46059C2.8698 3.57584 2.827 3.85729 2.78541 4.12782C2.74627 4.38015 2.70714 4.64219 2.60318 4.89088C2.50289 5.13109 2.34756 5.33732 2.19712 5.53627C2.021 5.77041 1.85467 5.9912 1.85467 6.17075C1.85467 6.35029 2.021 6.57108 2.19712 6.80522C2.34756 7.00417 2.50289 7.21041 2.60318 7.45061C2.70714 7.70051 2.7475 7.96134 2.78541 8.21367C2.827 8.48541 2.8698 8.76565 2.98599 8.8809C3.10218 8.99615 3.38593 9.03861 3.65867 9.07985C3.91307 9.11867 4.17725 9.15749 4.42797 9.26061C4.67014 9.36009 4.87806 9.51416 5.07864 9.66337C5.31469 9.83807 5.53728 10.0031 5.7183 10.0031C5.89931 10.0031 6.1219 9.83807 6.35795 9.66337C6.55853 9.51416 6.76645 9.36009 7.00862 9.26061C7.26057 9.15749 7.52352 9.11746 7.77792 9.07985C8.05188 9.03861 8.33441 8.99615 8.4506 8.8809C8.56679 8.76565 8.6096 8.4842 8.65118 8.21367C8.69032 7.96134 8.72946 7.6993 8.83342 7.45061C8.93371 7.21041 9.08903 7.00417 9.23947 6.80522C9.41559 6.57108 9.58193 6.35029 9.58193 6.17075C9.58193 5.9912 9.41559 5.77041 9.23947 5.53627C9.08903 5.33732 8.93371 5.13109 8.83342 4.89088C8.72946 4.64098 8.6891 4.38015 8.65118 4.12782C8.6096 3.85608 8.56679 3.57584 8.4506 3.46059C8.33441 3.34534 8.05066 3.30288 7.77792 3.26164C7.52352 3.22282 7.25935 3.184 7.00862 3.08088C6.76645 2.9814 6.55853 2.82733 6.35795 2.67812C6.1219 2.50343 5.89931 2.33844 5.7183 2.33844Z" fill="#FF8D8D"/>
<path d="M14.5971 5.38817C12.7259 3.53207 9.6927 3.53207 7.82142 5.38817C5.95015 7.24427 5.95015 10.2529 7.82142 12.109C9.6927 13.9651 12.7259 13.9651 14.5971 12.109C16.4684 10.2529 16.4684 7.24427 14.5971 5.38817ZM9.44197 10.5016C8.46597 9.53347 8.46597 7.96367 9.44197 6.99558C10.418 6.0275 12.0006 6.0275 12.9766 6.99558C13.9526 7.96367 13.9526 9.53347 12.9766 10.5016C12.0006 11.4696 10.418 11.4696 9.44197 10.5016Z" fill="white"/>
<path d="M15.9992 8.74805H13.7072C13.7072 9.38252 13.4626 10.017 12.9746 10.501L14.5952 12.1084C15.5308 11.1804 15.998 9.96483 15.998 8.74805H15.9992Z" fill="#EF6250"/>
<path d="M12.9763 6.99497L14.5968 5.38756C13.6612 4.45951 12.4357 3.99609 11.209 3.99609V6.26952C11.8486 6.26952 12.4883 6.51093 12.9763 6.99619V6.99497Z" fill="#EF6250"/>
<path d="M9.44136 6.99413L7.82081 5.38672C6.88518 6.31477 6.41797 7.53034 6.41797 8.74711H8.70997C8.70997 8.11264 8.95458 7.47817 9.44258 6.99413H9.44136Z" fill="#EF6250"/>
<path d="M11.2082 11.2267C10.5685 11.2267 9.92886 10.984 9.44086 10.5L7.82031 12.1074C8.75595 13.0355 9.98145 13.4989 11.2082 13.4989V11.2255V11.2267Z" fill="#EF6250"/>
</g>
<defs>
<clipPath id="clip0_1876_24304">
<rect width="16" height="13" fill="white" transform="translate(0 0.5)"/>
</clipPath>
</defs>
</svg>
