<svg width="24" height="24" viewBox="0 0 24 24" fill="none" xmlns="http://www.w3.org/2000/svg">
<path d="M18.6504 17C19.2501 17.0001 19.7122 17.1669 20.0371 17.5C20.2354 17.7033 20.5567 17.8436 21 17.9229V19C21 19.55 20.8038 20.0204 20.4121 20.4121C20.0204 20.8038 19.55 21 19 21H5C4.45 21 3.97956 20.8038 3.58789 20.4121C3.19622 20.0204 3 19.55 3 19V17.917C3.42079 17.8368 3.73352 17.699 3.9375 17.5C4.27909 17.1667 4.7498 17.0001 5.34961 17C5.94955 17 6.41231 17.1667 6.7373 17.5C7.0623 17.8333 7.71686 18 8.7002 18C9.68332 18 10.3206 17.8332 10.6123 17.5C10.904 17.1667 11.3667 17 12 17C12.5999 17 13.0705 17.1668 13.4121 17.5C13.7537 17.8333 14.3998 18 15.3496 18C16.3328 18 16.9787 17.8332 17.2871 17.5C17.5954 17.1667 18.0504 17 18.6504 17ZM19 3C19.55 3 20.0204 3.19622 20.4121 3.58789C20.8038 3.97956 21 4.45 21 5V15.79C20.8466 15.7138 20.7089 15.618 20.5879 15.5C20.2463 15.1667 19.6002 15 18.6504 15C17.6672 15 17.0213 15.1668 16.7129 15.5C16.4046 15.8333 15.9331 16 15.2998 16C14.7166 16 14.2581 15.8333 13.9248 15.5C13.5914 15.1667 12.9499 15 12 15C11.0167 15 10.3708 15.1667 10.0625 15.5C9.75423 15.8333 9.28353 15.9999 8.65039 16C8.05045 16 7.58769 15.8333 7.2627 15.5C6.9377 15.1667 6.29961 15 5.34961 15C4.3665 15 3.7204 15.1667 3.41211 15.5C3.29727 15.6241 3.1599 15.7249 3 15.8027V5C3 4.45 3.19622 3.97956 3.58789 3.58789C3.97956 3.19622 4.45 3 5 3H19ZM12.6748 10.1748L10.6748 8.1748L6.25 12.5996L7.65039 14L10.6748 11L12.6748 13L17.75 7.90039L16.3496 6.5L12.6748 10.1748Z" fill="#6D7882"/>
</svg>
