<svg width="14" height="14" viewBox="0 0 14 14" fill="none" xmlns="http://www.w3.org/2000/svg">
<path d="M3.5 10.5H10.5V9.5H3.5V10.5ZM7 8.11827L9.50289 5.61539L8.78846 4.90096L7.5 6.20423V3.03846H6.5V6.20423L5.21154 4.90096L4.49712 5.61539L7 8.11827ZM7.00654 14C6.04359 14 5.13667 13.8178 4.28577 13.4535C3.43487 13.0891 2.69013 12.5878 2.05154 11.9494C1.41295 11.3111 0.911346 10.5669 0.546731 9.71692C0.182243 8.86705 0 7.95891 0 6.9925C0 6.02609 0.182179 5.12064 0.546538 4.27615C0.910897 3.43167 1.41224 2.69013 2.05058 2.05154C2.68891 1.41295 3.43308 0.911346 4.28308 0.546731C5.13295 0.182243 6.04109 0 7.0075 0C7.97391 0 8.87936 0.182179 9.72385 0.546538C10.5683 0.910897 11.3099 1.41224 11.9485 2.05058C12.5871 2.68891 13.0887 3.43154 13.4533 4.27846C13.8178 5.12551 14 6.03051 14 6.99346C14 7.95641 13.8178 8.86333 13.4535 9.71423C13.0891 10.5651 12.5878 11.3099 11.9494 11.9485C11.3111 12.5871 10.5685 13.0887 9.72154 13.4533C8.87449 13.8178 7.96949 14 7.00654 14ZM7 13C8.66667 13 10.0833 12.4167 11.25 11.25C12.4167 10.0833 13 8.66667 13 7C13 5.33333 12.4167 3.91667 11.25 2.75C10.0833 1.58333 8.66667 1 7 1C5.33333 1 3.91667 1.58333 2.75 2.75C1.58333 3.91667 1 5.33333 1 7C1 8.66667 1.58333 10.0833 2.75 11.25C3.91667 12.4167 5.33333 13 7 13Z" fill="#6D7882"/>
</svg>
