<svg width="32" height="32" viewBox="0 0 32 32" fill="none" xmlns="http://www.w3.org/2000/svg">
<rect width="32" height="32" rx="16" fill="white"/>
<path d="M13.9352 14.0123C14.6639 14.0123 15.2798 13.7701 15.783 13.2856C16.2861 12.801 16.5377 12.2079 16.5377 11.5063C16.5377 10.8045 16.2861 10.2113 15.783 9.72688C15.2798 9.24229 14.6639 9 13.9352 9C13.2064 9 12.5905 9.24229 12.0874 9.72688C11.5842 10.2113 11.3326 10.8045 11.3326 11.5063C11.3326 12.2079 11.5842 12.801 12.0874 13.2856C12.5905 13.7701 13.2064 14.0123 13.9352 14.0123ZM13.936 12.8889C13.5396 12.8889 13.201 12.754 12.9202 12.4842C12.6396 12.2143 12.4992 11.8886 12.4992 11.507C12.4992 11.1253 12.6394 10.7992 12.9196 10.5288C13.1998 10.2586 13.538 10.1235 13.9344 10.1235C14.3308 10.1235 14.6694 10.2584 14.95 10.5283C15.2307 10.798 15.371 11.1238 15.371 11.5055C15.371 11.8872 15.2309 12.2132 14.9508 12.4835C14.6705 12.7537 14.3323 12.8889 13.936 12.8889ZM23 12.0687V10.9453L15.9094 10.9445V12.068L23 12.0687Z" fill="#03163A"/>
<path d="M12.1111 12.0687V10.9453L9 10.9445V12.068L12.1111 12.0687Z" fill="#03163A"/>
<path d="M18.6019 18.5062C19.3305 18.5062 19.9465 18.2639 20.4497 17.7795C20.9528 17.2949 21.2043 16.7018 21.2043 16.0001C21.2043 15.2983 20.9528 14.7052 20.4497 14.2207C19.9465 13.7361 19.3305 13.4938 18.6019 13.4938C17.8731 13.4938 17.2572 13.7361 16.7541 14.2207C16.2509 14.7052 15.9992 15.2983 15.9992 16.0001C15.9992 16.7018 16.2509 17.2949 16.7541 17.7795C17.2572 18.2639 17.8731 18.5062 18.6019 18.5062ZM18.6027 17.3827C18.2063 17.3827 17.8677 17.2478 17.5869 16.9781C17.3062 16.7082 17.1659 16.3824 17.1659 16.0008C17.1659 15.6191 17.306 15.2931 17.5863 15.0227C17.8664 14.7524 18.2047 14.6173 18.6011 14.6173C18.9975 14.6173 19.336 14.7522 19.6167 15.0221C19.8973 15.2919 20.0377 15.6176 20.0377 15.9993C20.0377 16.3811 19.8976 16.7071 19.6175 16.9773C19.3372 17.2476 18.9989 17.3827 18.6027 17.3827ZM23 16.5626V15.4391L20.5761 15.4384V16.5618L23 16.5626Z" fill="#03163A"/>
<path d="M16.7778 16.5626V15.4391L9 15.4384V16.5618L16.7778 16.5626Z" fill="#03163A"/>
<path d="M13.9352 23C14.6639 23 15.2798 22.7578 15.783 22.2733C16.2861 21.7887 16.5377 21.1956 16.5377 20.4939C16.5377 19.7921 16.2861 19.199 15.783 18.7146C15.2798 18.23 14.6639 17.9877 13.9352 17.9877C13.2064 17.9877 12.5905 18.23 12.0874 18.7146C11.5842 19.199 11.3326 19.7921 11.3326 20.4939C11.3326 21.1956 11.5842 21.7887 12.0874 22.2733C12.5905 22.7578 13.2064 23 13.9352 23ZM13.936 21.8765C13.5396 21.8765 13.201 21.7417 12.9202 21.4719C12.6396 21.202 12.4992 20.8763 12.4992 20.4947C12.4992 20.113 12.6394 19.7869 12.9196 19.5165C13.1998 19.2463 13.538 19.1111 13.9344 19.1111C14.3308 19.1111 14.6694 19.2461 14.95 19.516C15.2307 19.7857 15.371 20.1115 15.371 20.4932C15.371 20.8749 15.2309 21.2009 14.9508 21.4712C14.6705 21.7414 14.3323 21.8765 13.936 21.8765ZM23 21.0564V19.933L15.9094 19.9322V21.0557L23 21.0564Z" fill="#03163A"/>
<path d="M12.1111 21.0564V19.933L9 19.9322V21.0557L12.1111 21.0564Z" fill="#03163A"/>
</svg>
