<svg width="24" height="24" viewBox="0 0 24 24" fill="none" xmlns="http://www.w3.org/2000/svg">
<path d="M9.70117 13.8115V13.8125H14.2441L20.0283 20.9873H3.0127V12.0156L9.70117 13.8115ZM4.78711 19.2129H16.5732L16.5547 19.1914L13.3594 15.5918L13.3643 15.5879H8.89844L4.80371 14.418L4.78711 14.4131V19.2129ZM16.2695 11.0898L20.083 15.5986L18.751 16.9307L15.3857 12.8691L15.3916 12.8652H15.376L10.9414 12.8643L11.5615 11.5557L11.5625 11.5547L11.7402 11.0898H16.2695ZM16.5 6.6123C17.0689 6.6123 17.5399 6.67593 17.9131 6.80273C18.2876 6.93007 18.6328 7.07227 18.9473 7.22949C19.2624 7.38708 19.5774 7.53386 19.8926 7.66895C20.2063 7.80338 20.5713 7.86975 20.9873 7.87109V9.60156C20.4238 9.60057 19.9531 9.53377 19.5752 9.40039C19.1932 9.26557 18.8447 9.12009 18.5303 8.96289C18.2152 8.80534 17.9076 8.66273 17.6074 8.53516C17.3055 8.40682 16.9361 8.34277 16.5 8.34277C16.0788 8.34277 15.7136 8.40692 15.4043 8.53516C15.0965 8.66279 14.7883 8.80524 14.4805 8.96289C14.1737 9.12003 13.8292 9.2656 13.4473 9.40039C13.0666 9.53476 12.5842 9.60254 12 9.60254C11.4158 9.60254 10.9334 9.53476 10.5527 9.40039C10.1708 9.2656 9.82634 9.12003 9.51953 8.96289C9.21184 8.80529 8.90765 8.66276 8.60742 8.53516C8.30545 8.40682 7.93615 8.34277 7.5 8.34277C7.07883 8.34277 6.71363 8.40692 6.4043 8.53516C6.09655 8.66276 5.78493 8.80529 5.46973 8.96289C5.15533 9.12009 4.80677 9.26557 4.4248 9.40039C4.0469 9.53377 3.57617 9.60057 3.0127 9.60156V7.87109C3.44348 7.86979 3.81267 7.80349 4.11914 7.66895C4.4267 7.53391 4.7377 7.38701 5.05273 7.22949C5.36714 7.07229 5.71564 6.93007 6.09766 6.80273C6.47849 6.6758 6.94591 6.6123 7.5 6.6123C8.06919 6.6123 8.53662 6.67585 8.90234 6.80273C9.26936 6.93007 9.61036 7.07227 9.9248 7.22949C10.24 7.38707 10.5549 7.53387 10.8701 7.66895C11.187 7.80476 11.5638 7.87207 12 7.87207C12.4362 7.87207 12.813 7.80476 13.1299 7.66895C13.4451 7.53387 13.76 7.38707 14.0752 7.22949C14.3896 7.07227 14.7348 6.93007 15.1094 6.80273C15.4826 6.67591 15.9461 6.6123 16.5 6.6123ZM16.5 3.0127C17.069 3.0127 17.5399 3.07629 17.9131 3.20312C18.2876 3.33046 18.6328 3.47267 18.9473 3.62988C19.2624 3.78744 19.5774 3.93427 19.8926 4.06934C20.2062 4.20373 20.5713 4.27014 20.9873 4.27148V6.00195C20.4238 6.00096 19.9531 5.93416 19.5752 5.80078C19.1932 5.66595 18.8447 5.51952 18.5303 5.3623C18.2152 5.20477 17.9076 5.06213 17.6074 4.93457C17.3055 4.80624 16.9361 4.74219 16.5 4.74219C16.0789 4.74219 15.7136 4.80639 15.4043 4.93457C15.0965 5.06219 14.7882 5.20467 14.4805 5.3623C14.1736 5.51949 13.8293 5.66595 13.4473 5.80078C13.0666 5.93515 12.5842 6.00293 12 6.00293C11.4158 6.00293 10.9334 5.93515 10.5527 5.80078C10.1707 5.66595 9.82642 5.51949 9.51953 5.3623C9.2118 5.20469 8.90769 5.06218 8.60742 4.93457C8.30546 4.80624 7.93613 4.74219 7.5 4.74219C7.07892 4.74219 6.71358 4.80639 6.4043 4.93457C6.09663 5.06214 5.78485 5.20475 5.46973 5.3623C5.1553 5.51952 4.80682 5.66595 4.4248 5.80078C4.0469 5.93416 3.57618 6.00096 3.0127 6.00195V4.27148C3.44348 4.27018 3.81267 4.20388 4.11914 4.06934C4.4267 3.93431 4.7377 3.78739 5.05273 3.62988C5.36712 3.47269 5.71566 3.33046 6.09766 3.20312C6.4785 3.07618 6.94588 3.0127 7.5 3.0127C8.06919 3.0127 8.53662 3.07624 8.90234 3.20312C9.26931 3.33045 9.61039 3.47268 9.9248 3.62988C10.2399 3.78743 10.555 3.93428 10.8701 4.06934C11.187 4.20511 11.5638 4.27246 12 4.27246C12.4362 4.27246 12.813 4.20511 13.1299 4.06934C13.445 3.93428 13.7601 3.78743 14.0752 3.62988C14.3896 3.47267 14.7348 3.33046 15.1094 3.20312C15.4826 3.07627 15.946 3.0127 16.5 3.0127Z" fill="#86AFF9" stroke="#86AFF9" stroke-width="0.025"/>
</svg>
