<svg width="24" height="24" viewBox="0 0 24 24" fill="none" xmlns="http://www.w3.org/2000/svg">
<path d="M12 2C14.1167 2 15.9796 2.74128 17.5879 4.22461C19.1962 5.70794 20 7.7002 20 10.2002C19.9999 11.8668 19.3376 13.6794 18.0127 15.6377C16.6877 17.596 14.6833 19.7167 12 22C9.31669 19.7167 7.3123 17.596 5.9873 15.6377C4.66236 13.6794 4.00005 11.8668 4 10.2002C4 7.7002 4.80379 5.70794 6.41211 4.22461C8.02044 2.74128 9.88333 2 12 2ZM11 10V15H13V10H11ZM12 7C11.7167 7 11.4788 7.09544 11.2871 7.28711C11.0954 7.47878 11 7.71667 11 8C11 8.28333 11.0954 8.52122 11.2871 8.71289C11.4788 8.90456 11.7167 9 12 9C12.2833 9 12.5212 8.90456 12.7129 8.71289C12.9046 8.52122 13 8.28333 13 8C13 7.71667 12.9046 7.47878 12.7129 7.28711C12.5212 7.09544 12.2833 7 12 7Z" fill="#6D7882"/>
</svg>
