<svg width="16" height="16" viewBox="0 0 16 16" fill="none" xmlns="http://www.w3.org/2000/svg">
<path d="M1.03024 15V1H15.0166V15H1.03024ZM2.80629 13.2222H13.2405V2.77778H2.80629V13.2222Z" fill="#1E2124"/>
<path d="M3.9961 2C3.9961 3.10457 3.10154 4 1.99805 4C0.894557 4 0 3.10457 0 2C0 0.89543 0.894557 0 1.99805 0C3.10154 0 3.9961 0.89543 3.9961 2Z" fill="#1E2124"/>
<path d="M16 2C16 3.10457 15.1054 4 14.002 4C12.8985 4 12.0039 3.10457 12.0039 2C12.0039 0.89543 12.8985 0 14.002 0C15.1054 0 16 0.89543 16 2Z" fill="#1E2124"/>
<path d="M3.9961 14C3.9961 15.1046 3.10154 16 1.99805 16C0.894557 16 0 15.1046 0 14C0 12.8954 0.894557 12 1.99805 12C3.10154 12 3.9961 12.8954 3.9961 14Z" fill="#1E2124"/>
<path d="M16 14C16 15.1046 15.1054 16 14.002 16C12.8985 16 12.0039 15.1046 12.0039 14C12.0039 12.8954 12.8985 12 14.002 12C15.1054 12 16 12.8954 16 14Z" fill="#1E2124"/>
</svg>
