<svg width="16" height="16" viewBox="0 0 16 16" fill="none" xmlns="http://www.w3.org/2000/svg">
<g clip-path="url(#clip0_1876_24328)">
<path d="M8.06933 0H7.93067C3.55067 0 0 1.53333 0 7.93067V8.06933C0 14.4147 3.55067 16 7.93067 16H8.06933C12.4493 16 16 14.4667 16 8.06933V7.93067C16 1.48133 12.4493 0 8.06933 0Z" fill="#6270F4"/>
<path d="M12.3305 9.19766C11.7825 9.19766 11.3958 8.991 11.1438 8.715C10.8212 8.96566 10.3772 9.19766 9.84382 9.19766C9.08382 9.19766 7.83582 8.55633 7.72649 6.83633C7.68249 6.14833 7.95715 5.515 8.27049 5.02833C7.24782 5.24833 6.76382 5.991 6.57982 6.367C6.54115 6.44566 6.50115 6.531 6.45982 6.62033C6.08515 7.41366 5.51982 8.611 4.44782 9.00433C3.51849 9.34566 2.44115 8.843 2.32115 8.78433C2.05582 8.655 1.94649 8.33633 2.07582 8.071C2.20515 7.807 2.52382 7.69633 2.78782 7.82433C2.98915 7.92033 3.65449 8.159 4.07982 8.00166C4.74249 7.759 5.17715 6.83633 5.49582 6.163C5.53982 6.06966 5.58249 5.98033 5.62249 5.89766C5.88915 5.35233 6.95449 3.603 9.50249 3.939C9.71049 3.967 9.88249 4.11233 9.94249 4.31366C10.0025 4.51366 9.94115 4.731 9.78249 4.86966C9.49049 5.127 8.74116 5.97233 8.79182 6.76833C8.86249 7.88566 9.57582 8.12966 9.84382 8.12966C10.3998 8.12966 10.8478 7.511 10.8532 7.50566C10.9812 7.31766 11.2145 7.23366 11.4332 7.29233C11.6518 7.35233 11.8092 7.543 11.8252 7.76966C11.8438 7.92833 11.9478 8.12966 12.3318 8.12966C12.8705 8.12966 13.1305 7.81766 13.1425 7.80433C13.3185 7.56833 13.6505 7.52433 13.8865 7.70033C14.1225 7.87633 14.1678 8.215 13.9905 8.451C13.9332 8.527 13.4025 9.19633 12.3318 9.19633L12.3305 9.19766Z" fill="white"/>
<path d="M9.46216 11.6929C8.75149 11.6929 8.20615 11.4436 8.16615 11.4249C7.89949 11.2996 7.78482 10.9822 7.91016 10.7156C8.03549 10.4502 8.35149 10.3356 8.61682 10.4582C8.66882 10.4822 9.78082 10.9702 10.6262 10.1556C10.8355 9.95289 11.1675 9.95689 11.3742 10.1622C11.3902 10.1769 11.8902 10.6396 12.6648 10.3942C12.9462 10.3049 13.2448 10.4609 13.3342 10.7422C13.4235 11.0236 13.2675 11.3222 12.9862 11.4116C12.1115 11.6889 11.4235 11.4436 11.0195 11.2102C10.4928 11.5796 9.93949 11.6929 9.46216 11.6929Z" fill="white"/>
</g>
<defs>
<clipPath id="clip0_1876_24328">
<rect width="16" height="16" fill="white"/>
</clipPath>
</defs>
</svg>
