<svg width="20" height="14" viewBox="0 0 20 14" fill="none" xmlns="http://www.w3.org/2000/svg">
<path d="M9.9877 0C11.2377 0 12.4085 0.233333 13.5002 0.7C14.5919 1.16667 15.546 1.80833 16.3627 2.625C16.7794 3.04167 17.146 3.49167 17.4627 3.975C17.7794 4.45833 18.0544 4.96667 18.2877 5.5C18.521 6.05 18.696 6.61667 18.8127 7.2C18.9294 7.78333 18.9877 8.375 18.9877 8.975C18.9877 9.25833 18.8794 9.5 18.6627 9.7C18.446 9.9 18.196 10 17.9127 10C17.646 10 17.4252 9.90417 17.2502 9.7125C17.0752 9.52083 16.9877 9.28333 16.9877 9C16.9877 8.83333 16.9835 8.66667 16.9752 8.5C16.9669 8.33333 16.946 8.16667 16.9127 8H13.9627C13.9794 8.16667 13.9877 8.33333 13.9877 8.5V9C13.9877 9.28333 13.8877 9.52083 13.6877 9.7125C13.4877 9.90417 13.246 10 12.9627 10C12.6794 10 12.446 9.90417 12.2627 9.7125C12.0794 9.52083 11.9877 9.28333 11.9877 9C11.9877 8.83333 11.9835 8.66667 11.9752 8.5C11.9669 8.33333 11.9544 8.16667 11.9377 8H8.06269C8.04603 8.16667 8.03353 8.33333 8.0252 8.5C8.01686 8.66667 8.0127 8.83333 8.0127 9C8.0127 9.28333 7.92103 9.52083 7.7377 9.7125C7.55436 9.90417 7.32103 10 7.0377 10C6.75436 10 6.5127 9.90417 6.3127 9.7125C6.1127 9.52083 6.0127 9.28333 6.0127 9V8.5C6.0127 8.33333 6.02103 8.16667 6.0377 8H3.0877C3.05436 8.16667 3.03353 8.33333 3.0252 8.5C3.01686 8.66667 3.0127 8.83333 3.0127 9C3.0127 9.28333 2.9252 9.52083 2.7502 9.7125C2.5752 9.90417 2.35436 10 2.0877 10C1.80436 10 1.55436 9.90417 1.3377 9.7125C1.12103 9.52083 1.0127 9.28333 1.0127 9C1.0127 8.4 1.07103 7.80417 1.1877 7.2125C1.30436 6.62083 1.47936 6.05 1.7127 5.5C1.94603 4.96667 2.22103 4.45833 2.5377 3.975C2.85436 3.49167 3.22103 3.04167 3.6377 2.625C4.45436 1.80833 5.40436 1.16667 6.4877 0.7C7.57103 0.233333 8.7377 0 9.9877 0ZM3.6877 6H6.2627C6.39603 5.28333 6.5627 4.6375 6.7627 4.0625C6.9627 3.4875 7.17936 2.96667 7.4127 2.5C6.6127 2.8 5.8877 3.25417 5.2377 3.8625C4.5877 4.47083 4.07103 5.18333 3.6877 6ZM8.3377 6H11.6377C11.471 5.28333 11.2627 4.58333 11.0127 3.9C10.7627 3.21667 10.421 2.58333 9.9877 2C9.55436 2.58333 9.20853 3.21667 8.9502 3.9C8.69186 4.58333 8.4877 5.28333 8.3377 6ZM13.7377 6H16.3127C15.9294 5.18333 15.4085 4.47083 14.7502 3.8625C14.0919 3.25417 13.3627 2.8 12.5627 2.5C12.796 3 13.0169 3.52917 13.2252 4.0875C13.4335 4.64583 13.6044 5.28333 13.7377 6Z" fill="#256EF4"/>
<path d="M0 13C0 12.4477 0.447715 12 1 12H19C19.5523 12 20 12.4477 20 13C20 13.5523 19.5523 14 19 14H1C0.447716 14 0 13.5523 0 13Z" fill="#256EF4"/>
</svg>
