<svg width="24" height="24" viewBox="0 0 24 24" fill="none" xmlns="http://www.w3.org/2000/svg">
<path d="M16 18C16.55 18 17.0208 17.8042 17.4125 17.4125C17.8042 17.0208 18 16.55 18 16V4C18 3.45 17.8042 2.97917 17.4125 2.5875C17.0208 2.19583 16.55 2 16 2H4C3.45 2 2.97917 2.19583 2.5875 2.5875C2.19583 2.97917 2 3.45 2 4V16C2 16.55 2.19583 17.0208 2.5875 17.4125C2.97917 17.8042 3.45 18 4 18H16ZM20 22C20.55 22 21.0208 21.8042 21.4125 21.4125C21.8042 21.0208 22 20.55 22 20V6H20V20H6V22H20ZM10 10C10.2833 10 10.5208 9.90417 10.7125 9.7125C10.9042 9.52083 11 9.28333 11 9C11 8.71667 10.9042 8.47917 10.7125 8.2875C10.5208 8.09583 10.2833 8 10 8C9.71667 8 9.47917 8.09583 9.2875 8.2875C9.09583 8.47917 9 8.71667 9 9C9 9.28333 9.09583 9.52083 9.2875 9.7125C9.47917 9.90417 9.71667 10 10 10ZM10 15C8.65 13.85 7.64583 12.7875 6.9875 11.8125C6.32917 10.8375 6 9.93333 6 9.1C6 7.85 6.40417 6.85417 7.2125 6.1125C8.02083 5.37083 8.95 5 10 5C11.05 5 11.9792 5.37083 12.7875 6.1125C13.5958 6.85417 14 7.85 14 9.1C14 9.93333 13.6708 10.8375 13.0125 11.8125C12.3542 12.7875 11.35 13.85 10 15Z" fill="#256EF4"/>
</svg>
