<svg width="16" height="17" viewBox="0 0 16 17" fill="none" xmlns="http://www.w3.org/2000/svg">
<g clip-path="url(#clip0_2472_12974)">
<path d="M15.5 7.33333L14.55 8.26667L13.3333 7.05L13.3333 11.1667C13.3333 11.5333 13.2028 11.8472 12.9417 12.1083C12.6806 12.3694 12.3667 12.5 12 12.5L5.21667 12.5L6.55 11.1667L12 11.1667L12 7.05L10.7833 8.26667L9.83333 7.33333L12.6667 4.5L15.5 7.33333ZM10.7833 4.5L9.45 5.83333L4 5.83333L4 9.95L5.21667 8.73333L6.16667 9.66667L3.33333 12.5L0.5 9.66667L1.45 8.73333L2.66667 9.95L2.66667 5.83333C2.66667 5.46667 2.79722 5.15278 3.05833 4.89167C3.31944 4.63056 3.63333 4.5 4 4.5L10.7833 4.5Z" fill="#58616A"/>
</g>
<defs>
<clipPath id="clip0_2472_12974">
<rect width="16" height="16" fill="white" transform="translate(0 16.5) rotate(-90)"/>
</clipPath>
</defs>
</svg>
