<svg width="12" height="4" viewBox="0 0 12 4" fill="none" xmlns="http://www.w3.org/2000/svg">
<path d="M1.49563 3.5C1.08188 3.5 0.729167 3.35271 0.4375 3.05813C0.145833 2.76354 0 2.40938 0 1.99563C0 1.58188 0.147292 1.22917 0.441875 0.9375C0.736459 0.645833 1.09062 0.5 1.50437 0.5C1.91812 0.5 2.27083 0.647292 2.5625 0.941875C2.85417 1.23646 3 1.59062 3 2.00437C3 2.41812 2.85271 2.77083 2.55813 3.0625C2.26354 3.35417 1.90938 3.5 1.49563 3.5ZM5.99563 3.5C5.58188 3.5 5.22917 3.35271 4.9375 3.05813C4.64583 2.76354 4.5 2.40938 4.5 1.99563C4.5 1.58188 4.64729 1.22917 4.94187 0.9375C5.23646 0.645833 5.59062 0.5 6.00438 0.5C6.41813 0.5 6.77083 0.647292 7.0625 0.941875C7.35417 1.23646 7.5 1.59062 7.5 2.00437C7.5 2.41812 7.35271 2.77083 7.05812 3.0625C6.76354 3.35417 6.40938 3.5 5.99563 3.5ZM10.4956 3.5C10.0819 3.5 9.72917 3.35271 9.4375 3.05813C9.14583 2.76354 9 2.40938 9 1.99563C9 1.58188 9.14729 1.22917 9.44188 0.9375C9.73646 0.645833 10.0906 0.5 10.5044 0.5C10.9181 0.5 11.2708 0.647292 11.5625 0.941875C11.8542 1.23646 12 1.59062 12 2.00437C12 2.41812 11.8527 2.77083 11.5581 3.0625C11.2635 3.35417 10.9094 3.5 10.4956 3.5Z" fill="#464C53"/>
</svg>
