<svg width="14" height="16" viewBox="0 0 14 16" fill="none" xmlns="http://www.w3.org/2000/svg">
<g clip-path="url(#clip0_1876_24316)">
<path d="M10.5337 16.0004H2.08904C1.21618 16.0004 0.507812 15.3038 0.507812 14.4455V12.8906H11.3748V15.1734C11.3748 15.6299 10.998 16.0004 10.5337 16.0004Z" fill="#FFD255"/>
<path d="M12.6588 14.4208H3.90234V1.55273H12.6588C13.1231 1.55273 13.4998 1.92319 13.4998 2.37974V13.5938C13.4998 14.0504 13.1231 14.4208 12.6588 14.4208Z" fill="#6270F4"/>
<path d="M3.90255 1.55356C3.90255 0.695255 3.19418 0 2.32133 0H2.08122C1.20837 0 0.5 0.695255 0.5 1.55356V14.4217H0.509286C0.522551 13.5738 1.22429 12.8903 2.08918 12.8903H2.32929C3.14776 12.8903 3.82163 13.502 3.90255 14.2873V1.55487V1.55356Z" fill="#6270F4"/>
<path d="M3.90189 12.3124C3.62332 12.3124 3.39648 12.0893 3.39648 11.8154V3.05362C3.39648 2.7797 3.62332 2.55664 3.90189 2.55664C4.18046 2.55664 4.4073 2.7797 4.4073 3.05362V11.8154C4.4073 12.0893 4.18046 12.3124 3.90189 12.3124Z" fill="#8393ED"/>
<path d="M8.66638 8.95454C8.16893 8.79279 8.13312 8.63365 7.77893 8.31016C7.45526 8.01536 6.74159 8.13276 6.38873 8.0271C6.03587 7.92144 5.05955 8.15884 5.05955 8.15884C5.05955 8.15884 4.92557 8.72757 5.05955 9.2376C5.19353 9.74632 6.09557 10.4077 6.32506 10.5016C6.55455 10.5955 6.49618 11.1394 6.68057 11.5921C6.86495 12.0447 7.24832 12.4021 7.24832 12.4021C7.53353 12.5613 8.05618 12.9695 8.12516 12.8769C8.34138 12.5834 8.7473 12.513 8.33873 12.1608C8.1623 12.0082 8.5921 11.5516 8.93302 11.3495C9.31638 11.1225 9.57904 10.8459 9.58567 10.6516C9.60424 10.0737 10.046 9.82198 10.0274 9.51935C10.0088 9.21803 9.05506 9.07976 8.66506 8.95324L8.66638 8.95454Z" fill="white"/>
<path d="M9.10591 8.24171C8.54876 8.03169 8.50897 7.82299 8.11234 7.40296C7.75019 7.01816 6.95029 7.17208 6.55499 7.03512C6.15968 6.89815 5.06662 7.206 5.06662 7.206C5.06662 7.206 4.91672 7.94691 5.06662 8.60955C5.21652 9.2722 6.22734 10.1318 6.48468 10.2557C6.74203 10.3796 6.67703 11.0866 6.88264 11.6762C7.08958 12.2658 7.51938 12.7315 7.51938 12.7315C7.83907 12.9376 8.4254 13.4698 8.50101 13.3498C8.74376 12.9689 9.19744 12.8763 8.74111 12.4172C8.54478 12.2189 9.02499 11.6228 9.40703 11.3606C9.83683 11.0658 10.13 10.7044 10.1379 10.4514C10.1592 9.69874 10.654 9.37003 10.6327 8.9774C10.6115 8.58477 9.54366 8.40606 9.10723 8.2404L9.10591 8.24171Z" stroke="white" stroke-miterlimit="10"/>
<path d="M7.37704 3.22525C7.49776 2.9448 7.62378 2.61218 7.94214 2.89523C8.47939 3.37004 8.93969 3.7118 9.465 3.67397C9.99031 3.63484 10.3432 4.05878 11.017 4.24009C11.6896 4.42271 11.7665 4.36531 11.7586 4.01443C11.7519 3.66354 11.4561 3.22134 11.4561 3.22134L11.35 3.30091C11.2439 3.38048 10.8645 3.14307 10.8406 3.08177C10.8167 3.02046 11.2518 2.71001 10.8685 2.40477C10.7876 2.33955 10.692 2.22607 10.5912 2.0878C9.36153 1.67952 8.00184 1.71604 6.77082 2.21694C6.6899 3.06742 6.89551 3.34917 6.89551 3.34917C7.00959 3.70658 7.25765 3.5044 7.37837 3.22395L7.37704 3.22525Z" fill="white"/>
<path d="M12.1819 5C11.8635 5.37176 11.4589 5.83744 11.2958 6.04223C11.0079 6.40225 10.8899 7.0062 11.126 7.54623C11.2706 7.87885 11.7972 8.24539 12.2721 8.70064C12.4605 8.158 12.5653 7.57623 12.5653 6.97098C12.5653 6.27442 12.4286 5.61047 12.1819 5Z" fill="white"/>
<path d="M11.0345 5.1583C10.6856 5.00438 10.2439 4.80871 10.0595 4.73306C9.73717 4.60131 9.47452 4.66914 9.49972 4.99916C9.51564 5.20265 9.81278 5.71789 10.0449 6.21488C10.3447 6.22009 10.5901 6.14705 10.7626 5.9866C10.9616 5.80138 11.0478 5.51571 11.0345 5.1583Z" fill="white"/>
</g>
<defs>
<clipPath id="clip0_1876_24316">
<rect width="13" height="16" fill="white" transform="translate(0.5)"/>
</clipPath>
</defs>
</svg>
