<svg width="20" height="20" viewBox="0 0 20 20" fill="none" xmlns="http://www.w3.org/2000/svg">
<path d="M1.25 7.25H18.75M5.361 2.75V0.75M14.611 2.75V0.75M15.25 2.75H4.75C3.82174 2.75 2.9315 3.11875 2.27513 3.77513C1.61875 4.4315 1.25 5.32174 1.25 6.25V15.75C1.25 16.6783 1.61875 17.5685 2.27513 18.2249C2.9315 18.8813 3.82174 19.25 4.75 19.25H15.25C16.1783 19.25 17.0685 18.8813 17.7249 18.2249C18.3813 17.5685 18.75 16.6783 18.75 15.75V6.25C18.75 5.32174 18.3813 4.4315 17.7249 3.77513C17.0685 3.11875 16.1783 2.75 15.25 2.75Z" stroke="#8CE2D0" stroke-width="1.5" stroke-linecap="round" stroke-linejoin="round"/>
</svg>
