<svg width="24" height="24" viewBox="0 0 24 24" fill="none" xmlns="http://www.w3.org/2000/svg">
<path d="M10 8H7V12H8.2002L8 10H11.0283C11.2629 10.4536 11.5316 10.9028 11.8311 11.3457C12.9608 13.0164 14.6101 14.7408 16.7031 16.5225L18.5586 17.1504C19.1077 17.5495 19.584 18.0452 19.9873 18.6377C20.6623 19.6294 21 20.75 21 22H19C19 20.9 18.6085 19.9581 17.8252 19.1748C17.0419 18.3915 16.1 18 15 18H11C9.9 18 8.95814 18.3915 8.1748 19.1748C7.39147 19.9581 7 20.9 7 22H5C5 20.75 5.34206 19.6294 6.02539 18.6377C6.70871 17.6461 7.5915 16.9246 8.6748 16.4746L8.4248 14H5V8H2V6H10V8Z" fill="#6D7882"/>
<path d="M18 0C19.5832 0 20.9792 0.553895 22.1875 1.66211C23.3958 2.77044 24 4.26706 24 6.15039C23.9999 7.40018 23.5041 8.75823 22.5127 10.2246C21.521 11.6913 20.0167 13.2833 18 15C15.9833 13.2833 14.479 11.6913 13.4873 10.2246C12.4959 8.75823 12.0001 7.40018 12 6.15039C12 4.26706 12.6042 2.77044 13.8125 1.66211C15.0208 0.553895 16.4168 0 18 0ZM18 4C16.8954 4 16 4.89543 16 6C16 7.10457 16.8954 8 18 8C19.1046 8 20 7.10457 20 6C20 4.89543 19.1046 4 18 4Z" fill="#6D7882"/>
</svg>
