<svg width="48" height="48" viewBox="0 0 48 48" fill="none" xmlns="http://www.w3.org/2000/svg">
<path d="M23.1992 14.7002C27.8936 14.7002 31.6992 18.5058 31.6992 23.2002C31.6992 25.2587 30.9666 27.1455 29.749 28.6162L33.0674 31.9346C33.3793 32.2469 33.3794 32.7531 33.0674 33.0654C32.755 33.3778 32.248 33.3778 31.9355 33.0654L28.6182 29.748C27.147 30.9669 25.259 31.7002 23.1992 31.7002C18.5048 31.7002 14.6992 27.8946 14.6992 23.2002C14.6992 18.5058 18.5048 14.7002 23.1992 14.7002ZM23.1992 16.2998C19.3885 16.2998 16.2988 19.3894 16.2988 23.2002C16.2988 27.011 19.3885 30.1006 23.1992 30.1006C25.0156 30.1006 26.6663 29.3964 27.8984 28.249C27.9357 28.1755 27.9854 28.1063 28.0469 28.0449C28.1086 27.9832 28.1781 27.9338 28.252 27.8965C29.3973 26.6647 30.0996 25.0149 30.0996 23.2002C30.0996 19.3894 27.01 16.2998 23.1992 16.2998Z" fill="#256EF4"/>
</svg>
