<svg width="19" height="16" viewBox="0 0 19 16" fill="none" xmlns="http://www.w3.org/2000/svg">
<path d="M9.99412 14.5V13.5H12.5519C12.6544 13.5 12.7473 13.4808 12.8306 13.4423C12.914 13.4038 12.9877 13.3461 13.0519 13.2693L17.4749 7.5L13.0519 1.73075C12.9877 1.65392 12.914 1.59625 12.8306 1.55775C12.7473 1.51925 12.6544 1.5 12.5519 1.5H2.34037C2.16087 1.5 2.01338 1.55767 1.89788 1.673C1.78254 1.7885 1.72488 1.936 1.72488 2.1155V6.1155H0.724875V2.10575C0.724875 1.66475 0.883042 1.28683 1.19937 0.972C1.51571 0.657333 1.89604 0.5 2.34037 0.5H12.5519C12.8075 0.5 13.0498 0.555499 13.2786 0.666499C13.5075 0.777499 13.696 0.931 13.8441 1.127L18.7249 7.5L13.8441 13.873C13.696 14.069 13.5075 14.2225 13.2786 14.3335C13.0498 14.4445 12.8075 14.5 12.5519 14.5H9.99412ZM3.60938 15.5V12.5H0.609375V11.5H3.60938V8.5H4.60938V11.5H7.60938V12.5H4.60938V15.5H3.60938Z" fill="#003964"/>
</svg>
