<svg width="24" height="24" viewBox="0 0 24 24" fill="none" xmlns="http://www.w3.org/2000/svg">
<rect width="24" height="24" rx="12" fill="white"/>
<g clip-path="url(#clip0_1624_1149)">
<path d="M15.5337 20.0001H7.08904C6.21618 20.0001 5.50781 19.3036 5.50781 18.4452V16.8904H16.3748V19.1731C16.3748 19.6297 15.998 20.0001 15.5337 20.0001Z" fill="#FFD255"/>
<path d="M17.6588 18.4216H8.90234V5.55347H17.6588C18.1231 5.55347 18.4998 5.92392 18.4998 6.38047V17.5946C18.4998 18.0511 18.1231 18.4216 17.6588 18.4216Z" fill="#6270F4"/>
<path d="M8.90255 5.55356C8.90255 4.69526 8.19418 4 7.32133 4H7.08122C6.20837 4 5.5 4.69526 5.5 5.55356V18.4217H5.50929C5.52255 17.5738 6.22429 16.8903 7.08918 16.8903H7.32929C8.14776 16.8903 8.82163 17.502 8.90255 18.2873V5.55487V5.55356Z" fill="#6270F4"/>
<path d="M8.90189 16.3124C8.62332 16.3124 8.39648 16.0893 8.39648 15.8154V7.05362C8.39648 6.7797 8.62332 6.55664 8.90189 6.55664C9.18046 6.55664 9.4073 6.7797 9.4073 7.05362V15.8154C9.4073 16.0893 9.18046 16.3124 8.90189 16.3124Z" fill="#8393ED"/>
<path d="M13.6664 12.9545C13.1689 12.7928 13.1331 12.6337 12.7789 12.3102C12.4553 12.0154 11.7416 12.1328 11.3887 12.0271C11.0359 11.9214 10.0595 12.1588 10.0595 12.1588C10.0595 12.1588 9.92557 12.7276 10.0595 13.2376C10.1935 13.7463 11.0956 14.4077 11.3251 14.5016C11.5545 14.5955 11.4962 15.1394 11.6806 15.5921C11.865 16.0447 12.2483 16.4021 12.2483 16.4021C12.5335 16.5613 13.0562 16.9695 13.1252 16.8769C13.3414 16.5834 13.7473 16.513 13.3387 16.1608C13.1623 16.0082 13.5921 15.5516 13.933 15.3495C14.3164 15.1225 14.579 14.8459 14.5857 14.6516C14.6042 14.0737 15.046 13.822 15.0274 13.5194C15.0088 13.218 14.0551 13.0798 13.6651 12.9532L13.6664 12.9545Z" fill="white"/>
<path d="M14.1059 12.2417C13.5488 12.0317 13.509 11.823 13.1123 11.403C12.7502 11.0182 11.9503 11.1721 11.555 11.0351C11.1597 10.8982 10.0666 11.206 10.0666 11.206C10.0666 11.206 9.91672 11.9469 10.0666 12.6096C10.2165 13.2722 11.2273 14.1318 11.4847 14.2557C11.742 14.3796 11.677 15.0866 11.8826 15.6762C12.0896 16.2658 12.5194 16.7315 12.5194 16.7315C12.8391 16.9376 13.4254 17.4698 13.501 17.3498C13.7438 16.9689 14.1974 16.8763 13.7411 16.4172C13.5448 16.2189 14.025 15.6228 14.407 15.3606C14.8368 15.0658 15.13 14.7044 15.1379 14.4514C15.1592 13.6987 15.654 13.37 15.6327 12.9774C15.6115 12.5848 14.5437 12.4061 14.1072 12.2404L14.1059 12.2417Z" stroke="white" stroke-miterlimit="10"/>
<path d="M12.377 7.22452C12.4978 6.94407 12.6238 6.61144 12.9421 6.8945C13.4794 7.36931 13.9397 7.71107 14.465 7.67324C14.9903 7.63411 15.3432 8.05804 16.017 8.23936C16.6896 8.42198 16.7665 8.36458 16.7586 8.01369C16.7519 7.6628 16.4561 7.22061 16.4561 7.22061L16.35 7.30018C16.2439 7.37975 15.8645 7.14234 15.8406 7.08103C15.8167 7.01973 16.2518 6.70927 15.8685 6.40404C15.7876 6.33882 15.692 6.22534 15.5912 6.08707C14.3615 5.67878 13.0018 5.71531 11.7708 6.2162C11.6899 7.06669 11.8955 7.34844 11.8955 7.34844C12.0096 7.70585 12.2577 7.50367 12.3784 7.22322L12.377 7.22452Z" fill="white"/>
<path d="M17.1819 9C16.8635 9.37176 16.4589 9.83744 16.2958 10.0422C16.0079 10.4023 15.8899 11.0062 16.126 11.5462C16.2706 11.8789 16.7972 12.2454 17.2721 12.7006C17.4605 12.158 17.5653 11.5762 17.5653 10.971C17.5653 10.2744 17.4286 9.61047 17.1819 9Z" fill="white"/>
<path d="M16.0345 9.15903C15.6856 9.00511 15.2439 8.80945 15.0595 8.73379C14.7372 8.60204 14.4745 8.66987 14.4997 8.99989C14.5156 9.20338 14.8128 9.71862 15.0449 10.2156C15.3447 10.2208 15.5901 10.1478 15.7626 9.98733C15.9616 9.80211 16.0478 9.51644 16.0345 9.15903Z" fill="white"/>
</g>
<defs>
<clipPath id="clip0_1624_1149">
<rect width="13" height="16" fill="white" transform="translate(5.5 4)"/>
</clipPath>
</defs>
</svg>
