<svg width="14" height="14" viewBox="0 0 14 14" fill="none" xmlns="http://www.w3.org/2000/svg">
<path d="M6.99902 0.333008C8.12406 0.333062 9.1837 0.612352 10.1133 1.10449L9.50586 1.99219C8.75154 1.61377 7.90041 1.39947 6.99902 1.39941C3.90623 1.39941 1.39844 3.90721 1.39844 7C1.39861 10.0926 3.90634 12.5996 6.99902 12.5996C10.0916 12.5994 12.5985 10.0925 12.5986 7C12.5986 5.98844 12.3295 5.03974 11.8604 4.2207L12.5166 3.25977C13.2409 4.32638 13.665 5.61352 13.665 7C13.6649 10.6816 10.6807 13.6658 6.99902 13.666C3.31723 13.666 0.332207 10.6817 0.332031 7C0.332031 3.3181 3.31713 0.333008 6.99902 0.333008ZM11.0127 1.67773C11.2999 1.89467 11.5681 2.13486 11.8164 2.39453L11.1992 3.29785C10.9606 3.02725 10.6965 2.77987 10.4102 2.55957L11.0127 1.67773Z" fill="#33363D"/>
<path fill-rule="evenodd" clip-rule="evenodd" d="M11.9663 1.22582C12.2096 1.39198 12.272 1.72384 12.1059 1.96705L7.55139 8.63372C7.46187 8.76476 7.31863 8.84913 7.16061 8.86389C7.00259 8.87864 6.84621 8.82226 6.73397 8.71006L3.95511 5.93228C3.74679 5.72404 3.74673 5.38636 3.95496 5.17804C4.1632 4.96972 4.50089 4.96965 4.70921 5.17789L7.03334 7.50111L11.2251 1.36534C11.3913 1.12213 11.7231 1.05966 11.9663 1.22582Z" fill="#256EF4"/>
</svg>
