<svg width="14" height="14" viewBox="0 0 14 14" fill="none" xmlns="http://www.w3.org/2000/svg">
<path d="M2.0415 12.6251H8.62484V8.62508H12.6248V2.04175C12.6248 1.8473 12.5623 1.68758 12.4373 1.56258C12.3123 1.43758 12.1526 1.37508 11.9582 1.37508H2.0415C1.84706 1.37508 1.68734 1.43758 1.56234 1.56258C1.43734 1.68758 1.37484 1.8473 1.37484 2.04175V11.9584C1.37484 12.1529 1.43734 12.3126 1.56234 12.4376C1.68734 12.5626 1.84706 12.6251 2.0415 12.6251ZM2.0415 13.5834C1.57345 13.5834 1.1856 13.4296 0.877962 13.122C0.570323 12.8143 0.416504 12.4265 0.416504 11.9584V2.04175C0.416504 1.57369 0.570323 1.18585 0.877962 0.878207C1.1856 0.570568 1.57345 0.416748 2.0415 0.416748H11.9582C12.4262 0.416748 12.8141 0.570568 13.1217 0.878207C13.4294 1.18585 13.5832 1.57369 13.5832 2.04175V8.72925L8.729 13.5834H2.0415ZM3.83317 8.72925V7.77092H7.12484V8.72925H3.83317ZM3.83317 5.22925V4.27091H10.1665V5.22925H3.83317Z" fill="#6D7882"/>
</svg>
