<svg width="24" height="24" viewBox="0 0 24 24" fill="none" xmlns="http://www.w3.org/2000/svg">
<rect width="24" height="24" rx="12" fill="white"/>
<g clip-path="url(#clip0_1845_10358)">
<path d="M19.3983 15.4074L21.335 12.904C21.6401 12.5082 21.5089 11.9318 21.064 11.7096L13.8408 8.10067C13.5056 7.93291 13.0992 8.02611 12.8682 8.32434L10.8959 10.8737C10.7875 11.0142 10.6349 11.1131 10.4638 11.1561L4.70086 12.5971L4.69088 12.5928L4.68375 12.6014L4.66663 12.6057L4.67662 12.61L2.73997 15.112C2.43478 15.5078 2.56598 16.0842 3.01093 16.3079L10.2341 19.9168C10.5693 20.0845 10.9757 19.9913 11.2068 19.6931L13.1791 17.1438C13.2874 17.0033 13.44 16.9043 13.6112 16.8613L19.3741 15.4203L19.384 15.4246L19.3912 15.416L19.4083 15.4117L19.3983 15.4074Z" fill="#E6E8EA"/>
<path d="M12.0371 16.86C11.9515 16.86 11.8645 16.8413 11.7833 16.7998L5.90485 13.8619C5.62248 13.7213 5.50696 13.3772 5.64815 13.0933C5.78791 12.8094 6.13017 12.6933 6.41254 12.8352L12.2909 15.7731C12.5733 15.9137 12.6888 16.2578 12.5476 16.5417C12.4478 16.7438 12.2467 16.86 12.0371 16.86Z" fill="white"/>
<path d="M17.3872 14.9772C17.3016 14.9772 17.216 14.9586 17.1333 14.917L11.7925 12.2487C11.5102 12.1082 11.3947 11.764 11.5358 11.4802C11.677 11.1963 12.0179 11.0815 12.3002 11.2221L17.641 13.8904C17.9234 14.0309 18.0389 14.375 17.8977 14.6589C17.7979 14.8611 17.5968 14.9772 17.3872 14.9772Z" fill="white"/>
<path d="M10.8712 8.20826C10.8712 10.0306 8.29854 13.5234 7.18761 14.9472C6.93233 15.2741 6.44033 15.2741 6.18506 14.9472C5.07269 13.5234 2.5 10.0306 2.5 8.20826C2.5 5.88404 4.3739 4 6.68562 4C8.99734 4 10.8712 5.88404 10.8712 8.20826Z" fill="#FFA943"/>
<path d="M7.63236 10.5031C8.89413 9.97766 9.49331 8.52329 8.97066 7.2547C8.44802 5.9861 7.00148 5.38368 5.73971 5.90915C4.47794 6.43462 3.87876 7.88899 4.4014 9.15759C4.92404 10.4262 6.37059 11.0286 7.63236 10.5031Z" fill="white"/>
</g>
<defs>
<clipPath id="clip0_1845_10358">
<rect width="19" height="16" fill="white" transform="translate(2.5 4)"/>
</clipPath>
</defs>
</svg>
