<svg width="24" height="24" viewBox="0 0 24 24" fill="none" xmlns="http://www.w3.org/2000/svg">
<rect width="24" height="24" rx="12" fill="white"/>
<g clip-path="url(#clip0_1624_1161)">
<path d="M12.0693 4H11.9307C7.55067 4 4 5.53333 4 11.9307V12.0693C4 18.4147 7.55067 20 11.9307 20H12.0693C16.4493 20 20 18.4667 20 12.0693V11.9307C20 5.48133 16.4493 4 12.0693 4Z" fill="#6270F4"/>
<path d="M16.3305 13.1974C15.7825 13.1974 15.3958 12.9908 15.1438 12.7148C14.8212 12.9654 14.3772 13.1974 13.8438 13.1974C13.0838 13.1974 11.8358 12.5561 11.7265 10.8361C11.6825 10.1481 11.9572 9.51475 12.2705 9.02809C11.2478 9.24809 10.7638 9.99075 10.5798 10.3668C10.5412 10.4454 10.5012 10.5308 10.4598 10.6201C10.0852 11.4134 9.51982 12.6108 8.44782 13.0041C7.51849 13.3454 6.44115 12.8428 6.32115 12.7841C6.05582 12.6548 5.94649 12.3361 6.07582 12.0708C6.20515 11.8068 6.52382 11.6961 6.78782 11.8241C6.98915 11.9201 7.65449 12.1588 8.07982 12.0014C8.74249 11.7588 9.17715 10.8361 9.49582 10.1628C9.53982 10.0694 9.58249 9.98009 9.62249 9.89742C9.88915 9.35209 10.9545 7.60275 13.5025 7.93875C13.7105 7.96675 13.8825 8.11209 13.9425 8.31342C14.0025 8.51342 13.9412 8.73075 13.7825 8.86942C13.4905 9.12675 12.7412 9.97209 12.7918 10.7681C12.8625 11.8854 13.5758 12.1294 13.8438 12.1294C14.3998 12.1294 14.8478 11.5108 14.8532 11.5054C14.9812 11.3174 15.2145 11.2334 15.4332 11.2921C15.6518 11.3521 15.8092 11.5428 15.8252 11.7694C15.8438 11.9281 15.9478 12.1294 16.3318 12.1294C16.8705 12.1294 17.1305 11.8174 17.1425 11.8041C17.3185 11.5681 17.6505 11.5241 17.8865 11.7001C18.1225 11.8761 18.1678 12.2148 17.9905 12.4508C17.9332 12.5268 17.4025 13.1961 16.3318 13.1961L16.3305 13.1974Z" fill="white"/>
<path d="M13.4622 15.6919C12.7515 15.6919 12.2062 15.4426 12.1662 15.4239C11.8995 15.2986 11.7848 14.9812 11.9102 14.7146C12.0355 14.4492 12.3515 14.3346 12.6168 14.4572C12.6688 14.4812 13.7808 14.9692 14.6262 14.1546C14.8355 13.9519 15.1675 13.9559 15.3742 14.1612C15.3902 14.1759 15.8902 14.6386 16.6648 14.3932C16.9462 14.3039 17.2448 14.4599 17.3342 14.7412C17.4235 15.0226 17.2675 15.3212 16.9862 15.4106C16.1115 15.6879 15.4235 15.4426 15.0195 15.2092C14.4928 15.5786 13.9395 15.6919 13.4622 15.6919Z" fill="white"/>
</g>
<defs>
<clipPath id="clip0_1624_1161">
<rect width="16" height="16" fill="white" transform="translate(4 4)"/>
</clipPath>
</defs>
</svg>
