<svg width="16" height="16" viewBox="0 0 16 16" fill="none" xmlns="http://www.w3.org/2000/svg">
<path d="M8 9.77778C7.51111 9.77778 7.09259 9.6037 6.74444 9.25556C6.3963 8.90741 6.22222 8.48889 6.22222 8C6.22222 7.51111 6.3963 7.09259 6.74444 6.74444C7.09259 6.3963 7.51111 6.22222 8 6.22222C8.48889 6.22222 8.90741 6.3963 9.25556 6.74444C9.6037 7.09259 9.77778 7.51111 9.77778 8C9.77778 8.48889 9.6037 8.90741 9.25556 9.25556C8.90741 9.6037 8.48889 9.77778 8 9.77778ZM8 16C5.94074 16 4.15556 15.3222 2.64444 13.9667C1.13333 12.6111 0.266667 10.9185 0.0444444 8.88889H1.86667C2.07407 10.4296 2.75926 11.7037 3.92222 12.7111C5.08519 13.7185 6.44444 14.2222 8 14.2222C9.73333 14.2222 11.2037 13.6185 12.4111 12.4111C13.6185 11.2037 14.2222 9.73333 14.2222 8C14.2222 6.26667 13.6185 4.7963 12.4111 3.58889C11.2037 2.38148 9.73333 1.77778 8 1.77778C6.97778 1.77778 6.02222 2.01481 5.13333 2.48889C4.24444 2.96296 3.4963 3.61481 2.88889 4.44444H5.33333V6.22222H0V0.888889H1.77778V2.97778C2.53333 2.02963 3.45556 1.2963 4.54444 0.777778C5.63333 0.259259 6.78519 0 8 0C9.11111 0 10.1519 0.211111 11.1222 0.633333C12.0926 1.05556 12.937 1.62593 13.6556 2.34444C14.3741 3.06296 14.9444 3.90741 15.3667 4.87778C15.7889 5.84815 16 6.88889 16 8C16 9.11111 15.7889 10.1519 15.3667 11.1222C14.9444 12.0926 14.3741 12.937 13.6556 13.6556C12.937 14.3741 12.0926 14.9444 11.1222 15.3667C10.1519 15.7889 9.11111 16 8 16Z" fill="#1E2124"/>
</svg>
