<svg width="21" height="21" viewBox="0 0 21 21" fill="none" xmlns="http://www.w3.org/2000/svg">
<path d="M10.4962 14.292C10.6485 14.292 10.7775 14.24 10.8832 14.1362C10.9891 14.0324 11.042 13.9038 11.042 13.7503V10.042C11.042 9.88852 10.9905 9.75984 10.8874 9.65595C10.7844 9.5522 10.6567 9.50033 10.5045 9.50033C10.3521 9.50033 10.2231 9.5522 10.1174 9.65595C10.0116 9.75984 9.95866 9.88852 9.95866 10.042V13.7503C9.95866 13.9038 10.0102 14.0324 10.1132 14.1362C10.2163 14.24 10.3439 14.292 10.4962 14.292ZM10.496 8.24074C10.6618 8.24074 10.8023 8.18463 10.9174 8.07241C11.0325 7.96019 11.0901 7.82116 11.0901 7.65533C11.0901 7.48949 11.034 7.34901 10.9218 7.23387C10.8096 7.11887 10.6705 7.06137 10.5047 7.06137C10.3389 7.06137 10.1984 7.11741 10.0832 7.22949C9.9681 7.34171 9.91053 7.48074 9.91053 7.64658C9.91053 7.81241 9.96664 7.9529 10.0789 8.06803C10.1911 8.18317 10.3301 8.24074 10.496 8.24074ZM10.5074 18.0837C9.46421 18.0837 8.48171 17.8863 7.55991 17.4916C6.6381 17.0969 5.8313 16.5537 5.13949 15.8622C4.44769 15.1707 3.90428 14.3645 3.50928 13.4437C3.11442 12.523 2.91699 11.5391 2.91699 10.4922C2.91699 9.44526 3.11435 8.46435 3.50908 7.54949C3.9038 6.63463 4.44692 5.8313 5.13845 5.13949C5.82998 4.44769 6.63616 3.90428 7.55699 3.50928C8.47769 3.11442 9.46151 2.91699 10.5085 2.91699C11.5554 2.91699 12.5363 3.11435 13.4512 3.50908C14.366 3.9038 15.1694 4.44692 15.8612 5.13845C16.553 5.82998 17.0964 6.63449 17.4914 7.55199C17.8862 8.46963 18.0837 9.45005 18.0837 10.4932C18.0837 11.5364 17.8863 12.5189 17.4916 13.4407C17.0969 14.3625 16.5537 15.1694 15.8622 15.8612C15.1707 16.553 14.3662 17.0964 13.4487 17.4914C12.531 17.8862 11.5506 18.0837 10.5074 18.0837Z" fill="#1E2124"/>
</svg>
