<svg width="21" height="20" viewBox="0 0 21 20" fill="none" xmlns="http://www.w3.org/2000/svg">
<path d="M6.99949 16.6121V7.54819C6.99949 7.1868 7.12665 6.87993 7.38095 6.62757C7.63512 6.3752 7.94387 6.24902 8.3072 6.24902H17.3626C17.7197 6.24902 18.0262 6.37701 18.2822 6.63298C18.5382 6.88895 18.6662 7.19548 18.6662 7.55257V13.9894L14.7399 17.9157H8.30304C7.94595 17.9157 7.63943 17.7877 7.38345 17.5317C7.12748 17.2758 6.99949 16.9692 6.99949 16.6121ZM2.85366 5.19673C2.78491 4.83743 2.85498 4.51368 3.06387 4.22548C3.27276 3.93743 3.55686 3.75902 3.91616 3.69027L12.8424 2.11173C13.2017 2.04298 13.5255 2.11166 13.8137 2.31777C14.1017 2.52375 14.2801 2.80639 14.3489 3.16569L14.603 4.62507H13.5476L13.3151 3.31423C13.3044 3.25548 13.2724 3.20875 13.2191 3.17402C13.1656 3.1393 13.1069 3.12729 13.0428 3.13798L4.1047 4.7159C4.03345 4.72659 3.97824 4.76222 3.93908 4.82277C3.89991 4.88333 3.88568 4.94923 3.89637 5.02048L5.37554 13.4036V15.1261C5.14304 15.0678 4.94186 14.9503 4.77199 14.7738C4.60213 14.5974 4.49213 14.3808 4.44199 14.1238L2.85366 5.19673ZM8.04658 7.55257V16.6121C8.04658 16.687 8.07061 16.7485 8.11866 16.7965C8.16672 16.8446 8.22818 16.8686 8.30304 16.8686H14.1618L17.6191 13.4113V7.55257C17.6191 7.47771 17.5951 7.41625 17.547 7.36819C17.4989 7.32013 17.4375 7.29611 17.3626 7.29611H8.30304C8.22818 7.29611 8.16672 7.32013 8.11866 7.36819C8.07061 7.41625 8.04658 7.47771 8.04658 7.55257ZM12.3093 15.1059H13.3564V12.6059H15.8564V11.5588H13.3564V9.05882H12.3093V11.5588H9.80929V12.6059H12.3093V15.1059Z" fill="#1E2124"/>
</svg>
