<svg width="24" height="24" viewBox="0 0 24 24" fill="none" xmlns="http://www.w3.org/2000/svg">
<rect width="24" height="24" rx="12" fill="white"/>
<g clip-path="url(#clip0_1624_1175)">
<path d="M12.5309 12.5264C11.4437 11.7222 9.12305 9.65173 9.12305 6.63522V5.7412C10.3969 5.49524 11.5724 4.89402 12.5309 4C13.4895 4.89402 14.665 5.49654 15.9388 5.7412V6.63522C15.9388 9.65173 13.6181 11.7222 12.5309 12.5264Z" fill="#EF6250"/>
<path d="M12.3227 9.91207C12.1966 9.91207 12.0768 9.85611 11.9923 9.75851L10.8748 8.46107C10.7134 8.27238 10.7298 7.98478 10.9114 7.81821C11.093 7.65164 11.373 7.66855 11.5344 7.85595L12.295 8.73956L13.8576 6.61707C14.0052 6.41666 14.2827 6.37762 14.4757 6.52988C14.6699 6.68214 14.7077 6.96843 14.5602 7.16754L12.6721 9.73118C12.5926 9.83919 12.469 9.90556 12.3378 9.91077C12.3315 9.91077 12.3265 9.91077 12.3214 9.91077L12.3227 9.91207Z" fill="white"/>
<path d="M5.21008 14.1946H6.99348C7.38573 14.1946 7.70356 14.5225 7.70356 14.9272V19.2659C7.70356 19.6706 7.38573 19.9986 6.99348 19.9986H5.21008C4.81783 19.9986 4.5 19.6706 4.5 19.2659V14.9272C4.5 14.5225 4.81783 14.1946 5.21008 14.1946Z" fill="#6270F4"/>
<path d="M7.70312 18.9524C7.70312 18.9524 11 19.9583 12.5047 19.9987C14.0094 20.039 18.9951 18.3421 19.4062 17.2919C19.8174 16.2417 18.787 15.5598 18.1235 15.8929C17.6632 16.1246 16.2266 16.7896 15.5292 16.9809C15.5292 16.9809 15.7915 16.8234 16.0828 16.5762C16.3755 16.3289 16.5899 15.6223 16.3603 15.1356C15.8066 13.9618 14.0812 15.3776 13.4002 15.0106C12.7191 14.6437 11.3771 13.4685 9.5622 14.1947C7.74601 14.9208 7.70312 14.9182 7.70312 14.9182V18.9524Z" fill="#E6E8EA"/>
</g>
<defs>
<clipPath id="clip0_1624_1175">
<rect width="15" height="16" fill="white" transform="translate(4.5 4)"/>
</clipPath>
</defs>
</svg>
