<svg width="24" height="24" viewBox="0 0 24 24" fill="none" xmlns="http://www.w3.org/2000/svg">
<rect width="24" height="24" rx="12" fill="white"/>
<path d="M14.114 7.50391H6.04151C5.4663 7.50391 5 7.95369 5 8.50853V18.0367C5 18.5915 5.4663 19.0413 6.04151 19.0413H14.114C14.6893 19.0413 15.1556 18.5915 15.1556 18.0367V8.50853C15.1556 7.95369 14.6893 7.50391 14.114 7.50391Z" fill="#D0DEF7"/>
<path d="M13.5256 15.4H13.3146C13.0653 15.4 12.8633 15.2052 12.8633 14.9647C12.8633 14.7241 13.0653 14.5293 13.3146 14.5293H13.5256C13.775 14.5293 13.977 14.7241 13.977 14.9647C13.977 15.2052 13.775 15.4 13.5256 15.4Z" fill="#6270F4"/>
<path d="M11.9851 15.4H10.6818C10.4325 15.4 10.2305 15.2052 10.2305 14.9647C10.2305 14.7241 10.4325 14.5293 10.6818 14.5293H11.9851C12.2345 14.5293 12.4365 14.7241 12.4365 14.9647C12.4365 15.2052 12.2345 15.4 11.9851 15.4Z" fill="#6270F4"/>
<path d="M8.60723 11.5295C7.7158 10.9135 5.81445 9.32871 5.81445 7.01796V6.33333C6.85822 6.14503 7.82074 5.68463 8.60723 5C9.39259 5.68463 10.3562 6.14612 11.4 6.33333V7.01796C11.4 9.32871 9.49866 10.9135 8.60723 11.5295Z" fill="#EF6250"/>
<path d="M8.43519 9.55787C8.32235 9.55787 8.21515 9.51107 8.13955 9.42943L7.22442 8.43569C7.07999 8.27787 7.09465 8.03732 7.25714 7.89801C7.41963 7.75869 7.67014 7.77284 7.81457 7.92957L8.41036 8.57719L9.66627 6.98263C9.79829 6.81501 10.0465 6.78236 10.2192 6.90971C10.393 7.03705 10.4268 7.27651 10.2948 7.44304L8.74775 9.40658C8.67666 9.49692 8.56608 9.55243 8.44873 9.55678C8.44422 9.55678 8.43857 9.55678 8.43406 9.55678L8.43519 9.55787Z" fill="white"/>
<path d="M5 15.8457C5.32498 15.8457 5.47167 15.9622 5.67365 16.1233C5.89595 16.2996 6.17127 16.5194 6.69146 16.5194C7.21165 16.5194 7.48811 16.2996 7.70928 16.1233C7.91126 15.9622 8.05795 15.8457 8.38293 15.8457C8.70791 15.8457 8.8546 15.9622 9.05658 16.1233C9.27888 16.2996 9.5542 16.5194 10.0744 16.5194C10.5946 16.5194 10.871 16.2996 11.0922 16.1233C11.2942 15.9622 11.4409 15.8457 11.7659 15.8457C12.0908 15.8457 12.2375 15.9622 12.4395 16.1233C12.6618 16.2996 12.9371 16.5194 13.4585 16.5194C13.9798 16.5194 14.2551 16.2996 14.4774 16.1233C14.6794 15.9622 14.8261 15.8457 15.1522 15.8457V18.0367C15.1522 18.5918 14.6861 19.0413 14.1107 19.0413H6.04151C5.46603 19.0413 5 18.5918 5 18.0367V15.8457Z" fill="#6270F4"/>
<path d="M7.27452 17.9361C7.12671 17.9361 6.99355 17.8381 6.9597 17.6945C6.91908 17.5258 7.02741 17.3581 7.20231 17.319C7.68639 17.2101 7.99331 16.9609 8.17611 16.8118C8.29685 16.7138 8.47288 16.7138 8.59362 16.8118C8.77191 16.9565 9.0698 17.1981 9.53244 17.3103C9.70622 17.3527 9.81116 17.5225 9.76715 17.6901C9.72314 17.8577 9.54824 17.959 9.37334 17.9165C8.93101 17.8088 8.60716 17.615 8.38374 17.4528C8.15242 17.6215 7.81503 17.8229 7.34787 17.9274C7.32305 17.9328 7.29822 17.9361 7.27452 17.9361Z" fill="#D0DEF7"/>
<path d="M13.4625 17.998C13.265 17.998 13.0709 17.9795 12.887 17.9447C12.7222 17.9131 12.5609 17.8663 12.4074 17.8054C12.2416 17.7401 12.1614 17.5583 12.2291 17.3983C12.2968 17.2383 12.4853 17.161 12.6512 17.2263C12.7674 17.272 12.8893 17.3069 13.0134 17.3319C13.2831 17.3842 13.5922 17.3863 13.8653 17.3395C14.0402 17.3091 14.2095 17.4223 14.2411 17.592C14.2727 17.7618 14.1553 17.924 13.9793 17.9545C13.8123 17.9828 13.6385 17.998 13.4613 17.998H13.4625Z" fill="#D0DEF7"/>
<path d="M16.7169 12.0011C16.6379 12.0011 16.5589 11.975 16.4957 11.9216C16.3547 11.803 16.3389 11.5973 16.4619 11.4612L18.1838 9.54668L17.5711 9.03403C17.43 8.91539 17.4142 8.70967 17.5372 8.57362C17.6602 8.43756 17.8735 8.42232 18.0145 8.54096L18.8823 9.26695C19.0233 9.38559 19.0391 9.5913 18.9161 9.72736L16.9719 11.8879C16.9053 11.9619 16.8105 12 16.7158 12L16.7169 12.0011Z" fill="#6270F4"/>
<path d="M18.2837 7.86232L17.4397 7.15592C17.2366 6.98613 16.9297 7.00681 16.7525 7.20273L16.0371 7.99837L17.6157 9.31973L18.3311 8.52409C18.5072 8.32817 18.4857 8.03211 18.2826 7.86123L18.2837 7.86232Z" fill="#D0DEF7"/>
<path d="M16.0371 8L13.1259 11.4318L12.8833 11.7007L12.5605 13.5989L14.463 13.022L14.7045 12.7532L17.6169 9.32136L16.0371 8Z" fill="#6270F4"/>
<path d="M12.6604 14.0427C12.5464 14.0427 12.4313 14.0046 12.3399 13.9251C12.1391 13.7542 12.1199 13.4582 12.2971 13.2644L13.1885 12.2892C13.3656 12.0955 13.6726 12.077 13.8734 12.2478C14.0743 12.4187 14.0935 12.7148 13.9163 12.9085L13.0249 13.8838C12.929 13.9882 12.7947 14.0427 12.6604 14.0427Z" fill="#6270F4"/>
</svg>
