<svg width="16" height="17" viewBox="0 0 16 17" fill="none" xmlns="http://www.w3.org/2000/svg">
<path d="M7.99967 15.1663C7.08856 15.1663 6.22745 14.9913 5.41634 14.6413C4.60523 14.2913 3.8969 13.8136 3.29134 13.208C2.68579 12.6025 2.20801 11.8941 1.85801 11.083C1.50801 10.2719 1.33301 9.41079 1.33301 8.49967C1.33301 7.57745 1.51356 6.71079 1.87467 5.89967C2.23579 5.08856 2.72467 4.38301 3.34134 3.78301C3.95801 3.18301 4.67745 2.70801 5.49967 2.35801C6.3219 2.00801 7.19967 1.83301 8.13301 1.83301C9.0219 1.83301 9.86079 1.98579 10.6497 2.29134C11.4386 2.5969 12.1302 3.01912 12.7247 3.55801C13.3191 4.0969 13.7913 4.73579 14.1413 5.47467C14.4913 6.21356 14.6663 7.01079 14.6663 7.86634C14.6663 9.14412 14.2775 10.1247 13.4997 10.808C12.7219 11.4913 11.7775 11.833 10.6663 11.833H9.43301C9.33301 11.833 9.26356 11.8608 9.22467 11.9163C9.18579 11.9719 9.16634 12.033 9.16634 12.0997C9.16634 12.233 9.24967 12.4247 9.41634 12.6747C9.58301 12.9247 9.66634 13.2108 9.66634 13.533C9.66634 14.0886 9.51356 14.4997 9.20801 14.7663C8.90245 15.033 8.49967 15.1663 7.99967 15.1663ZM4.33301 9.16634C4.6219 9.16634 4.86079 9.0719 5.04967 8.88301C5.23856 8.69412 5.33301 8.45523 5.33301 8.16634C5.33301 7.87745 5.23856 7.63856 5.04967 7.44967C4.86079 7.26079 4.6219 7.16634 4.33301 7.16634C4.04412 7.16634 3.80523 7.26079 3.61634 7.44967C3.42745 7.63856 3.33301 7.87745 3.33301 8.16634C3.33301 8.45523 3.42745 8.69412 3.61634 8.88301C3.80523 9.0719 4.04412 9.16634 4.33301 9.16634ZM6.33301 6.49967C6.6219 6.49967 6.86079 6.40523 7.04967 6.21634C7.23856 6.02745 7.33301 5.78856 7.33301 5.49967C7.33301 5.21079 7.23856 4.9719 7.04967 4.78301C6.86079 4.59412 6.6219 4.49967 6.33301 4.49967C6.04412 4.49967 5.80523 4.59412 5.61634 4.78301C5.42745 4.9719 5.33301 5.21079 5.33301 5.49967C5.33301 5.78856 5.42745 6.02745 5.61634 6.21634C5.80523 6.40523 6.04412 6.49967 6.33301 6.49967ZM9.66634 6.49967C9.95523 6.49967 10.1941 6.40523 10.383 6.21634C10.5719 6.02745 10.6663 5.78856 10.6663 5.49967C10.6663 5.21079 10.5719 4.9719 10.383 4.78301C10.1941 4.59412 9.95523 4.49967 9.66634 4.49967C9.37745 4.49967 9.13856 4.59412 8.94967 4.78301C8.76079 4.9719 8.66634 5.21079 8.66634 5.49967C8.66634 5.78856 8.76079 6.02745 8.94967 6.21634C9.13856 6.40523 9.37745 6.49967 9.66634 6.49967ZM11.6663 9.16634C11.9552 9.16634 12.1941 9.0719 12.383 8.88301C12.5719 8.69412 12.6663 8.45523 12.6663 8.16634C12.6663 7.87745 12.5719 7.63856 12.383 7.44967C12.1941 7.26079 11.9552 7.16634 11.6663 7.16634C11.3775 7.16634 11.1386 7.26079 10.9497 7.44967C10.7608 7.63856 10.6663 7.87745 10.6663 8.16634C10.6663 8.45523 10.7608 8.69412 10.9497 8.88301C11.1386 9.0719 11.3775 9.16634 11.6663 9.16634Z" fill="#58616A"/>
</svg>
