<svg width="21" height="20" viewBox="0 0 21 20" fill="none" xmlns="http://www.w3.org/2000/svg">
<path d="M4.46956 17.0837C4.11136 17.0837 3.80456 16.956 3.54914 16.7006C3.29372 16.4452 3.16602 16.1384 3.16602 15.7802V4.22057C3.16602 3.86238 3.29372 3.55557 3.54914 3.30016C3.80456 3.04474 4.11136 2.91703 4.46956 2.91703H12.1677L11.1206 3.96412H4.46956C4.40539 3.96412 4.34657 3.99078 4.2931 4.04411C4.23977 4.09759 4.2131 4.15641 4.2131 4.22057V15.7802C4.2131 15.8443 4.23977 15.9031 4.2931 15.9566C4.34657 16.0099 4.40539 16.0366 4.46956 16.0366H16.0291C16.0933 16.0366 16.1521 16.0099 16.2056 15.9566C16.2589 15.9031 16.2856 15.8443 16.2856 15.7802V9.0537L17.3327 8.00682V15.7802C17.3327 16.1384 17.205 16.4452 16.9496 16.7006C16.6941 16.956 16.3873 17.0837 16.0291 17.0837H4.46956ZM8.16602 12.0837V9.22307L15.8706 1.51849C15.9757 1.41349 16.0925 1.33793 16.221 1.29182C16.3496 1.24571 16.4809 1.22266 16.6148 1.22266C16.7462 1.22266 16.8762 1.2471 17.005 1.29599C17.1337 1.34502 17.2509 1.4212 17.3566 1.52453L18.6766 2.8412C18.7823 2.94939 18.8623 3.06925 18.9166 3.20078C18.9711 3.33245 18.9983 3.46578 18.9983 3.60078C18.9983 3.73578 18.9741 3.86849 18.9258 3.99891C18.8775 4.12932 18.7998 4.24842 18.6927 4.3562L10.9864 12.0837H8.16602ZM9.2131 11.0366H10.5475L15.9529 5.6312L15.2841 4.96557L14.5816 4.28932L9.2131 9.64932V11.0366Z" fill="#1E2124"/>
</svg>
