<svg width="20" height="20" viewBox="0 0 20 20" fill="none" xmlns="http://www.w3.org/2000/svg">
<path d="M4.42345 17.0832C4.00248 17.0832 3.64616 16.9373 3.35449 16.6457C3.06283 16.354 2.91699 15.9977 2.91699 15.5767V4.42296C2.91699 4.00199 3.06283 3.64567 3.35449 3.354C3.64616 3.06234 4.00248 2.9165 4.42345 2.9165H9.6797V4.1665H4.42345C4.35928 4.1665 4.30053 4.19324 4.2472 4.24671C4.19373 4.30005 4.16699 4.3588 4.16699 4.42296V15.5767C4.16699 15.6409 4.19373 15.6996 4.2472 15.753C4.30053 15.8064 4.35928 15.8332 4.42345 15.8332H15.5772C15.6414 15.8332 15.7001 15.8064 15.7535 15.753C15.8069 15.6996 15.8337 15.6409 15.8337 15.5767V10.3205H17.0837V15.5767C17.0837 15.9977 16.9378 16.354 16.6462 16.6457C16.3545 16.9373 15.9982 17.0832 15.5772 17.0832H4.42345ZM8.0997 12.7786L7.22158 11.9005L14.9555 4.1665H11.667V2.9165H17.0837V8.33317H15.8337V5.04463L8.0997 12.7786Z" fill="#256EF4"/>
</svg>
