<svg width="20" height="20" viewBox="0 0 20 20" fill="none" xmlns="http://www.w3.org/2000/svg">
<path d="M9.375 18.5V17.0577C7.63889 16.8792 6.17736 16.1965 4.99042 15.0096C3.80347 13.8226 3.12076 12.3611 2.94229 10.625H1.5V9.375H2.94229C3.12076 7.63889 3.80347 6.17736 4.99042 4.99042C6.17736 3.80347 7.63889 3.12076 9.375 2.94229V1.5H10.625V2.94229C12.3611 3.12076 13.8226 3.80347 15.0096 4.99042C16.1965 6.17736 16.8792 7.63889 17.0577 9.375H18.5V10.625H17.0577C16.8792 12.3611 16.1965 13.8226 15.0096 15.0096C13.8226 16.1965 12.3611 16.8792 10.625 17.0577V18.5H9.375ZM10 15.8333C11.6111 15.8333 12.9861 15.2639 14.125 14.125C15.2639 12.9861 15.8333 11.6111 15.8333 10C15.8333 8.38889 15.2639 7.01389 14.125 5.875C12.9861 4.73611 11.6111 4.16667 10 4.16667C8.38889 4.16667 7.01389 4.73611 5.875 5.875C4.73611 7.01389 4.16667 8.38889 4.16667 10C4.16667 11.6111 4.73611 12.9861 5.875 14.125C7.01389 15.2639 8.38889 15.8333 10 15.8333ZM10 12.9167C9.19792 12.9167 8.51132 12.631 7.94021 12.0598C7.36896 11.4887 7.08333 10.8021 7.08333 10C7.08333 9.19792 7.36896 8.51132 7.94021 7.94021C8.51132 7.36896 9.19792 7.08333 10 7.08333C10.8021 7.08333 11.4887 7.36896 12.0598 7.94021C12.631 8.51132 12.9167 9.19792 12.9167 10C12.9167 10.8021 12.631 11.4887 12.0598 12.0598C11.4887 12.631 10.8021 12.9167 10 12.9167Z" fill="#256EF4"/>
</svg>
