<svg width="165" height="40" viewBox="0 0 165 40" fill="none" xmlns="http://www.w3.org/2000/svg">
<path d="M40.6393 20C40.6393 31.047 31.5432 40 20.3196 40C9.09606 40 0 31.047 0 20C0 8.95298 9.09606 0 20.3196 0C31.5432 0 40.6393 8.95298 40.6393 20Z" fill="white"/>
<path d="M29.8736 18.6082C26.6377 16.4452 22.4974 17.3292 20.3253 20.5768C18.5162 23.2978 15.7772 23.6364 14.7198 23.6364C11.2547 23.6364 8.89785 21.2414 8.1908 18.7649C8.1908 18.7649 8.17806 18.7147 8.17169 18.6959C8.16532 18.6709 8.15895 18.6395 8.15258 18.6144C7.87868 17.5799 7.80861 17.0847 7.80861 15.9875C7.80861 10.0627 13.9873 3.46709 22.8732 3.46709C31.759 3.46709 37.1925 10.2884 38.5365 14.0815C38.511 14.0125 38.4855 13.9436 38.4664 13.8809C35.8739 6.45769 28.727 1.12854 20.3125 1.12854C9.72592 1.12854 1.13944 9.57368 1.13944 20C1.13944 29.3166 7.96786 37.2915 17.4397 37.2915C24.9943 37.2915 30.071 33.1223 32.396 27.3793C33.6763 24.2383 32.7718 20.5455 29.8736 18.6082Z" fill="#003964"/>
<path d="M38.6458 14.445C37.5247 10.7459 32.276 3.46068 22.8614 3.46068C13.9692 3.46068 7.79686 10.0563 7.79686 15.9811C7.79686 17.0782 7.86692 17.5735 8.14082 18.608C8.02617 18.1566 7.96884 17.7052 7.96884 17.2601C7.96884 11.0908 14.2431 6.82118 20.6893 6.82118C29.4223 6.82118 36.4991 13.7867 36.4991 22.3823C36.4991 29.1158 32.5626 34.9528 26.8425 37.7553C34.2188 35.1284 39.4866 28.1754 39.4866 20.0061C39.4866 18.0751 39.2254 16.3698 38.6458 14.4513" fill="#ED1A3B"/>
<path d="M50.4313 29.405V10.3967H54.3774V18.8244H54.6405L61.5593 10.3967H66.321L59.218 18.9032L66.3999 29.405H61.6645L56.3768 21.5549L54.3774 23.9703V29.405H50.4313Z" fill="#58616A"/>
<path d="M75.0287 18.3518V21.4499H66.3473V18.3518H75.0287Z" fill="#58616A"/>
<path d="M94.9434 19.9009C94.9434 26.0969 91.0762 29.6676 86.0515 29.6676C80.9742 29.6676 77.1333 26.0707 77.1333 19.9009C77.1333 13.7048 80.9742 10.1342 86.0515 10.1342C91.0762 10.1342 94.9434 13.7048 94.9434 19.9009ZM90.9184 19.9009C90.9184 15.8314 88.9979 13.626 86.0515 13.626C83.1051 13.626 81.1583 15.8314 81.1583 19.9009C81.1583 23.9703 83.1051 26.1757 86.0515 26.1757C88.9979 26.1757 90.9184 23.9703 90.9184 19.9009Z" fill="#58616A"/>
<path d="M109.676 17.0129C109.36 14.9125 107.729 13.626 105.519 13.626C102.546 13.626 100.599 15.9102 100.599 19.9009C100.599 23.9966 102.573 26.1757 105.493 26.1757C107.676 26.1757 109.281 24.968 109.676 22.9201L113.674 22.9464C113.227 26.4645 110.281 29.6676 105.44 29.6676C100.336 29.6676 96.5745 26.0969 96.5745 19.9009C96.5745 13.7048 100.415 10.1342 105.44 10.1342C109.833 10.1342 113.148 12.6546 113.674 17.0129H109.676Z" fill="#58616A"/>
<path d="M115.595 29.405V10.3967H128.38V13.6523H119.541V18.2731H127.722V21.5287H119.541V26.1495H128.406V29.405H115.595Z" fill="#58616A"/>
<path d="M133.799 29.405H129.538L136.141 10.3967H141.218L147.795 29.405H143.559L142.139 25.0205H135.246L133.799 29.405ZM136.246 21.9487H141.139L138.745 14.6762H138.614L136.246 21.9487Z" fill="#58616A"/>
<path d="M165 10.3967V29.405H161.58L153.214 17.3279H153.056V29.405H149.11V10.3967H152.583L160.896 22.4738H161.08V10.3967H165Z" fill="#58616A"/>
</svg>
