<svg width="16" height="16" viewBox="0 0 16 16" fill="none" xmlns="http://www.w3.org/2000/svg">
<path fill-rule="evenodd" clip-rule="evenodd" d="M14.667 7.99997C14.667 8.14504 14.6079 8.28386 14.5033 8.38441L11.0367 11.7177C10.8243 11.9219 10.4867 11.9153 10.2825 11.703C10.0784 11.4906 10.085 11.153 10.2973 10.9489L12.8095 8.5333L1.86751 8.5333C1.57296 8.5333 1.33418 8.29452 1.33418 7.99997C1.33418 7.70542 1.57296 7.46663 1.86751 7.46663L12.8095 7.46663L10.2973 5.05108C10.085 4.84692 10.0784 4.5093 10.2825 4.29698C10.4867 4.08465 10.8243 4.07803 11.0367 4.28219L14.5033 7.61552C14.6079 7.71608 14.667 7.85489 14.667 7.99997Z" fill="#083891"/>
</svg>
