<svg width="42" height="42" viewBox="0 0 42 42" fill="none" xmlns="http://www.w3.org/2000/svg">
<g clip-path="url(#clip0_1624_33543)">
<g clip-path="url(#clip1_1624_33543)">
<rect x="1" y="1" width="40" height="40" rx="20" fill="#F4F5F6"/>
<path d="M-9.12626 29.6395C-5.20094 28.3985 -1.2844 27.8448 2.60579 29.6108C6.52233 31.3768 9.96467 34.2311 13.328 36.9899C20.1688 42.5934 26.9656 48.3974 35.2553 51.2134C37.9512 52.1299 40.7438 52.6835 43.5538 52.7981C53.9248 47.3187 62.1793 37.8777 66.6755 26.2888L60.0191 26.327C59.6503 27.5202 59.0443 28.6849 58.1574 29.754C55.9094 32.4651 52.6866 33.4197 49.4199 33.0187C45.837 32.5892 42.6581 30.47 39.7778 28.2457C39.0138 27.6539 38.2586 27.0525 37.5122 26.4415C32.5858 22.4418 27.8877 18.1461 22.2412 15.2918C16.0063 12.1321 8.79674 10.6906 2.09647 12.848C-1.37221 13.9554 -4.6038 16.1032 -6.86942 19.2152C-7.41387 19.9598 -7.86173 20.7903 -8.22177 21.6781C-9.20529 24.1123 -9.49508 26.9761 -9.14382 29.6299L-9.12626 29.6395Z" fill="#E6E8EA"/>
<path d="M38.3368 20.3428C30.6793 18.424 23.2765 15.5125 15.3556 15.1307C7.74209 14.7679 -0.196362 16.5912 -6.22923 21.8892C-7.56402 23.0634 -8.76708 24.4094 -9.81208 25.8986C-9.98771 23.4548 -9.63645 20.9824 -8.64414 18.9395C-6.94053 15.4361 -4.12168 12.6869 -0.907661 10.8922C5.32719 7.42703 12.6509 7.41748 19.3161 9.27896C26.2534 11.2168 32.2951 15.2834 38.7319 18.5195C41.5156 19.9132 44.5014 21.1924 47.5924 21.3165C44.5101 21.6888 41.34 21.1065 38.3368 20.3523V20.3428Z" fill="#E6E8EA"/>
<path d="M-6.22867 21.8884C-0.195802 16.5904 7.74265 14.7671 15.3562 15.1298C23.2859 15.5117 30.6799 18.4232 38.3373 20.3419C41.3406 21.0961 44.5107 21.6784 47.593 21.3061C48.4184 21.2106 49.2439 21.0579 50.0606 20.8001C53.5556 19.7024 56.4974 17.2395 57.7444 13.4402C58.0781 12.4283 58.2625 11.426 58.324 10.4618C57.8761 5.71745 54.0298 1.63175 49.1912 1.23082C50.2186 0.658061 51.2988 0.295311 52.3965 0.113937C55.4173 -0.401548 58.5786 0.448046 61.2131 2.2236C64.673 4.55283 66.9913 8.41897 67.9309 12.6956C69.7662 21.0483 66.5346 29.6493 60.6774 35.1478C54.504 40.9518 46.1616 43.0233 38.1792 41.9923C29.5471 40.8754 21.8808 36.532 14.2146 32.3795C10.4473 30.3462 6.57472 28.2174 2.42986 27.2723C-1.70621 26.3177 -5.45591 27.6351 -9.109 29.6493C-9.4866 28.456 -9.71492 27.1864 -9.80273 25.9073C-8.75774 24.4276 -7.55468 23.0721 -6.21989 21.8979L-6.22867 21.8884Z" fill="#F4F5F6"/>
<path d="M18.0422 30.7165C16.962 29.0268 17.3484 26.7071 18.9027 25.533C20.4571 24.3588 22.591 24.7789 23.6711 26.4685C24.7512 28.1581 24.3648 30.4778 22.8105 31.652C21.2562 32.8261 19.1223 32.4061 18.0422 30.7165Z" fill="#E6E8EA"/>
<path d="M31.4866 24.713C30.9071 23.8061 31.109 22.5556 31.9433 21.9256C32.7775 21.2955 33.9279 21.5151 34.5075 22.422C35.0871 23.3288 34.8851 24.5794 34.0508 25.2094C33.2166 25.8394 32.0662 25.6199 31.4866 24.713Z" fill="#E6E8EA"/>
<path d="M11.8867 21.6676C11.1139 20.4553 11.3861 18.7943 12.5014 17.9542C13.6166 17.1142 15.1446 17.4101 15.9174 18.6224C16.6901 19.8348 16.4179 21.4958 15.3027 22.3358C14.1874 23.1759 12.6594 22.88 11.8867 21.6676Z" fill="#E6E8EA"/>
</g>
<path d="M13 27C12.7167 27 12.4792 26.9042 12.2875 26.7125C12.0958 26.5208 12 26.2833 12 26C12 25.7167 12.0958 25.4792 12.2875 25.2875C12.4792 25.0958 12.7167 25 13 25H29C29.2833 25 29.5208 25.0958 29.7125 25.2875C29.9042 25.4792 30 25.7167 30 26C30 26.2833 29.9042 26.5208 29.7125 26.7125C29.5208 26.9042 29.2833 27 29 27H13ZM13 22C12.7167 22 12.4792 21.9042 12.2875 21.7125C12.0958 21.5208 12 21.2833 12 21C12 20.7167 12.0958 20.4792 12.2875 20.2875C12.4792 20.0958 12.7167 20 13 20H29C29.2833 20 29.5208 20.0958 29.7125 20.2875C29.9042 20.4792 30 20.7167 30 21C30 21.2833 29.9042 21.5208 29.7125 21.7125C29.5208 21.9042 29.2833 22 29 22H13ZM13 17C12.7167 17 12.4792 16.9042 12.2875 16.7125C12.0958 16.5208 12 16.2833 12 16C12 15.7167 12.0958 15.4792 12.2875 15.2875C12.4792 15.0958 12.7167 15 13 15H29C29.2833 15 29.5208 15.0958 29.7125 15.2875C29.9042 15.4792 30 15.7167 30 16C30 16.2833 29.9042 16.5208 29.7125 16.7125C29.5208 16.9042 29.2833 17 29 17H13Z" fill="#8A949E"/>
</g>
<rect x="0.5" y="0.5" width="41" height="41" rx="20.5" stroke="#8A949E"/>
<defs>
<clipPath id="clip0_1624_33543">
<rect x="1" y="1" width="40" height="40" rx="20" fill="white"/>
</clipPath>
<clipPath id="clip1_1624_33543">
<rect x="1" y="1" width="40" height="40" rx="20" fill="white"/>
</clipPath>
</defs>
</svg>
