<svg width="33" height="32" viewBox="0 0 33 32" fill="none" xmlns="http://www.w3.org/2000/svg">
<path d="M26.9004 19.1328C27.3669 19.1328 27.7611 19.2943 28.0832 19.6164C28.4054 19.9386 28.5668 20.3333 28.5668 20.8C28.5667 21.27 28.4053 21.6655 28.0832 21.9859C27.7611 22.3061 27.3668 22.4663 26.9004 22.4664C26.4338 22.4664 26.039 22.3062 25.7168 21.9859C25.3947 21.6655 25.2333 21.27 25.2332 20.8C25.2332 20.3333 25.3946 19.9386 25.7168 19.6164C26.039 19.2941 26.4337 19.1328 26.9004 19.1328Z" fill="white"/>
<path fill-rule="evenodd" clip-rule="evenodd" d="M26.8988 16C28.2239 16 29.3556 16.4683 30.2934 17.4054C31.2309 18.3425 31.6996 19.4744 31.6996 20.8C31.6996 21.5713 31.5447 22.3063 31.2348 23.0046C30.9248 23.703 30.5338 24.3503 30.0621 24.946C29.5432 25.6185 29.0474 26.3025 28.5754 26.9976C28.1035 27.6928 27.7311 28.4482 27.4582 29.264C27.4207 29.3813 27.3527 29.478 27.2543 29.5531C27.1559 29.6284 27.0378 29.6656 26.9012 29.6656C26.7645 29.6655 26.6465 29.6283 26.5473 29.5531C26.4479 29.478 26.3794 29.3813 26.3418 29.264C26.0678 28.449 25.7001 27.6921 25.2395 26.9937C24.7791 26.2956 24.281 25.6131 23.7457 24.946C23.2673 24.3579 22.8738 23.7121 22.5645 23.0093C22.2551 22.3064 22.1004 21.5707 22.1004 20.8023C22.1004 19.4747 22.569 18.3423 23.5059 17.4054C24.4425 16.4684 25.5736 16 26.8988 16ZM26.9004 17.6882C26.0337 17.6882 25.2979 17.9915 24.6941 18.5968C24.0905 19.2023 23.7887 19.9377 23.7887 20.8023C23.7887 21.3933 23.9168 21.9511 24.1723 22.475C24.4278 22.9988 24.7332 23.4924 25.0887 23.9554C25.4146 24.3627 25.7278 24.7681 26.0277 25.1718C26.3277 25.5754 26.6188 25.9957 26.9004 26.4328C27.1817 25.9958 27.474 25.5753 27.7777 25.1718C28.0815 24.7681 28.3929 24.3627 28.7113 23.9554C29.0668 23.4923 29.3722 22.999 29.6277 22.4757C29.8832 21.9523 30.0113 21.3936 30.0113 20.8C30.0113 19.9368 29.7089 19.2024 29.1051 18.5968C28.5016 17.9916 27.7669 17.6883 26.9004 17.6882Z" fill="white"/>
<path fill-rule="evenodd" clip-rule="evenodd" d="M16.4988 2.43823C18.3795 2.43823 20.1448 2.79387 21.7941 3.50542C23.4432 4.21693 24.8775 5.18262 26.0973 6.40229C27.3173 7.62185 28.2834 9.05653 28.9949 10.7054C29.0502 10.8335 29.1025 10.9626 29.1535 11.0921C29.1802 11.16 29.2069 11.2278 29.2324 11.296C29.2492 11.341 29.2654 11.3861 29.2816 11.4312C29.2994 11.4803 29.3169 11.5295 29.334 11.5789C29.3879 11.7341 29.4384 11.8904 29.4863 12.0476C29.4981 12.0864 29.5101 12.1251 29.5215 12.164C29.6345 12.5476 29.7306 12.9368 29.8082 13.332C28.9611 13.003 28.0528 12.8257 27.0988 12.8039C27.0129 12.5049 26.9127 12.212 26.8012 11.9242C26.6741 11.8497 26.5495 11.7741 26.4277 11.6968C25.9603 11.4 25.4921 11.1293 25.023 10.8851C24.5542 10.6409 23.9844 10.5187 23.3145 10.5187C22.6539 10.5187 22.0783 10.645 21.5879 10.8976C21.0975 11.1502 20.6128 11.4287 20.134 11.732C19.6553 12.0353 19.1284 12.3147 18.5535 12.5703C17.9786 12.8258 17.2736 12.9539 16.4387 12.9539C15.6038 12.9539 14.8986 12.8261 14.323 12.571C13.7475 12.3162 13.2209 12.0371 12.7434 11.7335C12.2659 11.4298 11.7831 11.1513 11.2949 10.8984C10.807 10.6455 10.2298 10.5187 9.56367 10.5187C8.90078 10.5187 8.32962 10.6409 7.85117 10.8851C7.37258 11.1293 6.90284 11.4 6.4418 11.6968C6.37615 11.7391 6.30838 11.7788 6.24102 11.8203C5.8444 12.8087 5.60058 13.8639 5.50977 14.9859C5.64253 14.9033 5.77718 14.8219 5.91055 14.7367C6.37226 14.4416 6.88717 14.1781 7.45508 13.9468C8.02308 13.7155 8.72488 13.6 9.55977 13.6C10.4023 13.6 11.1118 13.7269 11.6887 13.9804C12.2657 14.234 12.7938 14.5123 13.2723 14.8156C13.7509 15.1191 14.2346 15.3984 14.723 15.6531C15.2117 15.9075 15.7831 16.0343 16.4371 16.0343C17.0964 16.0343 17.6691 15.907 18.1551 15.6515C18.641 15.396 19.1234 15.1164 19.6027 14.814C20.082 14.5116 20.6122 14.234 21.1926 13.9804C21.7728 13.7269 22.4797 13.6 23.3121 13.6C23.3354 13.6 23.3586 13.6006 23.3816 13.6007C22.6061 13.9827 21.8884 14.4977 21.2434 15.1429C20.4849 15.9013 19.9054 16.7592 19.5121 17.6945C19.2086 17.8604 18.89 18.0207 18.5535 18.1703C17.9786 18.4258 17.2736 18.5539 16.4387 18.5539C15.6038 18.5539 14.8986 18.4261 14.323 18.171C13.7475 17.9162 13.2209 17.6371 12.7434 17.3335C12.2659 17.0298 11.7831 16.7513 11.2949 16.4984C10.807 16.2455 10.2298 16.1187 9.56367 16.1187C8.90078 16.1187 8.32962 16.2409 7.85117 16.4851C7.37258 16.7293 6.90284 17 6.4418 17.2968C6.17533 17.4683 5.89371 17.6313 5.59883 17.789C5.94261 20.0903 6.97158 22.0987 8.68633 23.814C10.8312 25.959 13.4358 27.0312 16.5004 27.0312C18.023 27.0312 19.4306 26.7679 20.7238 26.2421C20.8907 26.483 21.0657 26.7188 21.2512 26.9476L21.2504 26.9484C21.6029 27.3876 21.9351 27.8336 22.2488 28.2851C22.099 28.3558 21.9477 28.4252 21.7941 28.4914C20.1459 29.2016 18.3816 29.557 16.5012 29.557C14.6357 29.557 12.8787 29.2015 11.2301 28.4914C9.58141 27.7811 8.14279 26.8124 6.91523 25.5851C5.68802 24.3576 4.71917 22.9199 4.00898 21.2718C3.62965 20.3915 3.3522 19.4799 3.17539 18.5375C3.17163 18.5174 3.16812 18.4981 3.16445 18.4781C3.15125 18.4059 3.13897 18.3335 3.12695 18.2609C3.1195 18.2159 3.11208 18.1709 3.10508 18.1257C3.09618 18.0683 3.08746 18.0108 3.0793 17.9531C3.07391 17.9151 3.06874 17.8771 3.06367 17.839C3.04088 17.6673 3.02058 17.4947 3.0043 17.321C2.9977 17.2509 2.99264 17.1806 2.98711 17.1101C2.98477 17.0802 2.98145 17.0503 2.9793 17.0203C2.97496 16.96 2.97192 16.8995 2.96836 16.839C2.95476 16.6069 2.94712 16.3731 2.94492 16.1375C2.94458 16.1016 2.94343 16.0656 2.94336 16.0296V16.0007C2.94337 14.9398 3.05618 13.9155 3.28242 12.9281C3.33028 12.7192 3.38301 12.5126 3.44102 12.307C3.45392 12.2612 3.46823 12.2159 3.48164 12.1703C3.49666 12.1192 3.5113 12.068 3.52695 12.0171C3.53833 11.9801 3.54962 11.9431 3.56133 11.9062C3.58658 11.8267 3.61344 11.7477 3.64023 11.6687C3.64809 11.6455 3.65569 11.6223 3.66367 11.5992C3.68153 11.5475 3.69984 11.496 3.71836 11.4445C3.73919 11.3866 3.75997 11.3287 3.78164 11.271C3.85292 11.0816 3.92864 10.8935 4.00898 10.707C4.09733 10.5019 4.18921 10.3 4.28555 10.1015C4.96362 8.70494 5.84043 7.47207 6.91445 6.40386C8.14131 5.18367 9.57934 4.21797 11.2277 3.5062C12.8761 2.79446 14.6331 2.43826 16.4988 2.43823ZM16.498 4.9687C13.5062 4.9687 10.9515 5.99009 8.83477 8.03276C9.06412 8.01137 9.30575 7.99995 9.55977 7.99995C10.4023 7.99996 11.1118 8.12695 11.6887 8.38042C12.2657 8.63396 12.7938 8.91227 13.2723 9.21558C13.7509 9.51913 14.2346 9.79841 14.723 10.0531C15.2117 10.3075 15.7831 10.4343 16.4371 10.4343C17.0964 10.4343 17.6691 10.307 18.1551 10.0515C18.641 9.79598 19.1234 9.51643 19.6027 9.21401C20.082 8.9116 20.6122 8.63396 21.1926 8.38042C21.7728 8.12686 22.4797 7.99995 23.3121 7.99995C23.6236 7.99996 23.9155 8.01558 24.1879 8.04683C22.0738 5.99532 19.5109 4.96877 16.498 4.9687Z" fill="white"/>
</svg>
