<svg width="33" height="32" viewBox="0 0 33 32" fill="none" xmlns="http://www.w3.org/2000/svg">
<path d="M5.31758 27.1832H25.4613V29.7137H5.31758C4.62736 29.7137 4.03299 29.4645 3.53477 28.966C3.03636 28.4678 2.78711 27.8734 2.78711 27.1832V7.03945H5.31758V27.1832Z" fill="white"/>
<path d="M22.1566 14.348C22.5373 14.3481 22.8616 14.4806 23.1293 14.7457C23.3968 15.0112 23.5308 15.3326 23.5309 15.709C23.5309 16.0857 23.3967 16.4085 23.1285 16.677C22.8601 16.9456 22.535 17.08 22.1535 17.0801H20.8066C20.4224 17.0801 20.0971 16.9456 19.8309 16.677C19.5649 16.4085 19.4316 16.0858 19.4316 15.7098C19.4317 15.334 19.565 15.0132 19.8309 14.7473C20.097 14.4813 20.4216 14.3481 20.8043 14.348H22.1566Z" fill="white"/>
<path d="M24.4605 8.85195C24.9078 8.85201 25.2697 9.03084 25.5457 9.38789C25.8215 9.74493 25.8901 10.1391 25.752 10.5699L25.2207 12.066C25.1169 12.348 24.9526 12.5703 24.7293 12.7316C24.5061 12.8925 24.2606 12.973 23.9926 12.973C23.5459 12.973 23.1842 12.7947 22.9082 12.4387C22.6324 12.0828 22.5649 11.6889 22.7066 11.2574L23.2324 9.75977C23.3351 9.48132 23.4989 9.26053 23.7238 9.09727C23.9489 8.93393 24.1948 8.85195 24.4605 8.85195Z" fill="white"/>
<path fill-rule="evenodd" clip-rule="evenodd" d="M27.6832 2.28711C28.3734 2.28711 28.9678 2.53636 29.466 3.03477C29.9645 3.53299 30.2137 4.12736 30.2137 4.81758V22.4363C30.2136 23.1249 29.9644 23.718 29.466 24.2152C28.9678 24.7125 28.3734 24.9613 27.6832 24.9613H10.0645C9.98581 24.9613 9.90852 24.9572 9.83242 24.9504C9.24186 24.9 8.72602 24.6557 8.28555 24.2152C7.9248 23.8545 7.69554 23.4431 7.59648 22.9816L7.5957 22.9809C7.59404 22.9731 7.59261 22.9652 7.59102 22.9574C7.58417 22.9239 7.57852 22.89 7.57305 22.8559C7.57199 22.8493 7.57014 22.8429 7.56914 22.8363C7.56317 22.7971 7.55846 22.7575 7.5543 22.7176C7.55378 22.7126 7.55323 22.7077 7.55273 22.7027C7.55158 22.691 7.55061 22.6793 7.54961 22.6676C7.54313 22.5917 7.53946 22.5147 7.53945 22.4363V4.81758C7.53945 4.12741 7.78829 3.53297 8.28555 3.03477C8.7828 2.5364 9.37592 2.28719 10.0645 2.28711H27.6832ZM23.5309 6.11836C23.5309 6.87014 23.2631 7.51405 22.7277 8.04961C22.1922 8.5849 21.5482 8.85273 20.7965 8.85273H19.4316V11.609C19.4316 11.9864 19.2962 12.3079 19.0254 12.5738C18.7545 12.8398 18.4322 12.973 18.0582 12.973H16.6934V15.2941C16.6933 15.7971 16.5221 16.2202 16.1801 16.5637C15.8379 16.9074 15.4147 17.0801 14.9113 17.0801C14.6031 17.08 14.3135 17.0115 14.0426 16.8754C13.7717 16.7389 13.5515 16.5474 13.3824 16.3012L11.1988 12.973H10.0645V21.8434C10.257 22.0463 10.4583 22.2442 10.6691 22.4363H15.3051C15.3367 21.7378 15.6062 21.135 16.1137 20.6285C16.6549 20.0884 17.3044 19.8184 18.0613 19.8184L18.8707 19.0418C19.052 18.8654 19.2637 18.7221 19.5051 18.6121C19.7464 18.5021 19.9936 18.4473 20.2465 18.4473C20.7834 18.4473 21.2382 18.6377 21.6105 19.0191C21.9827 19.4006 22.1691 19.8581 22.1691 20.391V20.984C22.1691 21.4266 22.3218 21.8028 22.6277 22.1121C22.7668 22.2528 22.9207 22.3596 23.0879 22.4363H24.3863C24.4858 22.3898 24.582 22.3328 24.6738 22.2629C24.9478 22.0544 25.1438 21.791 25.2613 21.473L25.6754 20.3332C25.8725 19.7733 26.198 19.319 26.6512 18.9699C26.9616 18.7307 27.3059 18.5751 27.6832 18.4996V9.08164C27.6291 8.98574 27.5734 8.89042 27.516 8.7957C26.5062 7.12905 25.1777 5.81068 23.5309 4.8418V6.11836Z" fill="white"/>
</svg>
