<svg width="33" height="32" viewBox="0 0 33 32" fill="none" xmlns="http://www.w3.org/2000/svg">
<path d="M16.4998 29.7427C14.6004 29.7427 12.815 29.3831 11.1434 28.6637C9.47188 27.9442 8.01699 26.9657 6.77877 25.7284C5.54032 24.4911 4.56088 23.0365 3.84043 21.3647C3.11999 19.693 2.75977 17.9067 2.75977 16.0061C2.75977 13.3396 3.4651 10.8904 4.87577 8.65841C6.28643 6.42619 8.19988 4.73674 10.6161 3.59008C10.6101 4.00141 10.6272 4.41063 10.6674 4.81774C10.7079 5.22485 10.7863 5.67452 10.9028 6.16674C9.12743 7.1823 7.73043 8.56652 6.71177 10.3194C5.69332 12.0723 5.1841 13.9685 5.1841 16.0081C5.1841 19.1563 6.2831 21.828 8.4811 24.0231C10.6791 26.2182 13.3524 27.3157 16.5011 27.3157C19.6495 27.3157 22.3224 26.2182 24.5198 24.0231C26.7169 21.828 27.8154 19.1563 27.8154 16.0081C27.8154 13.9536 27.3049 12.0519 26.2838 10.3027C25.2627 8.55363 23.8559 7.1713 22.0634 6.15574C22.1799 5.6433 22.2633 5.18619 22.3138 4.78441C22.3642 4.38263 22.3892 3.98452 22.3888 3.59008C24.8014 4.73674 26.7131 6.42508 28.1238 8.65508C29.5344 10.8851 30.2398 13.3361 30.2398 16.0081C30.2398 17.9074 29.8798 19.6929 29.1598 21.3644C28.4398 23.036 27.4605 24.4909 26.2221 25.7291C24.9834 26.9675 23.5282 27.9461 21.8564 28.6647C20.1847 29.3834 18.3991 29.7427 16.4998 29.7427ZM16.4998 24.2471C14.2084 24.2471 12.2624 23.4461 10.6618 21.8441C9.0611 20.2421 8.26077 18.2967 8.26077 16.0081C8.26077 14.6481 8.56654 13.3792 9.1781 12.2014C9.78988 11.0239 10.6538 10.0432 11.7698 9.25941C11.8678 9.56697 11.9808 9.91941 12.1088 10.3167C12.2368 10.7141 12.3985 11.1932 12.5941 11.7541C11.9819 12.301 11.5111 12.9381 11.1818 13.6654C10.8522 14.3927 10.6874 15.1736 10.6874 16.0081C10.6874 17.6212 11.2531 18.9923 12.3844 20.1214C13.5155 21.2505 14.8873 21.8151 16.4998 21.8151C18.1122 21.8151 19.484 21.2505 20.6151 20.1214C21.7464 18.9923 22.3121 17.6212 22.3121 16.0081C22.3121 15.1736 22.1474 14.3931 21.8181 13.6664C21.4885 12.94 21.0194 12.3025 20.4108 11.7541C20.5785 11.2345 20.7269 10.7723 20.8558 10.3674C20.9849 9.96274 21.1011 9.59341 21.2044 9.25941C22.3204 10.0432 23.1885 11.0239 23.8088 12.2014C24.4288 13.3792 24.7388 14.6481 24.7388 16.0081C24.7388 18.2967 23.9384 20.2421 22.3378 21.8441C20.7371 23.4461 18.7911 24.2471 16.4998 24.2471ZM15.2538 11.0767C14.4127 8.63052 13.872 6.93874 13.6318 6.00141C13.3918 5.06385 13.2718 4.19219 13.2718 3.38641C13.2718 2.48108 13.5839 1.71585 14.2081 1.09074C14.8321 0.46563 15.5961 0.153076 16.5001 0.153076C17.4041 0.153076 18.1689 0.46563 18.7944 1.09074C19.4202 1.71585 19.7331 2.48108 19.7331 3.38641C19.7331 4.1853 19.6119 5.04996 19.3694 5.98041C19.1268 6.91085 18.5847 8.60963 17.7431 11.0767H15.2538ZM16.4988 18.5164C15.8023 18.5164 15.209 18.271 14.7188 17.7801C14.2285 17.2894 13.9834 16.6957 13.9834 15.9991C13.9834 15.3026 14.2289 14.7093 14.7198 14.2191C15.2104 13.7289 15.8041 13.4837 16.5008 13.4837C17.1972 13.4837 17.7905 13.7292 18.2808 14.2201C18.771 14.7107 19.0161 15.3044 19.0161 16.0011C19.0161 16.6975 18.7707 17.2909 18.2798 17.7811C17.7891 18.2713 17.1954 18.5164 16.4988 18.5164Z" fill="white"/>
</svg>
