<svg width="33" height="32" viewBox="0 0 33 32" fill="none" xmlns="http://www.w3.org/2000/svg">
<path fill-rule="evenodd" clip-rule="evenodd" d="M14.4926 17.5368C13.9543 18.2314 13.598 19.0042 13.4241 19.8554C13.4125 19.9122 13.4017 19.9693 13.3917 20.0267C13.3689 20.1581 13.3503 20.2912 13.336 20.4261C13.3291 20.4909 13.3232 20.5561 13.3183 20.6218C13.3058 20.7874 13.2996 20.9556 13.2996 21.1266C13.2996 22.7744 13.8764 24.1748 15.0293 25.3282C16.1822 26.4815 17.5822 27.0586 19.2293 27.0586C19.8085 27.0586 20.3639 26.9771 20.8949 26.8149C21.4259 26.6524 21.9358 26.4143 22.4246 26.1008L26.0293 29.7055L27.8051 27.9297L24.2004 24.325C24.5139 23.8362 24.7534 23.3251 24.9176 22.7922C25.0817 22.2595 25.1636 21.7053 25.1637 21.1297C25.1637 20.1052 24.9401 19.1763 24.4941 18.343L25.3793 17.4633L26.109 18.193C26.1031 18.2613 26.0996 18.3303 26.0996 18.4C26.0996 19.7255 27.1741 20.8 28.4996 20.8C29.8251 20.8 30.8996 19.7255 30.8996 18.4C30.8996 17.0746 29.8251 16 28.4996 16C28.2626 16 28.0338 16.0353 27.8176 16.0993L25.3793 13.661L22.7285 16.318C21.7238 15.5727 20.5586 15.2 19.2332 15.2C18.2658 15.2001 17.3841 15.3993 16.5871 15.7961L11.4488 11.0219C12.0621 10.2415 12.7564 9.44086 13.5324 8.62036C14.4161 7.68604 15.4049 6.7254 16.4996 5.73911C19.0189 8.00891 20.9782 10.1418 22.3793 12.1368L23.1129 11.4016L24.1895 10.3204C22.3958 7.85988 19.8335 5.21046 16.4996 2.37427C14.6562 3.94246 13.0482 5.45298 11.6762 6.9063C10.907 7.72098 10.2127 8.51827 9.5918 9.29692L6.87148 6.7688C6.89002 6.64859 6.89961 6.52544 6.89961 6.40005C6.89961 5.07457 5.82509 4.00005 4.49961 4.00005C3.17413 4.00005 2.09961 5.07457 2.09961 6.40005C2.09961 7.72553 3.17413 8.80005 4.49961 8.80005C4.74547 8.80005 4.98252 8.76248 5.20586 8.6938L8.0582 11.4102C7.40147 12.4208 6.87727 13.4022 6.48477 14.354C5.9018 15.7676 5.60977 17.1161 5.60977 18.4C5.60979 21.5747 6.6473 24.2279 8.72305 26.3594C10.5928 28.2794 12.8815 29.3337 15.5887 29.5243C14.5571 29.0784 13.6086 28.4335 12.766 27.5907C11.9765 26.8008 11.3596 25.9186 10.9184 24.9618C10.7806 24.8365 10.6441 24.707 10.5121 24.5704C8.92736 22.93 8.13478 20.8709 8.13477 18.393C8.13477 17.7162 8.25148 17.0016 8.48242 16.2485C8.77633 15.29 9.25681 14.2697 9.92461 13.1875L14.4926 17.5368ZM19.234 17.725C18.2806 17.725 17.4748 18.0537 16.8168 18.711C16.1591 19.3681 15.8301 20.1726 15.8301 21.1243C15.8301 22.0758 16.1577 22.8824 16.8121 23.543C17.4665 24.2033 18.2704 24.5336 19.2238 24.5336C20.1771 24.5336 20.9836 24.2047 21.6434 23.5477C22.3029 22.8906 22.6332 22.0862 22.6332 21.1344C22.6332 20.1826 22.3044 19.3761 21.6473 18.7157C20.9902 18.0551 20.1856 17.7251 19.234 17.725ZM28.4996 17.6C28.0578 17.6 27.6996 17.9582 27.6996 18.4C27.6996 18.8419 28.0578 19.2 28.4996 19.2C28.9414 19.2 29.2996 18.8419 29.2996 18.4C29.2996 17.9582 28.9414 17.6 28.4996 17.6ZM4.49961 5.60005C4.05778 5.60005 3.69961 5.95822 3.69961 6.40005C3.69961 6.84188 4.05778 7.20005 4.49961 7.20005C4.94144 7.20005 5.29961 6.84188 5.29961 6.40005C5.29961 5.95822 4.94144 5.60005 4.49961 5.60005Z" fill="white"/>
</svg>
