<svg width="33" height="32" viewBox="0 0 33 32" fill="none" xmlns="http://www.w3.org/2000/svg">
<path d="M14.6602 25.0499C17.4075 25.0499 19.7457 24.088 21.6749 22.1643C23.6039 20.2405 24.5684 17.9024 24.5684 15.15C24.5684 12.405 23.6039 10.0687 21.6749 8.14114C19.7457 6.21379 17.4075 5.25011 14.6602 5.25011C11.9055 5.25011 9.5654 6.21379 7.64004 8.14114C5.71468 10.0687 4.752 12.405 4.752 15.15C4.752 17.9024 5.71468 20.2405 7.64004 22.1643C9.5654 24.088 11.9055 25.0499 14.6602 25.0499ZM14.6602 27.3C12.9713 27.3 11.3893 26.9794 9.91433 26.3381C8.43935 25.6969 7.15577 24.8306 6.06361 23.7394C4.97144 22.6481 4.10447 21.3656 3.46268 19.8919C2.82089 18.4181 2.5 16.8375 2.5 15.15C2.5 13.485 2.82089 11.9156 3.46268 10.4419C4.10447 8.96812 4.97144 7.68 6.06361 6.5775C7.15577 5.475 8.43935 4.60312 9.91433 3.96187C11.3893 3.32063 12.9713 3 14.6602 3C16.3266 3 17.8973 3.32063 19.3723 3.96187C20.8472 4.60312 22.1364 5.475 23.2399 6.5775C24.3433 7.68 25.2159 8.96812 25.8577 10.4419C26.4995 11.9156 26.8204 13.485 26.8204 15.15C26.8204 16.635 26.5727 18.0337 26.0772 19.3461C25.5818 20.6588 24.895 21.8513 24.0168 22.9236L29.5 28.4249L27.9124 30L22.4066 24.5099C21.3333 25.3874 20.1398 26.0718 18.8261 26.5632C17.5125 27.0544 16.1239 27.3 14.6602 27.3Z" fill="white"/>
<path d="M14.7344 10.5938C13.454 11.6524 12.5011 12.6363 11.8756 13.5455C11.2502 14.4546 10.9375 15.2977 10.9375 16.0747C10.9375 17.2402 11.3208 18.165 12.0874 18.8491C12.8541 19.533 13.7353 19.875 14.7313 19.875C15.727 19.875 16.6093 19.533 17.378 18.8491C18.1468 18.165 18.5312 17.2402 18.5312 16.0747C18.5312 15.2977 18.2185 14.4546 17.5931 13.5455C16.9677 12.6363 16.0148 11.6524 14.7344 10.5938Z" fill="white"/>
</svg>
