<svg width="33" height="32" viewBox="0 0 33 32" fill="none" xmlns="http://www.w3.org/2000/svg">
<path d="M10.7583 25.5637C11.5333 26.0481 12.3221 26.4128 13.1247 26.6574C13.9273 26.9019 14.7777 27.0238 15.6754 27.0238C15.7581 27.0238 15.8404 27.0212 15.9223 27.0191C16.1367 27.279 16.3659 27.5317 16.6114 27.7754C17.1623 28.3224 17.7556 28.79 18.384 29.1801C18.3021 29.2019 18.2205 29.2238 18.1387 29.2434C17.3197 29.4393 16.4985 29.5371 15.6754 29.5371C14.8523 29.5371 14.0323 29.4352 13.2161 29.2316C12.3998 29.0281 11.5791 28.7238 10.7543 28.3184C9.89525 28.7219 9.02191 29.0261 8.13481 29.2316C7.24775 29.4374 6.36511 29.541 5.48716 29.541H3.452V27.0793H5.48716C6.40159 27.0793 7.29587 26.9541 8.16919 26.7043C9.04264 26.4547 9.90591 26.0747 10.7583 25.5637Z" fill="white"/>
<path fill-rule="evenodd" clip-rule="evenodd" d="M23.4161 14.4965C25.1862 14.4965 26.703 15.1269 27.9661 16.3879C29.2289 17.6487 29.8606 19.1739 29.8606 20.9629C29.8606 22.7398 29.229 24.255 27.9661 25.5074C26.703 26.7595 25.1862 27.3855 23.4161 27.3855C21.6457 27.3855 20.1289 26.7583 18.8661 25.5043C17.603 24.2501 16.9715 22.7333 16.9715 20.9543C16.9716 19.175 17.603 17.6539 18.8661 16.391C20.1289 15.1279 21.6457 14.4965 23.4161 14.4965ZM23.4161 23.8301C23.2039 23.8301 23.0291 23.8988 22.8918 24.0363C22.7544 24.1736 22.6856 24.349 22.6856 24.5629C22.6856 24.7766 22.7544 24.9521 22.8918 25.0895C23.0292 25.227 23.2011 25.2957 23.4075 25.2957C23.6139 25.2957 23.7899 25.2273 23.9348 25.0902C24.0795 24.9532 24.152 24.7766 24.152 24.5605C24.152 24.3485 24.0798 24.1736 23.9356 24.0363C23.7912 23.8988 23.6176 23.8301 23.4161 23.8301ZM22.6856 22.4965H24.152V16.5855H22.6856V22.4965Z" fill="white"/>
<path d="M19.2442 5.57773H22.927C23.6283 5.57773 24.2257 5.82469 24.7184 6.31758C25.2111 6.81037 25.4574 7.4073 25.4575 8.1082V11.802C25.0613 11.6964 24.6576 11.6226 24.2465 11.5809C23.8354 11.5393 23.4182 11.5184 22.9958 11.5184V8.03945H8.02935V13.2434L15.5129 10.9973L19.4754 12.1941C18.9266 12.423 18.4317 12.6983 17.9911 13.0191C17.5503 13.3402 17.1518 13.7058 16.795 14.1152L15.2387 13.6574L5.6231 16.5207L7.04106 21.3301C7.46662 21.1161 7.87394 20.8735 8.26216 20.6035C8.65028 20.3338 9.0177 20.0244 9.3645 19.6754L10.5567 18.4785L11.9254 20.0012C12.315 20.4338 12.7408 20.8125 13.2028 21.1371C13.6648 21.4615 14.1686 21.6676 14.7137 21.7559V24.2527C13.9451 24.1383 13.1908 23.8603 12.4512 23.4199C11.7117 22.9793 11.0663 22.4634 10.5161 21.8723C9.7712 22.584 8.95796 23.1455 8.07622 23.5566C7.19455 23.9677 6.27585 24.2145 5.31997 24.2965L2.95903 16.0418C2.85726 15.7089 2.88778 15.3952 3.052 15.1012C3.21597 14.807 3.46961 14.6056 3.81216 14.4965L5.56841 13.9895V8.1082C5.56845 7.40719 5.81466 6.81041 6.30747 6.31758C6.80007 5.82475 7.39688 5.5778 8.0981 5.57773H11.7817V2.40039H19.2442V5.57773Z" fill="white"/>
</svg>
