<svg width="300" height="143" viewBox="0 0 300 143" fill="none" xmlns="http://www.w3.org/2000/svg">
<rect width="300" height="80" fill="#003964"/>
<path d="M0.000976562 80H39.793C36.2599 80 31.3705 77.1346 28.8722 73.6L26.6105 70.4C24.1122 66.8654 19.2228 64 15.6897 64H0.000976562V80Z" fill="#256EF4"/>
<path d="M0.00107574 80H35.793C31.3766 80 25.2649 76.4183 22.142 72L19.3148 68C16.192 63.5817 10.0803 60 5.66392 60H0.00107574V80Z" fill="white"/>
<path d="M48.6948 25.067V28.0028H50.4006V23.9896H51.3612V34.4579H50.4006V28.8377H48.6948V31.989H44.3674V25.067H48.6948ZM45.3101 31.1899H47.7521V25.866H45.3101V31.1899ZM52.663 35.0325V23.7472H53.6237V35.0325H52.663ZM60.9806 24.7707V25.6057H56.6891V27.9489H60.7292V28.7569H56.6891V31.4862C58.7271 31.4817 60.1501 31.4099 61.8424 31.1181L61.9502 31.9441C60.1905 32.2403 58.7091 32.3032 56.5724 32.3122H55.6836V24.7707H60.9806ZM62.9288 35.0325V23.7472H63.9253V28.2811H65.8107V29.134H63.9253V35.0325H62.9288ZM75.7801 23.7472V30.4717H74.7836V27.518H72.5032V26.692H74.7836V23.7472H75.7801ZM66.47 29.5739C68.1489 28.9634 69.343 27.4372 69.343 25.8211V25.3992H66.7933V24.5732H72.8713V25.3992H70.3485V25.8122C70.3485 27.2845 71.4797 28.6851 73.1317 29.2507L72.6109 30.0497C71.3406 29.5919 70.3575 28.6447 69.8682 27.482C69.3834 28.8018 68.3375 29.8567 66.9908 30.364L66.47 29.5739ZM68.2566 32.9227C68.2477 31.5939 69.6841 30.8218 72.0363 30.8218C74.3796 30.8218 75.816 31.5939 75.816 32.9227C75.816 34.2514 74.3796 35.0145 72.0363 35.0235C69.6841 35.0145 68.2477 34.2514 68.2566 32.9227ZM69.2442 32.9227C69.2352 33.7396 70.3036 34.2334 72.0363 34.2244C73.7601 34.2334 74.8285 33.7396 74.8285 32.9227C74.8285 32.0967 73.7601 31.6029 72.0363 31.6029C70.3036 31.6029 69.2352 32.0967 69.2442 32.9227ZM87.9941 32.7521V33.587H77.6605V32.7521H82.3021V30.3191H78.8815V24.5463H79.8781V26.5843H85.7406V24.5463H86.7282V30.3191H83.2897V32.7521H87.9941ZM79.8781 29.5021H85.7406V27.4012H79.8781V29.5021ZM102.492 32.7521V33.587H92.1586V32.7521H96.8001V30.3191H93.3796V24.5463H94.3761V26.5843H100.239V24.5463H101.226V30.3191H97.7877V32.7521H102.492ZM94.3761 29.5021H100.239V27.4012H94.3761V29.5021ZM112.722 23.7472V35.0325H111.725V23.7472H112.722ZM103.538 32.0967C106.59 30.6512 108.148 28.4786 108.368 25.7852H104.058V24.9772H109.382C109.373 28.2182 107.865 31.0912 104.076 32.9137L103.538 32.0967Z" fill="white"/>
<path d="M119.959 34.6248H126.542V30.6248H130.542V24.0415C130.542 23.8471 130.48 23.6873 130.355 23.5623C130.23 23.4373 130.07 23.3748 129.876 23.3748H119.959C119.765 23.3748 119.605 23.4373 119.48 23.5623C119.355 23.6873 119.292 23.8471 119.292 24.0415V33.9582C119.292 34.1526 119.355 34.3123 119.48 34.4373C119.605 34.5623 119.765 34.6248 119.959 34.6248ZM119.959 35.5832C119.491 35.5832 119.103 35.4294 118.795 35.1217C118.488 34.8141 118.334 34.4262 118.334 33.9582V24.0415C118.334 23.5734 118.488 23.1856 118.795 22.878C119.103 22.5703 119.491 22.4165 119.959 22.4165H129.876C130.344 22.4165 130.732 22.5703 131.039 22.878C131.347 23.1856 131.501 23.5734 131.501 24.0415V30.729L126.646 35.5832H119.959ZM121.751 30.729V29.7707H125.042V30.729H121.751ZM121.751 27.229V26.2707H128.084V27.229H121.751Z" fill="white"/>
<path d="M149.125 25.067V28.0028H150.831V23.9896H151.792V34.4579H150.831V28.8377H149.125V31.989H144.798V25.067H149.125ZM145.741 31.1899H148.183V25.866H145.741V31.1899ZM153.094 35.0325V23.7472H154.054V35.0325H153.094ZM161.411 24.7707V25.6057H157.12V27.9489H161.16V28.7569H157.12V31.4862C159.158 31.4817 160.581 31.4099 162.273 31.1181L162.381 31.9441C160.621 32.2403 159.14 32.3032 157.003 32.3122H156.114V24.7707H161.411ZM163.359 35.0325V23.7472H164.356V28.2811H166.241V29.134H164.356V35.0325H163.359ZM176.211 23.7472V30.4717H175.214V27.518H172.934V26.692H175.214V23.7472H176.211ZM166.901 29.5739C168.58 28.9634 169.774 27.4372 169.774 25.8211V25.3992H167.224V24.5732H173.302V25.3992H170.779V25.8122C170.779 27.2845 171.91 28.6851 173.562 29.2507L173.042 30.0497C171.771 29.5919 170.788 28.6447 170.299 27.482C169.814 28.8018 168.768 29.8567 167.421 30.364L166.901 29.5739ZM168.687 32.9227C168.678 31.5939 170.115 30.8218 172.467 30.8218C174.81 30.8218 176.247 31.5939 176.247 32.9227C176.247 34.2514 174.81 35.0145 172.467 35.0235C170.115 35.0145 168.678 34.2514 168.687 32.9227ZM169.675 32.9227C169.666 33.7396 170.734 34.2334 172.467 34.2244C174.191 34.2334 175.259 33.7396 175.259 32.9227C175.259 32.0967 174.191 31.6029 172.467 31.6029C170.734 31.6029 169.666 32.0967 169.675 32.9227ZM188.425 32.7521V33.587H178.091V32.7521H182.733V30.3191H179.312V24.5463H180.309V26.5843H186.171V24.5463H187.159V30.3191H183.72V32.7521H188.425ZM180.309 29.5021H186.171V27.4012H180.309V29.5021ZM201.325 23.7472V28.2093H203.21V29.0442H201.325V35.0504H200.328V23.7472H201.325ZM193.083 32.2224V24.8515H198.353V25.6685H194.08V31.3785C196.122 31.374 197.567 31.2932 199.242 30.9834L199.368 31.8453C197.599 32.1595 196.118 32.2224 193.972 32.2224H193.083ZM214.14 29.4841V30.3101H209.561V32.6174H208.556V30.3101H203.807V29.4841H214.14ZM204.983 26.3059C204.974 24.9054 206.554 24.0435 208.96 24.0345C211.375 24.0435 212.937 24.9054 212.937 26.3059C212.937 27.6975 211.375 28.5594 208.96 28.5594C206.554 28.5594 204.974 27.6975 204.983 26.3059ZM205.144 34.7811V31.4862H206.141V33.9372H212.991V34.7811H205.144ZM206.042 26.3059C206.033 27.1858 207.209 27.7424 208.96 27.7424C210.72 27.7424 211.887 27.1858 211.887 26.3059C211.887 25.4081 210.72 24.8515 208.96 24.8515C207.209 24.8515 206.033 25.4081 206.042 26.3059ZM225.393 32.788V33.6319H215.06V32.788H219.701V30.6602H216.353V27.1768H223.104V25.4081H216.326V24.5822H224.092V27.9938H217.34V29.8343H224.352V30.6602H220.689V32.788H225.393ZM235.408 29.1699V29.9959H227.615V24.7977H235.3V25.6236H228.603V29.1699H235.408ZM226.295 33.4883V32.6533H236.629V33.4883H226.295Z" fill="white"/>
<path d="M245.292 32.7915H252.875V31.7082H245.292V32.7915ZM249.083 30.2113L251.795 27.4998L251.021 26.7259L249.625 28.1378V24.7082H248.542V28.1378L247.146 26.7259L246.372 27.4998L249.083 30.2113ZM249.09 36.5832C248.047 36.5832 247.065 36.3858 246.143 35.9911C245.221 35.5964 244.414 35.0532 243.722 34.3617C243.031 33.6702 242.487 32.864 242.092 31.9432C241.697 31.0225 241.5 30.0387 241.5 28.9917C241.5 27.9448 241.697 26.9639 242.092 26.049C242.487 25.1341 243.03 24.3308 243.721 23.639C244.413 22.9472 245.219 22.4038 246.14 22.0088C247.061 21.6139 248.045 21.4165 249.091 21.4165C250.138 21.4165 251.119 21.6139 252.034 22.0086C252.949 22.4033 253.752 22.9464 254.444 23.638C255.136 24.3295 255.679 25.134 256.074 26.0515C256.469 26.9691 256.667 27.9496 256.667 28.9928C256.667 30.0359 256.469 31.0184 256.075 31.9403C255.68 32.8621 255.137 33.6689 254.445 34.3607C253.754 35.0525 252.949 35.5959 252.032 35.9909C251.114 36.3857 250.134 36.5832 249.09 36.5832ZM249.083 35.4998C250.889 35.4998 252.424 34.8679 253.688 33.604C254.951 32.3401 255.583 30.8054 255.583 28.9998C255.583 27.1943 254.951 25.6596 253.688 24.3957C252.424 23.1318 250.889 22.4998 249.083 22.4998C247.278 22.4998 245.743 23.1318 244.479 24.3957C243.215 25.6596 242.583 27.1943 242.583 28.9998C242.583 30.8054 243.215 32.3401 244.479 33.604C245.743 34.8679 247.278 35.4998 249.083 35.4998Z" fill="white"/>
<path d="M28 53L16 65M16 53L28 65" stroke="white" stroke-opacity="0.5" stroke-width="2" stroke-linecap="round" stroke-linejoin="round"/>
<path d="M127.914 79.8198V72.2131H130.401V90.8926H127.914V81.9081H126.398V90.0877H123.947V72.5829H126.398V79.8198H127.914ZM117.486 72.7424H120.061V75.0701H123.258V77.1512H114.223V75.0701H117.486V72.7424ZM118.784 77.9924C121.17 77.9924 122.874 79.827 122.881 82.4085C122.874 85.0262 121.17 86.8681 118.784 86.8681C116.406 86.8681 114.666 85.0262 114.673 82.4085C114.666 79.827 116.406 77.9924 118.784 77.9924ZM118.784 84.6492C119.836 84.6564 120.575 83.837 120.583 82.4085C120.575 81.009 119.836 80.1606 118.784 80.1606C117.704 80.1606 116.964 81.009 116.972 82.4085C116.964 83.837 117.704 84.6564 118.784 84.6492ZM149.631 74.548V76.6727H147.216V78.5943H149.631V80.7479H147.216V83.1336H144.591V72.2131H147.216V74.548H149.631ZM142.749 77.7604C142.735 80.3999 140.545 82.278 137.652 82.2852C134.737 82.278 132.525 80.3999 132.539 77.7604C132.525 75.1064 134.737 73.2355 137.652 73.2427C140.545 73.2355 142.735 75.1064 142.749 77.7604ZM135.099 77.7604C135.085 79.2179 136.187 80.0735 137.652 80.0735C139.087 80.0735 140.19 79.2179 140.197 77.7604C140.19 76.3318 139.095 75.4327 137.652 75.4399C136.187 75.4327 135.085 76.3318 135.099 77.7604ZM141.089 83.5107C144.939 83.5107 147.39 84.8957 147.39 87.2162C147.39 89.5148 144.939 90.8926 141.089 90.8854C137.195 90.8926 134.693 89.5148 134.7 87.2162C134.693 84.8957 137.195 83.5107 141.089 83.5107ZM141.089 88.8115C143.518 88.8115 144.809 88.3111 144.809 87.2162C144.809 86.1212 143.518 85.5846 141.089 85.5773C138.645 85.5846 137.311 86.1212 137.318 87.2162C137.311 88.3111 138.645 88.8115 141.089 88.8115ZM163.531 90.8926V72.2131H166.178V90.8926H163.531ZM157.781 76.1578V77.3035C157.781 80.3273 159.34 83.5542 162.465 84.8522L161.058 86.9044C158.854 85.9762 157.338 84.1198 156.497 81.8574C155.656 84.3156 154.112 86.3605 151.907 87.3684L150.421 85.3163C153.51 83.9313 155.112 80.4724 155.119 77.3035V76.1578H151.153V74.0186H161.689V76.1578H157.781ZM181.826 80.7769H178.352V82.1329H169.484V73.5908H178.352V74.9613H181.826V72.2131H184.436V83.1626H181.826V80.7769ZM172.08 80.059H175.785V75.6575H172.08V80.059ZM181.826 78.6595V77.0207H178.352V78.6595H181.826ZM178.055 83.6412C182.043 83.6412 184.48 84.9827 184.487 87.2742C184.48 89.5801 182.043 90.8926 178.055 90.8854C174.081 90.8926 171.637 89.5801 171.645 87.2742C171.637 84.9827 174.081 83.6412 178.055 83.6412ZM178.055 88.8985C180.535 88.8912 181.884 88.3401 181.891 87.2742C181.884 86.1647 180.535 85.6426 178.055 85.6354C175.582 85.6426 174.241 86.1647 174.248 87.2742C174.241 88.3401 175.582 88.8912 178.055 88.8985Z" fill="white"/>
<path d="M25 98L19 104L25 110" stroke="white" stroke-opacity="0.5" stroke-width="2" stroke-linecap="round" stroke-linejoin="round"/>
</svg>
