<svg width="26" height="26" viewBox="0 0 26 26" fill="none" xmlns="http://www.w3.org/2000/svg">
<path d="M14.3398 20.5664C15.1992 20.6263 16.17 21.0793 16.6914 21.5557L16.835 21.6865H16.8516L16.7334 21.7734C16.2304 22.143 15.2161 22.5282 14.3203 22.5488C13.8774 22.559 13.5202 22.4786 13.2754 22.3193C13.064 22.1818 12.8944 21.9578 12.8369 21.5586C12.922 21.1331 13.1095 20.8976 13.3262 20.7607C13.5711 20.6061 13.9165 20.537 14.3398 20.5664ZM18.0781 21.4326C18.1802 21.4412 18.2333 21.468 18.2598 21.4893C18.2754 21.5019 18.3017 21.5283 18.3232 21.5908C18.3068 21.6823 18.2778 21.7277 18.2559 21.751C18.2255 21.7832 18.1697 21.8185 18.0674 21.8398C17.8462 21.886 17.5199 21.8382 17.2207 21.7139L17.1533 21.6855L17.2588 21.6348C17.5462 21.4928 17.8584 21.4143 18.0781 21.4326ZM6.20898 19.5693C7.06859 19.6291 8.04009 20.0821 8.56152 20.5586L8.70508 20.6895H8.71973L8.60254 20.7754C8.0996 21.1449 7.08624 21.5311 6.19043 21.5518C5.74734 21.5619 5.39041 21.4806 5.14551 21.3213C4.93437 21.1839 4.76372 20.9609 4.70605 20.5625C4.79097 20.1362 4.9794 19.9007 5.19629 19.7637C5.44119 19.6091 5.78574 19.5399 6.20898 19.5693ZM9.94824 20.4355C10.0506 20.4442 10.1035 20.4709 10.1299 20.4922C10.1456 20.5048 10.1718 20.531 10.1934 20.5938C10.1769 20.6851 10.1469 20.7296 10.125 20.7529C10.0947 20.7852 10.0398 20.8214 9.9375 20.8428C9.71633 20.889 9.39005 20.8412 9.09082 20.7168L9.02344 20.6885L9.12793 20.6377C9.41557 20.4956 9.72841 20.4171 9.94824 20.4355Z" fill="#256EF4" stroke="#256EF4"/>
<path d="M18.7606 8.83511C22.4468 9.64894 24.9362 11.2207 24.9362 13.0239C24.9362 15.6649 19.5745 17.8112 12.9681 17.8112C6.3617 17.8112 1 15.6729 1 13.0239C1 11.2207 3.48138 9.65691 7.1516 8.83511M1 13.1277V20.2128C1 22.8537 6.3617 25 12.9681 25C19.5745 25 24.9362 22.8537 24.9362 20.2128V13.1277M24.9362 18.4415C24.9362 17.3484 24.0186 16.3351 22.4707 15.5293C20.2846 14.3883 16.8378 13.6543 12.9681 13.6543C9.0984 13.6543 5.71543 14.3803 3.52926 15.4973C1.94947 16.3112 1 17.3324 1 18.4415M10.1516 2.26862L15.5213 9.30585M12.8324 1C10.4707 1 8.42021 2.74734 8.09309 5.14894C7.74202 7.76596 9.57713 10.1755 12.1941 10.5346C12.4096 10.5665 12.625 10.5745 12.8404 10.5745C15.2021 10.5745 17.2527 8.82713 17.5798 6.42553C17.9309 3.80851 16.0957 1.39894 13.4787 1.03989C13.2633 1.00798 13.0479 1 12.8324 1Z" stroke="#256EF4" stroke-width="2" stroke-linecap="round" stroke-linejoin="round"/>
</svg>
