<svg width="26" height="24" viewBox="0 0 26 24" fill="none" xmlns="http://www.w3.org/2000/svg">
<path d="M3.22982 21.6565C3.22982 21.6565 7.6783 24.7649 14.3102 21.5255C18.0173 19.7197 23.9282 21.0361 24.9961 21.6565M6.87567 22.5731L21.9896 8.8642L23.1936 12.3035C25.3498 14.7572 25.3294 18.4102 23.2752 20.8363M16.4392 12.6274L15.2421 10.801L7.27698 18.3895M11.9975 22.2699L23.1324 12.2346M2.79449 2.09589L7.36541 8.17497M7.44023 18.4033L9.16113 20.2297M20.8673 18.1276C20.568 17.7898 20.5952 17.266 20.9353 16.9627C21.2754 16.6595 21.7856 16.6939 22.0849 17.0317C22.3841 17.3694 22.3569 17.8932 22.0168 18.1965C21.6767 18.4998 21.1666 18.4653 20.8673 18.1276ZM5.07315 1C3.05977 1 1.31166 2.50943 1.03278 4.58404C0.733498 6.84474 2.29795 8.92624 4.52899 9.23639C4.71265 9.26396 4.8963 9.27085 5.07995 9.27085C7.09333 9.27085 8.84144 7.76142 9.12032 5.68682C9.4196 3.42612 7.85515 1.34462 5.62411 1.03446C5.44046 1.00689 5.2568 1 5.07315 1Z" stroke="#0B78CB" stroke-width="2" stroke-linecap="round" stroke-linejoin="round"/>
</svg>
