<svg width="26" height="26" viewBox="0 0 26 26" fill="none" xmlns="http://www.w3.org/2000/svg">
<path d="M13.3058 3.4113L15.6612 5.76986M13.8116 8.01539H15.178M22.9994 8.01539H20.8855M18.0318 12.9812V10.8637M18.0318 3.05714V5.17457M13.3511 12.6345L15.7141 10.276M21.8367 11.8358L20.2287 10.2308M22.5464 3.36609L20.1834 5.72465M23.6486 17.4647C23.6486 18.2936 22.9692 18.9717 22.1387 18.9717H2.50991C1.67946 18.9717 1 18.2936 1 17.4647V3.9011C1 3.07221 1.67946 2.39403 2.50991 2.39403H10.1727M10.8144 18.9717L9.3045 24.2465M13.8342 18.9717L15.3441 24.2465M5.52973 25H19.1189M20.8327 8.01539C20.8327 9.5752 19.5643 10.8411 18.0016 10.8411C16.4388 10.8411 15.1705 9.5752 15.1705 8.01539C15.1705 6.45557 16.4388 5.18964 18.0016 5.18964C19.5643 5.18964 20.8327 6.45557 20.8327 8.01539ZM13.4039 7.02072C13.955 7.5708 13.955 8.46751 13.4039 9.01758C12.8528 9.56766 11.9544 9.56766 11.4033 9.01758C10.8522 8.46751 10.8522 7.5708 11.4033 7.02072C11.9544 6.47064 12.8528 6.47064 13.4039 7.02072ZM12.3092 12.1749C13.0868 12.1749 13.721 12.8079 13.721 13.584C13.721 14.3601 13.0868 14.9931 12.3092 14.9931C11.5316 14.9931 10.8975 14.3601 10.8975 13.584C10.8975 12.8079 11.5316 12.1749 12.3092 12.1749ZM21.3762 12.8757C21.3762 12.0995 22.0104 11.4666 22.788 11.4666C23.5656 11.4666 24.1997 12.0995 24.1997 12.8757C24.1997 13.6518 23.5656 14.2848 22.788 14.2848C22.0104 14.2848 21.3762 13.6518 21.3762 12.8757ZM25 2.40911C25 3.18733 24.3679 3.81821 23.5882 3.81821C22.8085 3.81821 22.1765 3.18733 22.1765 2.40911C22.1765 1.63088 22.8085 1 23.5882 1C24.3679 1 25 1.63088 25 2.40911Z" stroke="#256EF4" stroke-width="2" stroke-linecap="round" stroke-linejoin="round"/>
</svg>
