<svg width="25" height="26" viewBox="0 0 25 26" fill="none" xmlns="http://www.w3.org/2000/svg">
<path d="M11.7333 2.35849L12.707 2.40377C18.1733 2.88679 22.4667 7.42264 22.4667 12.9245C22.4667 18.7509 17.652 23.4906 11.7333 23.4906C5.81467 23.4906 1 18.7509 1 12.9245C1 10.6377 1.74367 8.52453 3.001 6.78868M19.308 20.3811L24 25M21.447 17.1358C21.447 17.1358 15.8197 22.6906 8.96567 18.0868C5.77633 15.9434 4.08967 14.6755 2.01967 16.1472M17.767 11.2566C17.767 11.2566 15.237 16.9925 9.08833 15.7472C5.15533 14.9547 3.622 14.0113 2.01967 16.1547M17.767 11.4075C17.767 11.4075 19.7987 17.5585 13.995 19.9132M8.636 1C11.5953 1 14.0027 3.36981 14.0027 6.28302C14.0027 9.19623 8.636 13.0755 8.636 13.0755C8.636 13.0755 3.26933 9.19623 3.26933 6.28302C3.26933 3.36981 5.67667 1 8.636 1ZM10.1693 6.13208C10.1693 6.96571 9.48284 7.64151 8.636 7.64151C7.78916 7.64151 7.10267 6.96571 7.10267 6.13208C7.10267 5.29844 7.78916 4.62264 8.636 4.62264C9.48284 4.62264 10.1693 5.29844 10.1693 6.13208Z" stroke="#3D9FB8" stroke-width="2" stroke-linecap="round" stroke-linejoin="round"/>
</svg>
