<svg width="26" height="26" viewBox="0 0 26 26" fill="none" xmlns="http://www.w3.org/2000/svg">
<path d="M2.55659 19.3816V1H15.2634V5.11588M10.4983 16.1848V5.51548H23.2052V10.7902M10.4666 12.0689H7.32164V18.5824M17.1694 20.7562C15.0172 20.4446 12.4917 20.7562 9.68829 22.2827C5.54269 24.5604 3.33488 25.9271 1 23.8412M24.7538 25C24.7538 25 22.8875 22.6983 19.7187 21.4436M13.4289 14.954C12.039 15.2737 10.7922 15.9371 9.85506 17.016C6.01125 21.4356 2.92985 20.7243 1 18.8302M25 19.8132C24.5314 19.03 23.9199 18.3107 23.2131 17.6873M18.9881 8.99201C22.0536 8.99201 24.5473 11.5015 24.5473 14.5864C24.5473 17.6713 18.9881 21.7792 18.9881 21.7792C18.9881 21.7792 13.4289 17.6713 13.4289 14.5864C13.4289 11.5015 15.9226 8.99201 18.9881 8.99201ZM20.5764 14.4266C20.5764 15.3093 19.8653 16.025 18.9881 16.025C18.1109 16.025 17.3997 15.3093 17.3997 14.4266C17.3997 13.5438 18.1109 12.8282 18.9881 12.8282C19.8653 12.8282 20.5764 13.5438 20.5764 14.4266Z" stroke="#256EF4" stroke-width="2" stroke-linecap="round" stroke-linejoin="round"/>
</svg>
