<svg width="25" height="26" viewBox="0 0 25 26" fill="none" xmlns="http://www.w3.org/2000/svg">
<path d="M2.76037 23.154C2.76037 23.154 9.15296 27.8323 15.2466 22.2938C18.0826 19.7132 21.7312 20.4526 24 21.6071M8.84636 24.7235L9.06864 21.2374C9.18362 19.4491 8.71605 17.6683 7.72727 16.1592L6.95311 14.9745C6.42423 14.1596 6.34758 13.1409 6.74616 12.2581L7.85758 9.83594C8.3558 8.74937 8.15651 7.4817 7.35169 6.59886L4.47733 3.42969C3.58819 2.44876 1.98621 2.60722 1.3117 3.74661C0.882457 4.47099 0.897787 5.37647 1.35002 6.08576L3.4119 9.35302C3.76449 9.91894 3.77215 10.6282 3.42723 11.2017L2.21616 13.2013C1.86357 13.7898 1.86357 14.5142 2.21616 15.0952L4.33169 18.5738C4.71494 19.2001 4.85291 19.9395 4.71494 20.6564L4.21672 23.3954M9.09164 20.9507C9.62052 20.1357 10.1801 19.683 9.77382 18.8001L8.6624 16.378C8.16418 15.2914 8.36347 14.0238 9.16829 13.1409L11 11.2017C11.8891 10.2208 12.4517 10.415 14 11C15 12.5 14.5913 13.5522 14.139 14.2614L13.1081 15.8951C12.7555 16.461 12.7478 17.1703 13.0928 17.7438L14.3038 18.9888M14.3038 18.9888C14.6564 19.5773 14.6564 20.3017 14.3038 20.8827L12.081 24.0745M14.3038 18.9888C18.144 16.0083 21.7312 17.1326 24 18.287M22.3214 8.54563L24 10.1981M18.8721 1C16.542 1 14.6564 2.85623 14.6564 5.1501C14.6564 7.44397 16.542 9.3002 18.8721 9.3002C21.2023 9.3002 23.0879 7.44397 23.0879 5.1501C23.0879 2.85623 21.2023 1 18.8721 1Z" stroke="#0B50D0" stroke-width="2" stroke-linecap="round" stroke-linejoin="round"/>
</svg>
