<svg width="26" height="27" viewBox="0 0 26 27" fill="none" xmlns="http://www.w3.org/2000/svg">
<path d="M23.2226 24.1357C23.2226 24.1357 16.768 28.8604 10.6153 23.2669C7.75171 20.6608 4.06781 21.4076 1.77698 22.5735M17.0776 25.7207L16.8531 22.2001C16.737 20.394 17.2091 18.5956 18.2075 17.0715L18.9892 15.8751C19.5232 15.0521 19.6006 14.0233 19.1981 13.1318L18.0759 10.6856C17.5729 9.58824 17.7741 8.30801 18.5867 7.41642L21.489 4.21583C22.3867 3.22517 24.0042 3.3852 24.6853 4.53589C25.1187 5.26745 25.1032 6.1819 24.6466 6.89823L22.5647 10.1979C22.2087 10.7694 22.201 11.4857 22.5492 12.0649L23.772 14.0843C24.1281 14.6787 24.1281 15.4103 23.772 15.997L21.636 19.5101C21.249 20.1426 21.1097 20.8894 21.249 21.6133L21.7521 24.3795M16.8299 21.9105C16.2959 21.0875 15.7309 20.6303 16.1411 19.7387L17.2633 17.2925C17.7664 16.1952 17.5651 14.9149 16.7525 14.0233L13.8503 10.8228C12.9525 9.8321 11.335 9.99213 10.6539 11.1428C10.2205 11.8744 10.236 12.7888 10.6926 13.5052L12.7745 16.8048C13.1305 17.3763 13.1383 18.0927 12.79 18.6718L11.5672 19.9292M11.5672 19.9292C11.2112 20.5236 11.2112 21.2551 11.5672 21.8419L13.8116 25.0654M11.5672 19.9292C7.6898 16.9191 4.06781 18.0546 1.77698 19.2205M3.04622 2.21165L8.24703 8.93288M5.63889 1C3.34806 1 1.35906 2.66888 1.04175 4.96263C0.701218 7.46214 2.48125 9.76351 5.01974 10.1064C5.2287 10.1369 5.43766 10.1445 5.64663 10.1445C7.93746 10.1445 9.92645 8.47566 10.2438 6.1819C10.5843 3.6824 8.80426 1.38102 6.26577 1.0381C6.05681 1.00762 5.84785 1 5.63889 1Z" stroke="#0B50D0" stroke-width="2" stroke-linecap="round" stroke-linejoin="round"/>
</svg>
