<svg width="26" height="26" viewBox="0 0 26 26" fill="none" xmlns="http://www.w3.org/2000/svg">
<path d="M22.808 9H24.6M1.4 9H12.352M19.888 17H24.6M1.4 17H15.008M9.248 24.496V1.752M17.496 5.424V1.752M17.496 24.496V18.64M17.56 5.8C20.648 5.8 23.16 8.312 23.16 11.4C23.16 15.008 17.56 18.6 17.56 18.6C17.56 18.6 11.96 15.272 11.96 11.4C11.96 8.312 14.472 5.8 17.56 5.8ZM19.16 11.24C19.16 12.1237 18.4437 12.84 17.56 12.84C16.6763 12.84 15.96 12.1237 15.96 11.24C15.96 10.3563 16.6763 9.64 17.56 9.64C18.4437 9.64 19.16 10.3563 19.16 11.24ZM1.8 1H25V24.2C25 24.64 24.64 25 24.2 25H1.8C1.36 25 1 24.64 1 24.2V1.8C1 1.36 1.36 1 1.8 1Z" stroke="#3D9FB8" stroke-width="2" stroke-linecap="round" stroke-linejoin="round"/>
</svg>
