<svg width="26" height="26" viewBox="0 0 26 26" fill="none" xmlns="http://www.w3.org/2000/svg">
<path d="M16.1713 24.3168C15.5983 24.424 15.0019 24.4775 14.3979 24.4775C8.96902 24.4775 4.55469 20.1162 4.55469 14.7526C4.55469 9.38904 8.96902 5.02776 14.3979 5.02776C19.8267 5.02776 24.241 9.38904 24.241 14.7526M16.4811 21.2486L19.8422 24.4775L25 18.9532M6.52953 9.41964L8.45014 8.59329C10.6108 7.66748 13.0503 7.86641 15.1413 8.92995C16.2875 9.51146 18.0997 9.86342 20.9574 9.41199M4.78703 16.7726C4.78703 16.7726 11.2459 21.5164 17.4027 15.9003C20.2682 13.2836 21.7628 11.7686 24.0552 12.9393M7.19555 1.52344L8.0242 2.93894M2.65731 6.00713L4.09003 6.81818M1 12.1282H2.64956" stroke="#0B78CB" stroke-width="2" stroke-linecap="round" stroke-linejoin="round"/>
</svg>
