<svg width="32" height="32" viewBox="0 0 32 32" fill="none" xmlns="http://www.w3.org/2000/svg">
<g clip-path="url(#clip0_1624_1275)">
<path d="M32.3541 16C27.8913 14.4002 27.5638 12.8763 31.0829 9.77196C26.3781 10.1038 25.5203 8.85564 27.6159 4.68629C23.4005 6.75902 22.1385 5.91059 22.474 1.25729C19.3353 4.73788 17.7945 4.4136 16.177 0C14.5596 4.41398 13.0188 4.73788 9.88009 1.25729C10.2156 5.91059 8.95363 6.75902 4.73815 4.68629C6.83381 8.85564 5.97599 10.1038 1.2712 9.77196C4.7903 12.8763 4.46243 14.4002 0 16C4.46282 17.5998 4.7903 19.1237 1.2712 22.228C5.97599 21.8962 6.83381 23.1444 4.73815 27.3137C8.95363 25.241 10.216 26.0894 9.88009 30.7427C13.0188 27.2621 14.5596 27.5864 16.177 32C17.7945 27.586 19.3353 27.2621 22.474 30.7427C22.1385 26.0894 23.4005 25.241 27.6159 27.3137C25.5203 23.1444 26.3781 21.8962 31.0829 22.228C27.5638 19.1237 27.8917 17.5998 32.3541 16Z" fill="url(#paint0_linear_1624_1275)"/>
<path d="M16.1778 26.8871C22.2573 26.8871 27.1857 22.0127 27.1857 15.9997C27.1857 9.98676 22.2573 5.1123 16.1778 5.1123C10.0983 5.1123 5.16992 9.98676 5.16992 15.9997C5.16992 22.0127 10.0983 26.8871 16.1778 26.8871Z" fill="url(#paint1_linear_1624_1275)"/>
<path opacity="0.3" d="M16.1778 5.41572C22.0782 5.41572 26.8789 10.1638 26.8789 15.9997C26.8789 21.8356 22.0782 26.5837 16.1778 26.5837C10.2773 26.5837 5.4767 21.8356 5.4767 15.9997C5.4767 10.1638 10.2773 5.41572 16.1778 5.41572ZM16.1778 5.1123C10.0983 5.1123 5.16992 9.98672 5.16992 15.9997C5.16992 22.0127 10.0983 26.8871 16.1778 26.8871C22.2573 26.8871 27.1857 22.0127 27.1857 15.9997C27.1857 9.98672 22.2573 5.1123 16.1778 5.1123Z" fill="white"/>
</g>
<defs>
<linearGradient id="paint0_linear_1624_1275" x1="16.177" y1="0" x2="16.177" y2="32.0865" gradientUnits="userSpaceOnUse">
<stop stop-color="#FFF33B"/>
<stop offset="0.05" stop-color="#FCEC3F"/>
<stop offset="0.27" stop-color="#F4D250"/>
<stop offset="0.51" stop-color="#EEBF5C"/>
<stop offset="0.75" stop-color="#EBB363"/>
<stop offset="1" stop-color="#EAB066"/>
</linearGradient>
<linearGradient id="paint1_linear_1624_1275" x1="16.1778" y1="4.24377" x2="16.1778" y2="27.376" gradientUnits="userSpaceOnUse">
<stop stop-color="#FFF33B"/>
<stop offset="0.04" stop-color="#FEE62D"/>
<stop offset="0.12" stop-color="#FDD51B"/>
<stop offset="0.2" stop-color="#FDCA0F"/>
<stop offset="0.28" stop-color="#FDC70C"/>
<stop offset="0.67" stop-color="#F3903F"/>
<stop offset="0.89" stop-color="#ED683C"/>
<stop offset="1" stop-color="#E93E3A"/>
</linearGradient>
<clipPath id="clip0_1624_1275">
<rect width="32" height="32" fill="white"/>
</clipPath>
</defs>
</svg>
